<?xml version="1.0" encoding="utf-8" standalone="no"?>
<svg xmlns="http://www.w3.org/2000/svg" xmlns:xlink="http://www.w3.org/1999/xlink" width="500" height="135">
	<!-- Created by: WeatherFlowTempestLogger Version 1.20240618.1 Built on: Jun 18 2024 at 07:05:16 -->
	<clipPath id="GraphRegion"><polygon points="66,14 470,14 470,121 66,121" /></clipPath>
	<style>
		text { font-family: sans-serif; font-size: 12px; fill: black; }
		line { stroke: black; }
		polygon { fill-opacity: 0.5; }
		.barometer-label { font-family: Georgia, serif; font-style: italic; font-size: 116px; opacity: 0.5; clip-path: url(#GraphRegion); text-anchor: middle; dominant-baseline: middle; }
	</style>
	<rect style="fill-opacity:0;stroke:grey;stroke-width:2" width="500" height="135" />
	<text x="66" y="12">Tempest</text>
	<text style="text-anchor:end" x="470" y="12">2024-06-18 07:30:00</text>
	<text style="fill:blue;text-anchor:middle" x="12" y="50%" transform="rotate(270 12,67)">Wind Speed (0.6 kn)</text>
	<text style="fill:blue;text-anchor:middle" x="24" y="50%" transform="rotate(270 24,67)">Wind Gust (1.7 kn)</text>
	<text style="fill:green;text-anchor:middle" x="36" y="50%" transform="rotate(270 36,67)">Pressure (1019.8 hPa)</text>
	<line x1="64" y1="14" x2="472" y2="14"/>
	<text style="fill:blue;text-anchor:end;dominant-baseline:middle" x="64" y="14">5.6</text>
	<text style="fill:green;dominant-baseline:middle" x="472" y="14">1025.4</text>
	<line style="stroke-dasharray:1" x1="64" y1="40" x2="472" y2="40" />
	<text style="fill:blue;text-anchor:end;dominant-baseline:middle" x="64" y="40">4.2</text>
	<text style="fill:green;dominant-baseline:middle" x="472" y="40">1023.1</text>
	<line style="stroke-dasharray:1" x1="64" y1="66" x2="472" y2="66" />
	<text style="fill:blue;text-anchor:end;dominant-baseline:middle" x="64" y="66">2.8</text>
	<text style="fill:green;dominant-baseline:middle" x="472" y="66">1020.8</text>
	<line style="stroke-dasharray:1" x1="64" y1="92" x2="472" y2="92" />
	<text style="fill:blue;text-anchor:end;dominant-baseline:middle" x="64" y="92">1.4</text>
	<text style="fill:green;dominant-baseline:middle" x="472" y="92">1018.5</text>
	<line x1="64" y1="121" x2="472" y2="121"/>
	<text style="fill:blue;text-anchor:end;dominant-baseline:middle" x="64" y="121">0.0</text>
	<text style="fill:green;dominant-baseline:middle" x="472" y="121">1016.2</text>
	<line x1="66" y1="14" x2="66" y2="121"/>
	<line style="stroke-dasharray:1" x1="81" y1="14" x2="81" y2="123" />
	<text style="text-anchor:middle" x="105" y="133">Mon</text>
	<line style="stroke-dasharray:1" x1="129" y1="14" x2="129" y2="123" />
	<text style="text-anchor:middle" x="153" y="133">Sun</text>
	<line style="stroke:red" x1="177" y1="14" x2="177" y2="123" />
	<text style="text-anchor:middle" x="201" y="133">Sat</text>
	<line style="stroke-dasharray:1" x1="225" y1="14" x2="225" y2="123" />
	<text style="text-anchor:middle" x="249" y="133">Fri</text>
	<line style="stroke-dasharray:1" x1="273" y1="14" x2="273" y2="123" />
	<text style="text-anchor:middle" x="297" y="133">Thu</text>
	<line style="stroke-dasharray:1" x1="321" y1="14" x2="321" y2="123" />
	<text style="text-anchor:middle" x="345" y="133">Wed</text>
	<line style="stroke-dasharray:1" x1="369" y1="14" x2="369" y2="123" />
	<text style="text-anchor:middle" x="393" y="133">Tue</text>
	<line x1="470" y1="14" x2="470" y2="121"/>
	<polygon style="fill:red;stroke:red;fill-opacity:1;" points="63,121 69,118 69,124" />
	<!-- OutsidePressure -->
	<polyline style="fill:none;stroke:green;clip-path:url(#GraphRegion)" points="67,81 68,82 69,82 70,83 71,85 72,86 73,86 74,87 75,86 76,86 77,86 78,86 79,86 80,85 81,84 82,85 83,86 84,86 85,87 86,89 87,90 88,91 89,93 90,93 91,95 92,98 93,99 94,100 95,98 96,95 97,95 98,97 99,97 100,97 101,96 102,96 103,96 104,96 105,96 106,96 107,96 108,96 109,96 110,96 111,96 112,96 113,96 114,96 115,96 116,96 117,96 118,96 119,96 120,96 121,96 122,96 123,96 124,96 125,96 126,96 127,96 128,96 129,96 130,96 131,96 132,96 133,96 134,96 135,96 136,96 137,96 138,96 139,96 140,96 141,96 142,96 143,96 144,96 145,96 146,96 147,96 148,96 149,96 150,96 151,96 152,96 153,96 154,96 155,96 156,96 157,96 158,96 159,96 160,96 161,96 162,96 163,96 164,96 165,96 166,96 167,96 168,96 169,96 170,96 171,96 172,96 173,96 174,96 175,96 176,96 177,96 178,96 179,96 180,96 181,96 182,96 183,96 184,96 185,96 186,96 187,96 188,96 189,96 190,96 191,96 192,96 193,96 194,96 195,96 196,96 197,96 198,96 199,96 200,96 201,96 202,96 203,96 204,96 205,96 206,96 207,96 208,96 209,96 210,96 211,96 212,96 213,96 214,96 215,96 216,96 217,96 218,96 219,96 220,96 221,96 222,96 223,96 224,96 225,96 226,96 227,96 228,96 229,96 230,96 231,96 232,96 233,96 234,96 235,96 236,96 237,96 238,96 239,96 240,96 241,96 242,96 243,96 244,96 245,96 246,96 247,96 248,96 249,96 250,96 251,64 252,59 253,59 254,57 255,54 256,54 257,55 258,57 259,58 260,60 261,62 262,63 263,66 264,65 265,67 266,69 267,71 268,72 269,75 270,77 271,78 272,81 273,85 274,87 275,93 276,94 277,100 278,104 279,105 280,105 281,104 282,103 283,102 284,101 285,102 286,103 287,103 288,105 289,103 290,103 291,101 292,97 293,93 294,90 295,88 296,85 297,82 298,80 299,78 300,75 301,73 302,73 303,72 304,70 305,68 306,70 307,69 308,70 309,69 310,69 311,71 312,69 313,66 314,66 315,64 316,62 317,60 318,61 319,58 320,56 321,55 322,54 323,54 324,54 325,53 326,53 327,52 328,48 329,46 330,45 331,41 332,38 333,35 334,33 335,29 336,27 337,26 338,25 339,22 340,21 341,19 342,18 343,16 344,15 345,15 346,14 347,14 348,15 349,15 350,17 351,18 352,19 353,22 354,24 355,28 356,32 357,34 358,37 359,39 360,40 361,40 362,41 363,40 364,39 365,38 366,39 367,39 368,41 369,41 370,41 371,41 372,43 373,45 374,49 375,53 376,55 377,56 378,58 379,61 380,65 381,68 382,70 383,69 384,71 385,80 386,84 387,85 388,88 389,90 390,95 391,101 392,105 393,110 394,111 395,113 396,117 397,117 398,117 399,121 400,120 " />
	<!-- ApparentWindSpeed -->
	<polyline style="fill:none;stroke:blue;clip-path:url(#GraphRegion)" points="67,101 68,102 69,99 70,101 71,97 72,93 73,91 74,84 75,94 76,92 77,94 78,98 79,94 80,102 81,100 82,104 83,104 84,110 85,108 86,107 87,109 88,111 89,113 90,114 91,107 92,113 93,103 94,94 95,92 96,89 97,82 98,78 99,90 100,96 101,102 102,105 103,105 104,105 105,105 106,105 107,105 108,105 109,105 110,105 111,105 112,105 113,105 114,105 115,105 116,105 117,105 118,105 119,105 120,105 121,105 122,105 123,105 124,105 125,105 126,105 127,105 128,105 129,105 130,105 131,105 132,105 133,105 134,105 135,105 136,105 137,105 138,105 139,105 140,105 141,105 142,105 143,105 144,105 145,105 146,105 147,105 148,105 149,105 150,105 151,105 152,105 153,105 154,105 155,105 156,105 157,105 158,105 159,105 160,105 161,105 162,105 163,105 164,105 165,105 166,105 167,105 168,105 169,105 170,105 171,105 172,105 173,105 174,105 175,105 176,105 177,105 178,105 179,105 180,105 181,105 182,105 183,105 184,105 185,105 186,105 187,105 188,105 189,105 190,105 191,105 192,105 193,105 194,105 195,105 196,105 197,105 198,105 199,105 200,105 201,105 202,105 203,105 204,105 205,105 206,105 207,105 208,105 209,105 210,105 211,105 212,105 213,105 214,105 215,105 216,105 217,105 218,105 219,105 220,105 221,105 222,105 223,105 224,105 225,105 226,105 227,105 228,105 229,105 230,105 231,105 232,105 233,105 234,105 235,105 236,105 237,105 238,105 239,105 240,105 241,105 242,105 243,105 244,105 245,105 246,105 247,105 248,105 249,105 250,105 251,63 252,70 253,73 254,76 255,79 256,83 257,87 258,84 259,83 260,93 261,92 262,98 263,103 264,105 265,113 266,114 267,119 268,119 269,118 270,111 271,113 272,107 273,115 274,116 275,107 276,112 277,100 278,78 279,98 280,84 281,73 282,63 283,61 284,67 285,64 286,59 287,63 288,66 289,83 290,95 291,94 292,79 293,75 294,80 295,82 296,76 297,82 298,87 299,84 300,83 301,86 302,87 303,85 304,89 305,103 306,115 307,119 308,121 309,120 310,120 311,118 312,119 313,115 314,111 315,114 316,114 317,118 318,116 319,119 320,117 321,92 322,75 323,68 324,63 325,67 326,70 327,60 328,52 329,46 330,48 331,61 332,60 333,64 334,58 335,64 336,61 337,63 338,61 339,68 340,73 341,77 342,77 343,76 344,78 345,82 346,79 347,85 348,101 349,101 350,95 351,93 352,88 353,91 354,99 355,109 356,96 357,99 358,96 359,100 360,99 361,94 362,109 363,109 364,120 365,119 366,118 367,115 368,115 369,115 370,116 371,112 372,106 373,86 374,77 375,68 376,56 377,52 378,48 379,45 380,46 381,55 382,53 383,59 384,53 385,62 386,53 387,58 388,45 389,34 390,47 391,40 392,41 393,34 394,14 395,20 396,19 397,26 398,26 399,35 400,53 " />
	<text class="barometer-label" x="50%" y="614">Rain</text>
	<text class="barometer-label" x="50%" y="322">Change</text>
	<text class="barometer-label" x="50%" y="30">Fair</text>
</svg>
