<?xml version="1.0" encoding="utf-8" standalone="no"?>
<svg xmlns="http://www.w3.org/2000/svg" xmlns:xlink="http://www.w3.org/1999/xlink" width="500" height="135">
	<!-- Created by: WeatherFlowTempestLogger Version 1.20240618.1 Built on: Jun 18 2024 at 07:05:16 -->
	<clipPath id="GraphRegion"><polygon points="54,14 470,14 470,121 54,121" /></clipPath>
	<style>
		text { font-family: sans-serif; font-size: 12px; fill: black; }
		line { stroke: black; }
		polygon { fill-opacity: 0.5; }
	</style>
	<rect style="fill-opacity:0;stroke:grey;stroke-width:2" width="500" height="135" />
	<text x="54" y="12">Tempest</text>
	<text style="text-anchor:end" x="470" y="12">2024-06-18 07:00:00</text>
	<text style="fill:blue;text-anchor:middle" x="12" y="50%" transform="rotate(270 12,67)">Temperature (53.0°F)</text>
	<text style="fill:green;text-anchor:middle" x="24" y="50%" transform="rotate(270 24,67)">Humidity (79.0%)</text>
	<!-- Humidity -->
	<polygon style="fill:lime;stroke:green;clip-path:url(#GraphRegion)" points="55,120 54,31 55,28 56,26 57,25 58,24 59,23 60,21 61,23 62,29 63,32 64,33 65,33 66,34 67,35 68,38 69,31 70,23 71,23 72,23 73,27 74,24 75,20 76,24 77,26 78,32 79,44 80,56 81,62 82,65 83,59 84,60 85,58 86,54 87,54 88,73 89,75 90,75 91,75 92,75 93,75 94,75 95,75 96,75 97,75 98,75 99,75 100,75 101,75 102,75 103,75 104,75 105,75 106,75 107,75 108,75 109,75 110,75 111,75 112,75 113,75 114,75 115,75 116,75 117,75 118,75 119,75 120,75 121,75 122,75 123,75 124,75 125,75 126,75 127,75 128,75 129,75 130,75 131,75 132,75 133,75 134,75 135,75 136,75 137,75 138,75 139,75 140,75 141,75 142,75 143,75 144,75 145,75 146,75 147,75 148,75 149,75 150,75 151,75 152,75 153,75 154,75 155,75 156,75 157,75 158,75 159,75 160,75 161,75 162,75 163,75 164,75 165,75 166,75 167,75 168,75 169,75 170,75 171,75 172,75 173,75 174,75 175,75 176,75 177,75 178,75 179,75 180,75 181,75 182,75 183,75 184,75 185,75 186,75 187,75 188,75 189,75 190,75 191,75 192,75 193,75 194,75 195,75 196,75 197,75 198,75 199,75 200,75 201,75 202,75 203,75 204,75 205,75 206,75 207,75 208,75 209,75 210,75 211,75 212,75 213,75 214,75 215,75 216,75 217,75 218,75 219,75 220,75 221,75 222,75 223,75 224,75 225,75 226,75 227,75 228,75 229,75 230,75 231,75 232,75 233,75 234,75 235,75 236,75 237,75 238,67 239,62 240,54 241,49 242,39 243,36 244,34 245,34 246,37 247,40 248,41 249,42 250,42 251,42 252,38 253,37 254,41 255,41 256,45 257,50 258,53 259,56 260,61 261,69 262,72 263,67 264,78 265,77 266,84 267,89 268,97 269,98 270,85 271,76 272,79 273,86 274,101 275,116 276,120 277,111 278,118 279,121 280,119 281,105 282,95 283,93 284,77 285,55 286,51 287,49 288,40 289,37 290,38 291,35 292,32 293,25 294,15 295,14 296,14 297,17 298,22 299,23 300,29 301,29 302,30 303,35 304,40 305,48 306,53 307,55 308,57 309,52 310,52 311,55 312,58 313,60 314,58 315,61 316,70 317,79 318,81 319,84 320,88 321,86 322,77 323,81 324,78 325,85 326,76 327,85 328,90 329,78 330,69 331,68 332,73 333,71 334,68 335,60 336,60 337,59 338,59 339,55 340,59 341,58 342,57 343,55 344,54 345,54 346,50 347,48 348,45 349,41 350,38 351,36 352,34 353,39 354,48 355,52 356,53 357,53 358,55 359,55 360,53 361,53 362,51 363,48 364,46 365,52 366,51 367,51 368,47 369,50 370,48 371,43 372,87 373,99 374,96 375,91 376,87 377,89 378,80 379,66 380,62 381,58 382,57 383,52 384,35 385,35 386,30 387,31 388,120" />
	<line x1="52" y1="14" x2="472" y2="14"/>
	<text style="fill:blue;text-anchor:end;dominant-baseline:middle" x="52" y="14">66.5</text>
	<text style="fill:green;dominant-baseline:middle" x="472" y="14">86.3</text>
	<line x1="52" y1="121" x2="472" y2="121"/>
	<text style="fill:blue;text-anchor:end;dominant-baseline:middle" x="52" y="121">47.8</text>
	<text style="fill:green;dominant-baseline:middle" x="472" y="121">40.8</text>
	<line x1="54" y1="14" x2="54" y2="121"/>
	<line x1="470" y1="14" x2="470" y2="121"/>
	<line style="stroke-dasharray:1" x1="52" y1="40" x2="472" y2="40" />
	<text style="fill:blue;text-anchor:end;dominant-baseline:middle" x="52" y="40">61.9</text>
	<text style="fill:green;dominant-baseline:middle" x="472" y="40">74.9</text>
	<line style="stroke-dasharray:1" x1="52" y1="66" x2="472" y2="66" />
	<text style="fill:blue;text-anchor:end;dominant-baseline:middle" x="52" y="66">57.2</text>
	<text style="fill:green;dominant-baseline:middle" x="472" y="66">63.6</text>
	<line style="stroke-dasharray:1" x1="52" y1="92" x2="472" y2="92" />
	<text style="fill:blue;text-anchor:end;dominant-baseline:middle" x="52" y="92">52.5</text>
	<text style="fill:green;dominant-baseline:middle" x="472" y="92">52.2</text>
	<line style="stroke-dasharray:1" x1="68" y1="14" x2="68" y2="123" />
	<text style="text-anchor:middle" x="92" y="133">Mon</text>
	<line style="stroke-dasharray:1" x1="116" y1="14" x2="116" y2="123" />
	<text style="text-anchor:middle" x="140" y="133">Sun</text>
	<line style="stroke:red" x1="164" y1="14" x2="164" y2="123" />
	<text style="text-anchor:middle" x="188" y="133">Sat</text>
	<line style="stroke-dasharray:1" x1="212" y1="14" x2="212" y2="123" />
	<text style="text-anchor:middle" x="236" y="133">Fri</text>
	<line style="stroke-dasharray:1" x1="260" y1="14" x2="260" y2="123" />
	<text style="text-anchor:middle" x="284" y="133">Thu</text>
	<line style="stroke-dasharray:1" x1="308" y1="14" x2="308" y2="123" />
	<text style="text-anchor:middle" x="332" y="133">Wed</text>
	<line style="stroke-dasharray:1" x1="356" y1="14" x2="356" y2="123" />
	<text style="text-anchor:middle" x="380" y="133">Tue</text>
	<polygon style="fill:red;stroke:red;fill-opacity:1;" points="51,121 57,118 57,124" />
	<!-- Temperature -->
	<polyline style="fill:none;stroke:blue;clip-path:url(#GraphRegion)" points="55,93 56,94 57,94 58,95 59,95 60,96 61,93 62,89 63,87 64,86 65,84 66,82 67,80 68,78 69,77 70,78 71,79 72,79 73,76 74,74 75,73 76,69 77,64 78,62 79,59 80,58 81,57 82,57 83,60 84,60 85,61 86,63 87,63 88,39 89,38 90,38 91,38 92,38 93,38 94,38 95,38 96,38 97,38 98,38 99,38 100,38 101,38 102,38 103,38 104,38 105,38 106,38 107,38 108,38 109,38 110,38 111,38 112,38 113,38 114,38 115,38 116,38 117,38 118,38 119,38 120,38 121,38 122,38 123,38 124,38 125,38 126,38 127,38 128,38 129,38 130,38 131,38 132,38 133,38 134,38 135,38 136,38 137,38 138,38 139,38 140,38 141,38 142,38 143,38 144,38 145,38 146,38 147,38 148,38 149,38 150,38 151,38 152,38 153,38 154,38 155,38 156,38 157,38 158,38 159,38 160,38 161,38 162,38 163,38 164,38 165,38 166,38 167,38 168,38 169,38 170,38 171,38 172,38 173,38 174,38 175,38 176,38 177,38 178,38 179,38 180,38 181,38 182,38 183,38 184,38 185,38 186,38 187,38 188,38 189,38 190,38 191,38 192,38 193,38 194,38 195,38 196,38 197,38 198,38 199,38 200,38 201,38 202,38 203,38 204,38 205,38 206,38 207,38 208,38 209,38 210,38 211,38 212,38 213,38 214,38 215,38 216,38 217,38 218,38 219,38 220,38 221,38 222,38 223,38 224,38 225,38 226,38 227,38 228,38 229,38 230,38 231,38 232,38 233,38 234,38 235,38 236,38 237,38 238,53 239,61 240,70 241,77 242,86 243,91 244,96 245,100 246,100 247,100 248,100 249,103 250,102 251,100 252,100 253,100 254,102 255,102 256,97 257,91 258,88 259,86 260,82 261,77 262,72 263,66 264,57 265,52 266,43 267,39 268,36 269,39 270,36 271,39 272,35 273,32 274,26 275,16 276,20 277,14 278,15 279,21 280,25 281,30 282,33 283,37 284,50 285,61 286,66 287,69 288,77 289,81 290,84 291,88 292,92 293,105 294,116 295,119 296,121 297,119 298,117 299,115 300,108 301,108 302,106 303,104 304,100 305,96 306,95 307,90 308,86 309,84 310,82 311,79 312,75 313,71 314,67 315,64 316,58 317,51 318,49 319,45 320,43 321,39 322,39 323,40 324,41 325,42 326,44 327,43 328,43 329,50 330,55 331,59 332,59 333,62 334,63 335,64 336,67 337,74 338,77 339,84 340,83 341,86 342,89 343,91 344,92 345,92 346,92 347,92 348,93 349,98 350,98 351,97 352,99 353,95 354,87 355,83 356,81 357,78 358,78 359,79 360,79 361,79 362,80 363,80 364,79 365,74 366,72 367,69 368,66 369,63 370,64 371,65 372,22 373,17 374,19 375,22 376,24 377,21 378,21 379,24 380,31 381,40 382,46 383,56 384,67 385,67 386,72 387,72 " />
</svg>
