<?xml version="1.0" encoding="utf-8" standalone="no"?>
<svg xmlns="http://www.w3.org/2000/svg" xmlns:xlink="http://www.w3.org/1999/xlink" width="500" height="135">
	<!-- Created by: WeatherFlowTempestLogger Version 1.20240618.1 Built on: Jun 18 2024 at 07:05:16 -->
	<clipPath id="GraphRegion"><polygon points="66,14 470,14 470,121 66,121" /></clipPath>
	<style>
		text { font-family: sans-serif; font-size: 12px; fill: black; }
		line { stroke: black; }
		polygon { fill-opacity: 0.5; }
		.barometer-label { font-family: Georgia, serif; font-style: italic; font-size: 1px; opacity: 0.5; clip-path: url(#GraphRegion); text-anchor: middle; dominant-baseline: middle; }
	</style>
	<rect style="fill-opacity:0;stroke:grey;stroke-width:2" width="500" height="135" />
	<text x="66" y="12">Tempest</text>
	<text style="text-anchor:end" x="470" y="12">2024-06-18 00:00:00</text>
	<text style="fill:blue;text-anchor:middle" x="12" y="50%" transform="rotate(270 12,67)">Wind Speed (1.0 kn)</text>
	<text style="fill:blue;text-anchor:middle" x="24" y="50%" transform="rotate(270 24,67)">Wind Gust (4.2 kn)</text>
	<text style="fill:green;text-anchor:middle" x="36" y="50%" transform="rotate(270 36,67)">Pressure (1018.6 hPa)</text>
	<line x1="64" y1="14" x2="472" y2="14"/>
	<text style="fill:blue;text-anchor:end;dominant-baseline:middle" x="64" y="14">10.1</text>
	<text style="fill:green;dominant-baseline:middle" x="472" y="14">1025.4</text>
	<line style="stroke-dasharray:1" x1="64" y1="40" x2="472" y2="40" />
	<text style="fill:blue;text-anchor:end;dominant-baseline:middle" x="64" y="40">7.6</text>
	<text style="fill:green;dominant-baseline:middle" x="472" y="40">769.1</text>
	<line style="stroke-dasharray:1" x1="64" y1="66" x2="472" y2="66" />
	<text style="fill:blue;text-anchor:end;dominant-baseline:middle" x="64" y="66">5.1</text>
	<text style="fill:green;dominant-baseline:middle" x="472" y="66">512.7</text>
	<line style="stroke-dasharray:1" x1="64" y1="92" x2="472" y2="92" />
	<text style="fill:blue;text-anchor:end;dominant-baseline:middle" x="64" y="92">2.5</text>
	<text style="fill:green;dominant-baseline:middle" x="472" y="92">256.4</text>
	<line x1="64" y1="121" x2="472" y2="121"/>
	<text style="fill:blue;text-anchor:end;dominant-baseline:middle" x="64" y="121">0.0</text>
	<text style="fill:green;dominant-baseline:middle" x="472" y="121">0.0</text>
	<line x1="66" y1="14" x2="66" y2="121"/>
	<text style="text-anchor:middle" x="69" y="133">Jun</text>
	<line x1="470" y1="14" x2="470" y2="121"/>
	<polygon style="fill:red;stroke:red;fill-opacity:1;" points="63,121 69,118 69,124" />
	<!-- OutsidePressure MinMax -->
	<polygon style="fill:green;stroke:green;clip-path:url(#GraphRegion)" points="67,14 68,14 69,14 70,14 71,14 72,14 72,121 71,121 70,121 69,121 68,121 67,121 " />
	<!-- ApparentWindSpeed MinMax -->
	<polygon style="fill:blue;stroke:blue;clip-path:url(#GraphRegion)" points="67,107 68,107 69,34 70,60 71,48 72,14 72,84 71,100 70,106 69,108 68,112 67,112 " />
	<!-- OutsidePressure -->
	<polyline style="fill:none;stroke:green;clip-path:url(#GraphRegion)" points="67,14 68,14 69,14 70,14 71,14 72,14 " />
	<!-- ApparentWindSpeed -->
	<polyline style="fill:none;stroke:blue;clip-path:url(#GraphRegion)" points="67,112 68,112 69,108 70,106 71,100 72,84 " />
	<text class="barometer-label" x="50%" y="19">Rain</text>
	<text class="barometer-label" x="50%" y="16">Change</text>
	<text class="barometer-label" x="50%" y="14">Fair</text>
</svg>
