<?xml version="1.0" encoding="utf-8" standalone="no"?>
<svg xmlns="http://www.w3.org/2000/svg" xmlns:xlink="http://www.w3.org/1999/xlink" width="500" height="135">
	<!-- Created by: WeatherFlowTempestLogger Version 1.20240618.1 Built on: Jun 18 2024 at 07:05:16 -->
	<clipPath id="GraphRegion"><polygon points="70,14 486,14 486,121 70,121" /></clipPath>
	<style>
		text { font-family: sans-serif; font-size: 12px; fill: black; }
		line { stroke: black; }
		polygon { fill-opacity: 0.5; }
		.barometer-label { font-family: Georgia, serif; font-style: italic; font-size: 633px; opacity: 0.5; clip-path: url(#GraphRegion); text-anchor: middle; dominant-baseline: middle; }
	</style>
	<rect style="fill-opacity:0;stroke:grey;stroke-width:2" width="500" height="135" />
	<text x="70" y="12">Tempest</text>
	<text style="text-anchor:end" x="486" y="12">2024-06-18 07:09:48</text>
	<text style="fill:blue;text-anchor:middle" x="12" y="50%" transform="rotate(270 12,67)">Wind Speed (0.7 kn)</text>
	<text style="fill:blue;text-anchor:middle" x="24" y="50%" transform="rotate(270 24,67)">Wind Gust (1.4 kn)</text>
	<text style="fill:green;text-anchor:middle" x="36" y="50%" transform="rotate(270 36,67)">Pressure (1019.7 hPa)</text>
	<line x1="68" y1="14" x2="488" y2="14"/>
	<text style="fill:blue;text-anchor:end;dominant-baseline:middle" x="68" y="14">2.4</text>
	<line style="stroke-dasharray:1" x1="68" y1="40" x2="488" y2="40" />
	<text style="fill:blue;text-anchor:end;dominant-baseline:middle" x="68" y="40">1.8</text>
	<line style="stroke-dasharray:1" x1="68" y1="66" x2="488" y2="66" />
	<text style="fill:blue;text-anchor:end;dominant-baseline:middle" x="68" y="66">1.3</text>
	<line style="stroke-dasharray:1" x1="68" y1="92" x2="488" y2="92" />
	<text style="fill:blue;text-anchor:end;dominant-baseline:middle" x="68" y="92">0.7</text>
	<line x1="68" y1="121" x2="488" y2="121"/>
	<text style="fill:blue;text-anchor:end;dominant-baseline:middle" x="68" y="121">0.2</text>
	<line x1="70" y1="14" x2="70" y2="121"/>
	<line style="stroke-dasharray:1" x1="71" y1="14" x2="71" y2="123" />
	<line style="stroke-dasharray:1" x1="83" y1="14" x2="83" y2="123" />
	<text style="text-anchor:middle" x="83" y="133">6</text>
	<line style="stroke-dasharray:1" x1="95" y1="14" x2="95" y2="123" />
	<line style="stroke-dasharray:1" x1="107" y1="14" x2="107" y2="123" />
	<text style="text-anchor:middle" x="107" y="133">4</text>
	<line style="stroke-dasharray:1" x1="119" y1="14" x2="119" y2="123" />
	<line style="stroke-dasharray:1" x1="131" y1="14" x2="131" y2="123" />
	<text style="text-anchor:middle" x="131" y="133">2</text>
	<line style="stroke-dasharray:1" x1="143" y1="14" x2="143" y2="123" />
	<line style="stroke:red" x1="155" y1="14" x2="155" y2="123" />
	<text style="text-anchor:middle" x="155" y="133">0</text>
	<line style="stroke-dasharray:1" x1="167" y1="14" x2="167" y2="123" />
	<line style="stroke-dasharray:1" x1="179" y1="14" x2="179" y2="123" />
	<text style="text-anchor:middle" x="179" y="133">22</text>
	<line style="stroke-dasharray:1" x1="191" y1="14" x2="191" y2="123" />
	<line style="stroke-dasharray:1" x1="203" y1="14" x2="203" y2="123" />
	<text style="text-anchor:middle" x="203" y="133">20</text>
	<line style="stroke-dasharray:1" x1="215" y1="14" x2="215" y2="123" />
	<line style="stroke-dasharray:1" x1="227" y1="14" x2="227" y2="123" />
	<text style="text-anchor:middle" x="227" y="133">18</text>
	<line style="stroke-dasharray:1" x1="239" y1="14" x2="239" y2="123" />
	<line style="stroke-dasharray:1" x1="251" y1="14" x2="251" y2="123" />
	<text style="text-anchor:middle" x="251" y="133">16</text>
	<line style="stroke-dasharray:1" x1="263" y1="14" x2="263" y2="123" />
	<line style="stroke-dasharray:1" x1="275" y1="14" x2="275" y2="123" />
	<text style="text-anchor:middle" x="275" y="133">14</text>
	<line style="stroke-dasharray:1" x1="287" y1="14" x2="287" y2="123" />
	<line style="stroke-dasharray:1" x1="299" y1="14" x2="299" y2="123" />
	<text style="text-anchor:middle" x="299" y="133">12</text>
	<line style="stroke-dasharray:1" x1="311" y1="14" x2="311" y2="123" />
	<line style="stroke-dasharray:1" x1="323" y1="14" x2="323" y2="123" />
	<text style="text-anchor:middle" x="323" y="133">10</text>
	<line style="stroke-dasharray:1" x1="335" y1="14" x2="335" y2="123" />
	<line style="stroke-dasharray:1" x1="347" y1="14" x2="347" y2="123" />
	<text style="text-anchor:middle" x="347" y="133">8</text>
	<line style="stroke-dasharray:1" x1="359" y1="14" x2="359" y2="123" />
	<line style="stroke-dasharray:1" x1="371" y1="14" x2="371" y2="123" />
	<text style="text-anchor:middle" x="371" y="133">6</text>
	<line style="stroke-dasharray:1" x1="383" y1="14" x2="383" y2="123" />
	<line style="stroke-dasharray:1" x1="395" y1="14" x2="395" y2="123" />
	<text style="text-anchor:middle" x="395" y="133">4</text>
	<line style="stroke-dasharray:1" x1="407" y1="14" x2="407" y2="123" />
	<line style="stroke-dasharray:1" x1="419" y1="14" x2="419" y2="123" />
	<text style="text-anchor:middle" x="419" y="133">2</text>
	<line style="stroke-dasharray:1" x1="431" y1="14" x2="431" y2="123" />
	<line style="stroke:red" x1="443" y1="14" x2="443" y2="123" />
	<text style="text-anchor:middle" x="443" y="133">0</text>
	<line style="stroke-dasharray:1" x1="455" y1="14" x2="455" y2="123" />
	<line style="stroke-dasharray:1" x1="467" y1="14" x2="467" y2="123" />
	<text style="text-anchor:middle" x="467" y="133">22</text>
	<line style="stroke-dasharray:1" x1="479" y1="14" x2="479" y2="123" />
	<line x1="486" y1="14" x2="486" y2="121"/>
	<polygon style="fill:red;stroke:red;fill-opacity:1;" points="67,121 73,118 73,124" />
	<!-- ApparentWindSpeed -->
	<polyline style="fill:none;stroke:blue;clip-path:url(#GraphRegion)" points="71,96 72,71 73,71 74,82 75,77 76,78 77,85 78,93 79,74 80,94 81,79 82,67 83,74 84,70 85,81 86,76 87,73 88,69 89,76 90,80 91,89 92,79 93,83 94,63 95,67 96,71 97,84 98,64 99,54 100,74 101,71 102,54 103,52 104,65 105,52 106,56 107,55 108,57 109,59 110,62 111,54 112,38 113,34 114,45 115,51 116,41 117,29 118,23 119,39 120,65 121,72 122,68 123,61 124,61 125,47 126,50 127,61 128,63 129,57 130,53 131,77 132,56 133,62 134,59 135,60 136,62 137,64 138,64 139,74 140,70 141,69 142,84 143,43 144,56 145,62 146,60 147,66 148,75 149,65 150,67 151,96 152,80 153,92 154,91 155,97 156,83 157,82 158,46 159,67 160,86 161,75 162,78 163,76 164,100 165,95 166,86 167,80 168,95 169,80 170,74 171,82 172,106 173,98 174,92 175,110 176,108 177,97 178,100 179,98 180,103 181,86 182,84 183,100 184,101 185,94 186,99 187,105 188,83 189,92 190,90 191,102 192,94 193,85 194,107 195,89 196,111 197,94 198,109 199,89 200,110 201,115 202,107 203,116 204,107 205,102 206,113 207,105 208,102 209,116 210,113 211,109 212,119 213,100 214,104 215,98 216,90 217,85 218,72 219,110 220,106 221,103 222,107 223,96 224,121 225,114 226,108 227,93 228,89 229,90 230,81 231,87 232,65 233,59 234,65 235,60 236,67 237,64 238,50 239,60 240,43 241,53 242,59 243,64 244,63 245,53 246,51 247,66 248,42 249,42 250,34 251,33 252,23 253,36 254,25 255,36 256,44 257,22 258,26 259,14 260,22 261,25 262,26 263,50 264,49 265,43 266,49 267,57 268,56 269,77 270,76 271,63 272,51 273,59 274,67 275,62 276,89 277,89 278,89 279,89 280,89 281,89 282,89 283,89 284,89 285,89 286,89 287,89 288,89 289,89 290,89 291,89 292,89 293,89 294,89 295,89 296,89 297,89 298,89 299,89 300,89 301,89 302,89 303,89 304,89 305,89 306,89 307,89 308,89 309,89 310,89 311,89 312,89 313,89 314,89 315,89 316,89 317,89 318,89 319,89 320,89 321,89 322,89 323,89 324,89 325,89 326,89 327,89 328,89 329,89 330,89 331,89 332,89 333,89 334,89 335,89 336,89 337,89 338,89 339,89 340,89 341,89 342,89 343,89 344,89 345,89 346,89 347,89 348,89 349,89 350,89 351,89 352,89 353,89 354,89 355,89 356,89 357,89 358,89 359,89 360,89 361,89 362,89 363,89 364,89 365,89 366,89 367,89 368,89 369,89 370,89 371,89 372,89 373,89 374,89 375,89 376,89 377,89 378,89 379,89 380,89 381,89 382,89 383,89 384,89 385,89 386,89 387,89 388,89 389,89 390,89 391,89 392,89 393,89 394,89 395,89 396,89 397,89 398,89 399,89 400,89 401,89 402,89 403,89 404,89 405,89 406,89 407,89 408,89 409,89 410,89 411,89 412,89 413,89 414,89 415,89 416,89 417,89 418,89 419,89 420,89 421,89 422,89 423,89 424,89 425,89 426,89 427,89 428,89 429,89 430,89 431,89 432,89 433,89 434,89 435,89 436,89 437,89 438,89 439,89 440,89 441,89 442,89 443,89 444,89 445,89 446,89 447,89 448,89 449,89 450,89 451,89 452,89 453,89 454,89 455,89 456,89 457,89 458,89 459,89 460,89 461,89 462,89 463,89 464,89 465,89 466,89 467,89 468,89 469,89 470,89 471,89 472,89 473,89 474,89 475,89 476,89 477,89 478,89 479,89 480,89 481,89 482,89 483,89 484,89 485,89 " />
</svg>
