<?xml version="1.0" encoding="utf-8" standalone="no"?>
<svg xmlns="http://www.w3.org/2000/svg" xmlns:xlink="http://www.w3.org/1999/xlink" width="500" height="135">
	<!-- Created by: WeatherFlowTempestLogger Version 1.20240617.1 Built on: Jun 17 2024 at 16:19:39 -->
	<clipPath id="GraphRegion"><polygon points="54,14 470,14 470,121 54,121" /></clipPath>
	<style>
		text { font-family: sans-serif; font-size: 12px; fill: black; }
		line { stroke: black; }
		polygon { fill-opacity: 0.5; }
	</style>
	<rect style="fill-opacity:0;stroke:grey;stroke-width:2" width="500" height="135" />
	<text x="54" y="12">Tempest</text>
	<text style="text-anchor:end" x="470" y="12">2024-06-17 16:00:00</text>
	<text style="fill:blue;text-anchor:middle" x="12" y="50%" transform="rotate(270 12,67)">Temperature (58.3°F)</text>
	<text style="fill:green;text-anchor:middle" x="24" y="50%" transform="rotate(270 24,67)">Humidity (66.6%)</text>
	<!-- Humidity -->
	<polygon style="fill:lime;stroke:green;clip-path:url(#GraphRegion)" points="55,120 54,60 55,58 56,54 57,54 58,73 59,75 60,75 61,75 62,75 63,75 64,75 65,75 66,75 67,75 68,75 69,75 70,75 71,75 72,75 73,75 74,75 75,75 76,75 77,75 78,75 79,75 80,75 81,75 82,75 83,75 84,75 85,75 86,75 87,75 88,75 89,75 90,75 91,75 92,75 93,75 94,75 95,75 96,75 97,75 98,75 99,75 100,75 101,75 102,75 103,75 104,75 105,75 106,75 107,75 108,75 109,75 110,75 111,75 112,75 113,75 114,75 115,75 116,75 117,75 118,75 119,75 120,75 121,75 122,75 123,75 124,75 125,75 126,75 127,75 128,75 129,75 130,75 131,75 132,75 133,75 134,75 135,75 136,75 137,75 138,75 139,75 140,75 141,75 142,75 143,75 144,75 145,75 146,75 147,75 148,75 149,75 150,75 151,75 152,75 153,75 154,75 155,75 156,75 157,75 158,75 159,75 160,75 161,75 162,75 163,75 164,75 165,75 166,75 167,75 168,75 169,75 170,75 171,75 172,75 173,75 174,75 175,75 176,75 177,75 178,75 179,75 180,75 181,75 182,75 183,75 184,75 185,75 186,75 187,75 188,75 189,75 190,75 191,75 192,75 193,75 194,75 195,75 196,75 197,75 198,75 199,75 200,75 201,75 202,75 203,75 204,75 205,75 206,75 207,75 208,67 209,62 210,54 211,49 212,39 213,36 214,34 215,34 216,37 217,40 218,41 219,42 220,42 221,42 222,38 223,37 224,41 225,41 226,45 227,50 228,53 229,56 230,61 231,69 232,72 233,67 234,78 235,77 236,84 237,89 238,97 239,98 240,85 241,76 242,79 243,86 244,101 245,116 246,120 247,111 248,118 249,121 250,119 251,105 252,95 253,93 254,77 255,55 256,51 257,49 258,40 259,37 260,38 261,35 262,32 263,25 264,15 265,14 266,14 267,17 268,22 269,23 270,29 271,29 272,30 273,35 274,40 275,48 276,53 277,55 278,57 279,52 280,52 281,55 282,58 283,60 284,58 285,61 286,70 287,79 288,81 289,84 290,88 291,86 292,77 293,81 294,78 295,85 296,76 297,85 298,90 299,78 300,69 301,68 302,73 303,71 304,68 305,60 306,60 307,59 308,59 309,55 310,59 311,58 312,57 313,55 314,54 315,54 316,50 317,48 318,45 319,41 320,38 321,36 322,34 323,39 324,48 325,52 326,53 327,53 328,55 329,55 330,53 331,53 332,51 333,48 334,46 335,52 336,51 337,51 338,47 339,50 340,48 341,43 342,87 343,99 344,96 345,91 346,87 347,89 348,80 349,66 350,62 351,58 352,57 353,52 354,35 355,35 356,30 357,31 358,120" />
	<line x1="52" y1="14" x2="472" y2="14"/>
	<text style="fill:blue;text-anchor:end;dominant-baseline:middle" x="52" y="14">66.5</text>
	<text style="fill:green;dominant-baseline:middle" x="472" y="14">86.3</text>
	<line x1="52" y1="121" x2="472" y2="121"/>
	<text style="fill:blue;text-anchor:end;dominant-baseline:middle" x="52" y="121">47.8</text>
	<text style="fill:green;dominant-baseline:middle" x="472" y="121">40.8</text>
	<line x1="54" y1="14" x2="54" y2="121"/>
	<line x1="470" y1="14" x2="470" y2="121"/>
	<line style="stroke-dasharray:1" x1="52" y1="40" x2="472" y2="40" />
	<text style="fill:blue;text-anchor:end;dominant-baseline:middle" x="52" y="40">61.9</text>
	<text style="fill:green;dominant-baseline:middle" x="472" y="40">74.9</text>
	<line style="stroke-dasharray:1" x1="52" y1="66" x2="472" y2="66" />
	<text style="fill:blue;text-anchor:end;dominant-baseline:middle" x="52" y="66">57.2</text>
	<text style="fill:green;dominant-baseline:middle" x="472" y="66">63.6</text>
	<line style="stroke-dasharray:1" x1="52" y1="92" x2="472" y2="92" />
	<text style="fill:blue;text-anchor:end;dominant-baseline:middle" x="52" y="92">52.5</text>
	<text style="fill:green;dominant-baseline:middle" x="472" y="92">52.2</text>
	<text style="text-anchor:middle" x="62" y="133">Mon</text>
	<line style="stroke-dasharray:1" x1="86" y1="14" x2="86" y2="123" />
	<text style="text-anchor:middle" x="110" y="133">Sun</text>
	<line style="stroke:red" x1="134" y1="14" x2="134" y2="123" />
	<text style="text-anchor:middle" x="158" y="133">Sat</text>
	<line style="stroke-dasharray:1" x1="182" y1="14" x2="182" y2="123" />
	<text style="text-anchor:middle" x="206" y="133">Fri</text>
	<line style="stroke-dasharray:1" x1="230" y1="14" x2="230" y2="123" />
	<text style="text-anchor:middle" x="254" y="133">Thu</text>
	<line style="stroke-dasharray:1" x1="278" y1="14" x2="278" y2="123" />
	<text style="text-anchor:middle" x="302" y="133">Wed</text>
	<line style="stroke-dasharray:1" x1="326" y1="14" x2="326" y2="123" />
	<text style="text-anchor:middle" x="350" y="133">Tue</text>
	<polygon style="fill:red;stroke:red;fill-opacity:1;" points="51,121 57,118 57,124" />
	<!-- Temperature -->
	<polyline style="fill:none;stroke:blue;clip-path:url(#GraphRegion)" points="55,61 56,63 57,63 58,39 59,38 60,38 61,38 62,38 63,38 64,38 65,38 66,38 67,38 68,38 69,38 70,38 71,38 72,38 73,38 74,38 75,38 76,38 77,38 78,38 79,38 80,38 81,38 82,38 83,38 84,38 85,38 86,38 87,38 88,38 89,38 90,38 91,38 92,38 93,38 94,38 95,38 96,38 97,38 98,38 99,38 100,38 101,38 102,38 103,38 104,38 105,38 106,38 107,38 108,38 109,38 110,38 111,38 112,38 113,38 114,38 115,38 116,38 117,38 118,38 119,38 120,38 121,38 122,38 123,38 124,38 125,38 126,38 127,38 128,38 129,38 130,38 131,38 132,38 133,38 134,38 135,38 136,38 137,38 138,38 139,38 140,38 141,38 142,38 143,38 144,38 145,38 146,38 147,38 148,38 149,38 150,38 151,38 152,38 153,38 154,38 155,38 156,38 157,38 158,38 159,38 160,38 161,38 162,38 163,38 164,38 165,38 166,38 167,38 168,38 169,38 170,38 171,38 172,38 173,38 174,38 175,38 176,38 177,38 178,38 179,38 180,38 181,38 182,38 183,38 184,38 185,38 186,38 187,38 188,38 189,38 190,38 191,38 192,38 193,38 194,38 195,38 196,38 197,38 198,38 199,38 200,38 201,38 202,38 203,38 204,38 205,38 206,38 207,38 208,53 209,61 210,70 211,77 212,86 213,91 214,96 215,100 216,100 217,100 218,100 219,103 220,102 221,100 222,100 223,100 224,102 225,102 226,97 227,91 228,88 229,86 230,82 231,77 232,72 233,66 234,57 235,52 236,43 237,39 238,36 239,39 240,36 241,39 242,35 243,32 244,26 245,16 246,20 247,14 248,15 249,21 250,25 251,30 252,33 253,37 254,50 255,61 256,66 257,69 258,77 259,81 260,84 261,88 262,92 263,105 264,116 265,119 266,121 267,119 268,117 269,115 270,108 271,108 272,106 273,104 274,100 275,96 276,95 277,90 278,86 279,84 280,82 281,79 282,75 283,71 284,67 285,64 286,58 287,51 288,49 289,45 290,43 291,39 292,39 293,40 294,41 295,42 296,44 297,43 298,43 299,50 300,55 301,59 302,59 303,62 304,63 305,64 306,67 307,74 308,77 309,84 310,83 311,86 312,89 313,91 314,92 315,92 316,92 317,92 318,93 319,98 320,98 321,97 322,99 323,95 324,87 325,83 326,81 327,78 328,78 329,79 330,79 331,79 332,80 333,80 334,79 335,74 336,72 337,69 338,66 339,63 340,64 341,65 342,22 343,17 344,19 345,22 346,24 347,21 348,21 349,24 350,31 351,40 352,46 353,56 354,67 355,67 356,72 357,72 " />
</svg>
