<?xml version="1.0" encoding="utf-8" standalone="no"?>
<svg xmlns="http://www.w3.org/2000/svg" xmlns:xlink="http://www.w3.org/1999/xlink" width="500" height="135">
	<!-- Created by: WeatherFlowTempestLogger Version 1.20240618.1 Built on: Jun 18 2024 at 07:05:16 -->
	<clipPath id="GraphRegion"><polygon points="66,14 470,14 470,121 66,121" /></clipPath>
	<style>
		text { font-family: sans-serif; font-size: 12px; fill: black; }
		line { stroke: black; }
		polygon { fill-opacity: 0.5; }
		.barometer-label { font-family: Georgia, serif; font-style: italic; font-size: 119px; opacity: 0.5; clip-path: url(#GraphRegion); text-anchor: middle; dominant-baseline: middle; }
	</style>
	<rect style="fill-opacity:0;stroke:grey;stroke-width:2" width="500" height="135" />
	<text x="66" y="12">Tempest</text>
	<text style="text-anchor:end" x="470" y="12">2024-06-18 06:00:00</text>
	<text style="fill:blue;text-anchor:middle" x="12" y="50%" transform="rotate(270 12,67)">Wind Speed (1.2 kn)</text>
	<text style="fill:blue;text-anchor:middle" x="24" y="50%" transform="rotate(270 24,67)">Wind Gust (3.1 kn)</text>
	<text style="fill:green;text-anchor:middle" x="36" y="50%" transform="rotate(270 36,67)">Pressure (1019.4 hPa)</text>
	<line x1="64" y1="14" x2="472" y2="14"/>
	<text style="fill:blue;text-anchor:end;dominant-baseline:middle" x="64" y="14">5.2</text>
	<text style="fill:green;dominant-baseline:middle" x="472" y="14">1025.3</text>
	<line style="stroke-dasharray:1" x1="64" y1="40" x2="472" y2="40" />
	<text style="fill:blue;text-anchor:end;dominant-baseline:middle" x="64" y="40">3.9</text>
	<text style="fill:green;dominant-baseline:middle" x="472" y="40">1023.1</text>
	<line style="stroke-dasharray:1" x1="64" y1="66" x2="472" y2="66" />
	<text style="fill:blue;text-anchor:end;dominant-baseline:middle" x="64" y="66">2.6</text>
	<text style="fill:green;dominant-baseline:middle" x="472" y="66">1020.9</text>
	<line style="stroke-dasharray:1" x1="64" y1="92" x2="472" y2="92" />
	<text style="fill:blue;text-anchor:end;dominant-baseline:middle" x="64" y="92">1.4</text>
	<text style="fill:green;dominant-baseline:middle" x="472" y="92">1018.6</text>
	<line x1="64" y1="121" x2="472" y2="121"/>
	<text style="fill:blue;text-anchor:end;dominant-baseline:middle" x="64" y="121">0.1</text>
	<text style="fill:green;dominant-baseline:middle" x="472" y="121">1016.4</text>
	<line x1="66" y1="14" x2="66" y2="121"/>
	<line style="stroke-dasharray:1" x1="93" y1="14" x2="93" y2="123" />
	<text style="text-anchor:middle" x="135" y="133">Week 24</text>
	<line x1="470" y1="14" x2="470" y2="121"/>
	<polygon style="fill:red;stroke:red;fill-opacity:1;" points="63,121 69,118 69,124" />
	<!-- OutsidePressure -->
	<polyline style="fill:none;stroke:green;clip-path:url(#GraphRegion)" points="67,87 68,87 69,86 70,90 71,96 72,99 73,98 74,97 75,97 76,97 77,97 78,97 79,97 80,97 81,97 82,97 83,97 84,97 85,97 86,97 87,97 88,97 89,97 90,97 91,97 92,97 93,97 94,97 95,97 96,97 97,97 98,97 99,97 100,97 101,97 102,97 103,97 104,97 105,97 106,97 107,97 108,97 109,97 110,97 111,68 112,56 113,57 114,65 115,70 116,78 117,91 118,105 119,104 120,105 121,102 122,90 123,80 124,73 125,70 126,70 127,65 128,59 129,54 130,51 131,42 132,31 133,23 134,17 135,14 136,17 137,26 138,37 139,40 140,39 141,41 142,50 143,60 144,70 145,85 146,99 147,114 148,121 " />
	<!-- ApparentWindSpeed -->
	<polyline style="fill:none;stroke:blue;clip-path:url(#GraphRegion)" points="67,89 68,96 69,104 70,109 71,112 72,93 73,85 74,104 75,105 76,105 77,105 78,105 79,105 80,105 81,105 82,105 83,105 84,105 85,105 86,105 87,105 88,105 89,105 90,105 91,105 92,105 93,105 94,105 95,105 96,105 97,105 98,105 99,105 100,105 101,105 102,105 103,105 104,105 105,105 106,105 107,105 108,105 109,105 110,105 111,71 112,75 113,85 114,99 115,117 116,113 117,113 118,88 119,62 120,59 121,86 122,75 123,82 124,85 125,115 126,121 127,114 128,118 129,71 130,58 131,49 132,57 133,62 134,74 135,85 136,93 137,98 138,97 139,108 140,118 141,113 142,68 143,42 144,50 145,50 146,34 147,14 148,27 " />
	<text class="barometer-label" x="50%" y="627">Rain</text>
	<text class="barometer-label" x="50%" y="328">Change</text>
	<text class="barometer-label" x="50%" y="29">Fair</text>
</svg>
