<?xml version="1.0" encoding="utf-8" standalone="no"?>
<svg xmlns="http://www.w3.org/2000/svg" xmlns:xlink="http://www.w3.org/1999/xlink" width="500" height="135">
	<!-- Created by: WeatherFlowTempestLogger Version 1.20240618.1 Built on: Jun 18 2024 at 07:05:16 -->
	<clipPath id="GraphRegion"><polygon points="54,14 470,14 470,121 54,121" /></clipPath>
	<style>
		text { font-family: sans-serif; font-size: 12px; fill: black; }
		line { stroke: black; }
		polygon { fill-opacity: 0.5; }
	</style>
	<rect style="fill-opacity:0;stroke:grey;stroke-width:2" width="500" height="135" />
	<text x="54" y="12">Tempest</text>
	<text style="text-anchor:end" x="470" y="12">2024-06-18 07:34:47</text>
	<text style="fill:blue;text-anchor:middle" x="12" y="50%" transform="rotate(270 12,67)">Temperature (53.0°F)</text>
	<text style="fill:green;text-anchor:middle" x="24" y="50%" transform="rotate(270 24,67)">Humidity (78.9%)</text>
	<!-- Humidity -->
	<polygon style="fill:lime;stroke:green;clip-path:url(#GraphRegion)" points="55,120 54,37 55,34 56,33 57,35 58,38 59,38 60,38 61,38 62,37 63,37 64,36 65,34 66,34 67,33 68,32 69,32 70,33 71,30 72,28 73,28 74,28 75,29 76,29 77,28 78,28 79,27 80,26 81,25 82,25 83,26 84,26 85,24 86,23 87,25 88,25 89,23 90,23 91,23 92,22 93,21 94,23 95,23 96,21 97,20 98,19 99,18 100,15 101,15 102,17 103,21 104,23 105,25 106,24 107,27 108,31 109,33 110,33 111,35 112,36 113,38 114,39 115,39 116,40 117,40 118,40 119,40 120,39 121,41 122,40 123,41 124,41 125,41 126,41 127,41 128,40 129,41 130,42 131,41 132,43 133,43 134,43 135,44 136,43 137,43 138,45 139,45 140,44 141,45 142,44 143,45 144,46 145,50 146,50 147,53 148,52 149,51 150,51 151,45 152,41 153,31 154,28 155,26 156,26 157,25 158,18 159,20 160,20 161,21 162,22 163,23 164,23 165,23 166,24 167,23 168,22 169,22 170,20 171,21 172,22 173,24 174,26 175,29 176,30 177,32 178,32 179,33 180,33 181,30 182,25 183,22 184,18 185,14 186,14 187,15 188,17 189,18 190,19 191,21 192,22 193,26 194,25 195,27 196,25 197,25 198,21 199,22 200,24 201,28 202,32 203,35 204,36 205,36 206,37 207,38 208,41 209,50 210,60 211,59 212,61 213,56 214,64 215,68 216,81 217,81 218,84 219,89 220,85 221,88 222,89 223,89 224,96 225,97 226,98 227,99 228,101 229,102 230,103 231,105 232,101 233,99 234,97 235,89 236,89 237,88 238,88 239,86 240,89 241,94 242,93 243,93 244,91 245,88 246,85 247,85 248,86 249,89 250,89 251,89 252,84 253,77 254,77 255,80 256,77 257,88 258,85 259,80 260,78 261,80 262,78 263,80 264,108 265,121 266,121 267,121 268,121 269,121 270,121 271,121 272,121 273,121 274,121 275,121 276,121 277,121 278,121 279,121 280,121 281,121 282,121 283,121 284,121 285,121 286,121 287,121 288,121 289,121 290,121 291,121 292,121 293,121 294,121 295,121 296,121 297,121 298,121 299,121 300,121 301,121 302,121 303,121 304,121 305,121 306,121 307,121 308,121 309,121 310,121 311,121 312,121 313,121 314,121 315,121 316,121 317,121 318,121 319,121 320,121 321,121 322,121 323,121 324,121 325,121 326,121 327,121 328,121 329,121 330,121 331,121 332,121 333,121 334,121 335,121 336,121 337,121 338,121 339,121 340,121 341,121 342,121 343,121 344,121 345,121 346,121 347,121 348,121 349,121 350,121 351,121 352,121 353,121 354,121 355,121 356,121 357,121 358,121 359,121 360,121 361,121 362,121 363,121 364,121 365,121 366,121 367,121 368,121 369,121 370,121 371,121 372,121 373,121 374,121 375,121 376,121 377,121 378,121 379,121 380,121 381,121 382,121 383,121 384,121 385,121 386,121 387,121 388,121 389,121 390,121 391,121 392,121 393,121 394,121 395,121 396,121 397,121 398,121 399,121 400,121 401,121 402,121 403,121 404,121 405,121 406,121 407,121 408,121 409,121 410,121 411,121 412,121 413,121 414,121 415,121 416,121 417,121 418,121 419,121 420,121 421,121 422,121 423,121 424,121 425,121 426,121 427,121 428,121 429,121 430,121 431,121 432,121 433,121 434,121 435,121 436,121 437,121 438,121 439,121 440,121 441,121 442,121 443,121 444,121 445,121 446,121 447,121 448,121 449,121 450,121 451,121 452,121 453,121 454,121 455,121 456,121 457,121 458,121 459,121 460,121 461,121 462,121 463,121 464,121 465,121 466,121 467,121 468,121 469,121 469,120" />
	<line x1="52" y1="14" x2="472" y2="14"/>
	<text style="fill:blue;text-anchor:end;dominant-baseline:middle" x="52" y="14">62.3</text>
	<text style="fill:green;dominant-baseline:middle" x="472" y="14">84.2</text>
	<line x1="52" y1="121" x2="472" y2="121"/>
	<text style="fill:blue;text-anchor:end;dominant-baseline:middle" x="52" y="121">52.1</text>
	<text style="fill:green;dominant-baseline:middle" x="472" y="121">60.1</text>
	<line x1="54" y1="14" x2="54" y2="121"/>
	<line x1="470" y1="14" x2="470" y2="121"/>
	<line style="stroke-dasharray:1" x1="52" y1="40" x2="472" y2="40" />
	<text style="fill:blue;text-anchor:end;dominant-baseline:middle" x="52" y="40">59.7</text>
	<text style="fill:green;dominant-baseline:middle" x="472" y="40">78.2</text>
	<line style="stroke-dasharray:1" x1="52" y1="66" x2="472" y2="66" />
	<text style="fill:blue;text-anchor:end;dominant-baseline:middle" x="52" y="66">57.2</text>
	<text style="fill:green;dominant-baseline:middle" x="472" y="66">72.2</text>
	<line style="stroke-dasharray:1" x1="52" y1="92" x2="472" y2="92" />
	<text style="fill:blue;text-anchor:end;dominant-baseline:middle" x="52" y="92">54.6</text>
	<text style="fill:green;dominant-baseline:middle" x="472" y="92">66.1</text>
	<line style="stroke-dasharray:1" x1="60" y1="14" x2="60" y2="123" />
	<line style="stroke-dasharray:1" x1="72" y1="14" x2="72" y2="123" />
	<text style="text-anchor:middle" x="72" y="133">6</text>
	<line style="stroke-dasharray:1" x1="84" y1="14" x2="84" y2="123" />
	<line style="stroke-dasharray:1" x1="96" y1="14" x2="96" y2="123" />
	<text style="text-anchor:middle" x="96" y="133">4</text>
	<line style="stroke-dasharray:1" x1="108" y1="14" x2="108" y2="123" />
	<line style="stroke-dasharray:1" x1="120" y1="14" x2="120" y2="123" />
	<text style="text-anchor:middle" x="120" y="133">2</text>
	<line style="stroke-dasharray:1" x1="132" y1="14" x2="132" y2="123" />
	<line style="stroke:red" x1="144" y1="14" x2="144" y2="123" />
	<text style="text-anchor:middle" x="144" y="133">0</text>
	<line style="stroke-dasharray:1" x1="156" y1="14" x2="156" y2="123" />
	<line style="stroke-dasharray:1" x1="168" y1="14" x2="168" y2="123" />
	<text style="text-anchor:middle" x="168" y="133">22</text>
	<line style="stroke-dasharray:1" x1="180" y1="14" x2="180" y2="123" />
	<line style="stroke-dasharray:1" x1="192" y1="14" x2="192" y2="123" />
	<text style="text-anchor:middle" x="192" y="133">20</text>
	<line style="stroke-dasharray:1" x1="204" y1="14" x2="204" y2="123" />
	<line style="stroke-dasharray:1" x1="216" y1="14" x2="216" y2="123" />
	<text style="text-anchor:middle" x="216" y="133">18</text>
	<line style="stroke-dasharray:1" x1="228" y1="14" x2="228" y2="123" />
	<line style="stroke-dasharray:1" x1="240" y1="14" x2="240" y2="123" />
	<text style="text-anchor:middle" x="240" y="133">16</text>
	<line style="stroke-dasharray:1" x1="252" y1="14" x2="252" y2="123" />
	<line style="stroke-dasharray:1" x1="264" y1="14" x2="264" y2="123" />
	<text style="text-anchor:middle" x="264" y="133">14</text>
	<line style="stroke-dasharray:1" x1="276" y1="14" x2="276" y2="123" />
	<line style="stroke-dasharray:1" x1="288" y1="14" x2="288" y2="123" />
	<text style="text-anchor:middle" x="288" y="133">12</text>
	<line style="stroke-dasharray:1" x1="300" y1="14" x2="300" y2="123" />
	<line style="stroke-dasharray:1" x1="312" y1="14" x2="312" y2="123" />
	<text style="text-anchor:middle" x="312" y="133">10</text>
	<line style="stroke-dasharray:1" x1="324" y1="14" x2="324" y2="123" />
	<line style="stroke-dasharray:1" x1="336" y1="14" x2="336" y2="123" />
	<text style="text-anchor:middle" x="336" y="133">8</text>
	<line style="stroke-dasharray:1" x1="348" y1="14" x2="348" y2="123" />
	<line style="stroke-dasharray:1" x1="360" y1="14" x2="360" y2="123" />
	<text style="text-anchor:middle" x="360" y="133">6</text>
	<line style="stroke-dasharray:1" x1="372" y1="14" x2="372" y2="123" />
	<line style="stroke-dasharray:1" x1="384" y1="14" x2="384" y2="123" />
	<text style="text-anchor:middle" x="384" y="133">4</text>
	<line style="stroke-dasharray:1" x1="396" y1="14" x2="396" y2="123" />
	<line style="stroke-dasharray:1" x1="408" y1="14" x2="408" y2="123" />
	<text style="text-anchor:middle" x="408" y="133">2</text>
	<line style="stroke-dasharray:1" x1="420" y1="14" x2="420" y2="123" />
	<line style="stroke:red" x1="432" y1="14" x2="432" y2="123" />
	<text style="text-anchor:middle" x="432" y="133">0</text>
	<line style="stroke-dasharray:1" x1="444" y1="14" x2="444" y2="123" />
	<line style="stroke-dasharray:1" x1="456" y1="14" x2="456" y2="123" />
	<text style="text-anchor:middle" x="456" y="133">22</text>
	<line style="stroke-dasharray:1" x1="468" y1="14" x2="468" y2="123" />
	<polygon style="fill:red;stroke:red;fill-opacity:1;" points="51,121 57,118 57,124" />
	<!-- Temperature -->
	<polyline style="fill:none;stroke:blue;clip-path:url(#GraphRegion)" points="55,111 56,111 57,110 58,109 59,109 60,110 61,110 62,110 63,111 64,112 65,113 66,113 67,114 68,114 69,114 70,115 71,115 72,115 73,116 74,116 75,116 76,116 77,116 78,116 79,116 80,116 81,117 82,117 83,117 84,117 85,117 86,117 87,117 88,117 89,118 90,118 91,118 92,118 93,118 94,118 95,118 96,119 97,120 98,120 99,120 100,120 101,119 102,117 103,115 104,114 105,114 106,112 107,110 108,108 109,107 110,106 111,105 112,105 113,105 114,105 115,104 116,104 117,103 118,103 119,103 120,103 121,102 122,102 123,101 124,101 125,101 126,100 127,99 128,99 129,98 130,98 131,97 132,96 133,95 134,95 135,94 136,93 137,92 138,92 139,91 140,90 141,90 142,90 143,89 144,88 145,87 146,86 147,86 148,85 149,85 150,84 151,84 152,84 153,84 154,85 155,85 156,86 157,87 158,88 159,88 160,88 161,88 162,88 163,88 164,88 165,88 166,88 167,88 168,88 169,88 170,88 171,88 172,88 173,87 174,86 175,84 176,83 177,82 178,81 179,80 180,80 181,79 182,79 183,79 184,79 185,79 186,79 187,78 188,78 189,77 190,76 191,74 192,73 193,72 194,70 195,69 196,67 197,66 198,65 199,64 200,62 201,61 202,60 203,60 204,59 205,59 206,59 207,57 208,55 209,54 210,55 211,57 212,55 213,52 214,49 215,47 216,46 217,47 218,49 219,51 220,51 221,52 222,51 223,50 224,49 225,48 226,48 227,47 228,48 229,48 230,47 231,47 232,49 233,52 234,55 235,55 236,54 237,53 238,53 239,55 240,55 241,54 242,55 243,54 244,54 245,55 246,57 247,56 248,55 249,54 250,54 251,55 252,58 253,60 254,60 255,59 256,59 257,60 258,62 259,66 260,68 261,64 262,55 263,36 264,17 265,14 266,14 267,14 268,14 269,14 270,14 271,14 272,14 273,14 274,14 275,14 276,14 277,14 278,14 279,14 280,14 281,14 282,14 283,14 284,14 285,14 286,14 287,14 288,14 289,14 290,14 291,14 292,14 293,14 294,14 295,14 296,14 297,14 298,14 299,14 300,14 301,14 302,14 303,14 304,14 305,14 306,14 307,14 308,14 309,14 310,14 311,14 312,14 313,14 314,14 315,14 316,14 317,14 318,14 319,14 320,14 321,14 322,14 323,14 324,14 325,14 326,14 327,14 328,14 329,14 330,14 331,14 332,14 333,14 334,14 335,14 336,14 337,14 338,14 339,14 340,14 341,14 342,14 343,14 344,14 345,14 346,14 347,14 348,14 349,14 350,14 351,14 352,14 353,14 354,14 355,14 356,14 357,14 358,14 359,14 360,14 361,14 362,14 363,14 364,14 365,14 366,14 367,14 368,14 369,14 370,14 371,14 372,14 373,14 374,14 375,14 376,14 377,14 378,14 379,14 380,14 381,14 382,14 383,14 384,14 385,14 386,14 387,14 388,14 389,14 390,14 391,14 392,14 393,14 394,14 395,14 396,14 397,14 398,14 399,14 400,14 401,14 402,14 403,14 404,14 405,14 406,14 407,14 408,14 409,14 410,14 411,14 412,14 413,14 414,14 415,14 416,14 417,14 418,14 419,14 420,14 421,14 422,14 423,14 424,14 425,14 426,14 427,14 428,14 429,14 430,14 431,14 432,14 433,14 434,14 435,14 436,14 437,14 438,14 439,14 440,14 441,14 442,14 443,14 444,14 445,14 446,14 447,14 448,14 449,14 450,14 451,14 452,14 453,14 454,14 455,14 456,14 457,14 458,14 459,14 460,14 461,14 462,14 463,14 464,14 465,14 466,14 467,14 468,14 469,14 " />
</svg>
