<?xml version="1.0" encoding="utf-8" standalone="no"?>
<svg xmlns="http://www.w3.org/2000/svg" xmlns:xlink="http://www.w3.org/1999/xlink" width="500" height="135">
	<!-- Created by: WeatherFlowTempestLogger Version 1.20240617.1 Built on: Jun 17 2024 at 16:19:39 -->
	<clipPath id="GraphRegion"><polygon points="54,14 470,14 470,121 54,121" /></clipPath>
	<style>
		text { font-family: sans-serif; font-size: 12px; fill: black; }
		line { stroke: black; }
		polygon { fill-opacity: 0.5; }
	</style>
	<rect style="fill-opacity:0;stroke:grey;stroke-width:2" width="500" height="135" />
	<text x="54" y="12">Tempest</text>
	<text style="text-anchor:end" x="470" y="12">2024-06-17 16:19:59</text>
	<text style="fill:blue;text-anchor:middle" x="12" y="50%" transform="rotate(270 12,67)">Temperature (58.5°F)</text>
	<text style="fill:green;text-anchor:middle" x="24" y="50%" transform="rotate(270 24,67)">Humidity (67.4%)</text>
	<!-- Humidity -->
	<polygon style="fill:lime;stroke:green;clip-path:url(#GraphRegion)" points="55,120 54,42 55,41 56,37 57,45 58,57 59,54 60,53 61,49 62,42 63,35 64,33 65,37 66,43 67,45 68,44 69,32 70,14 71,16 72,22 73,14 74,42 75,33 76,21 77,17 78,21 79,18 80,23 81,90 82,121 83,121 84,121 85,121 86,121 87,121 88,121 89,121 90,121 91,121 92,121 93,121 94,121 95,121 96,121 97,121 98,121 99,121 100,121 101,121 102,121 103,121 104,121 105,121 106,121 107,121 108,121 109,121 110,121 111,121 112,121 113,121 114,121 115,121 116,121 117,121 118,121 119,121 120,121 121,121 122,121 123,121 124,121 125,121 126,121 127,121 128,121 129,121 130,121 131,121 132,121 133,121 134,121 135,121 136,121 137,121 138,121 139,121 140,121 141,121 142,121 143,121 144,121 145,121 146,121 147,121 148,121 149,121 150,121 151,121 152,121 153,121 154,121 155,121 156,121 157,121 158,121 159,121 160,121 161,121 162,121 163,121 164,121 165,121 166,121 167,121 168,121 169,121 170,121 171,121 172,121 173,121 174,121 175,121 176,121 177,121 178,121 179,121 180,121 181,121 182,121 183,121 184,121 185,121 186,121 187,121 188,121 189,121 190,121 191,121 192,121 193,121 194,121 195,121 196,121 197,121 198,121 199,121 200,121 201,121 202,121 203,121 204,121 205,121 206,121 207,121 208,121 209,121 210,121 211,121 212,121 213,121 214,121 215,121 216,121 217,121 218,121 219,121 220,121 221,121 222,121 223,121 224,121 225,121 226,121 227,121 228,121 229,121 230,121 231,121 232,121 233,121 234,121 235,121 236,121 237,121 238,121 239,121 240,121 241,121 242,121 243,121 244,121 245,121 246,121 247,121 248,121 249,121 250,121 251,121 252,121 253,121 254,121 255,121 256,121 257,121 258,121 259,121 260,121 261,121 262,121 263,121 264,121 265,121 266,121 267,121 268,121 269,121 270,121 271,121 272,121 273,121 274,121 275,121 276,121 277,121 278,121 279,121 280,121 281,121 282,121 283,121 284,121 285,121 286,121 287,121 288,121 289,121 290,121 291,121 292,121 293,121 294,121 295,121 296,121 297,121 298,121 299,121 300,121 301,121 302,121 303,121 304,121 305,121 306,121 307,121 308,121 309,121 310,121 311,121 312,121 313,121 314,121 315,121 316,121 317,121 318,121 319,121 320,121 321,121 322,121 323,121 324,121 325,121 326,121 327,121 328,121 329,121 330,121 331,121 332,121 333,121 334,121 335,121 336,121 337,121 338,121 339,121 340,121 341,121 342,121 343,121 344,121 345,121 346,121 347,121 348,121 349,121 350,121 351,121 352,121 353,121 354,121 355,121 356,121 357,121 358,121 359,121 360,121 361,121 362,121 363,121 364,121 365,121 366,121 367,121 368,121 369,121 370,121 371,121 372,121 373,121 374,121 375,121 376,121 377,121 378,121 379,121 380,121 381,121 382,121 383,121 384,121 385,121 386,121 387,121 388,121 389,121 390,121 391,121 392,121 393,121 394,121 395,121 396,121 397,121 398,121 399,121 400,121 401,121 402,121 403,121 404,121 405,121 406,121 407,121 408,121 409,121 410,121 411,121 412,121 413,121 414,121 415,121 416,121 417,121 418,121 419,121 420,121 421,121 422,121 423,121 424,121 425,121 426,121 427,121 428,121 429,121 430,121 431,121 432,121 433,121 434,121 435,121 436,121 437,121 438,121 439,121 440,121 441,121 442,121 443,121 444,121 445,121 446,121 447,121 448,121 449,121 450,121 451,121 452,121 453,121 454,121 455,121 456,121 457,121 458,121 459,121 460,121 461,121 462,121 463,121 464,121 465,121 466,121 467,121 468,121 469,121 469,120" />
	<line x1="52" y1="14" x2="472" y2="14"/>
	<text style="fill:blue;text-anchor:end;dominant-baseline:middle" x="52" y="14">62.3</text>
	<text style="fill:green;dominant-baseline:middle" x="472" y="14">70.0</text>
	<line x1="52" y1="121" x2="472" y2="121"/>
	<text style="fill:blue;text-anchor:end;dominant-baseline:middle" x="52" y="121">57.1</text>
	<text style="fill:green;dominant-baseline:middle" x="472" y="121">60.1</text>
	<line x1="54" y1="14" x2="54" y2="121"/>
	<line x1="470" y1="14" x2="470" y2="121"/>
	<line style="stroke-dasharray:1" x1="52" y1="40" x2="472" y2="40" />
	<text style="fill:blue;text-anchor:end;dominant-baseline:middle" x="52" y="40">61.0</text>
	<text style="fill:green;dominant-baseline:middle" x="472" y="40">67.5</text>
	<line style="stroke-dasharray:1" x1="52" y1="66" x2="472" y2="66" />
	<text style="fill:blue;text-anchor:end;dominant-baseline:middle" x="52" y="66">59.7</text>
	<text style="fill:green;dominant-baseline:middle" x="472" y="66">65.0</text>
	<line style="stroke-dasharray:1" x1="52" y1="92" x2="472" y2="92" />
	<text style="fill:blue;text-anchor:end;dominant-baseline:middle" x="52" y="92">58.4</text>
	<text style="fill:green;dominant-baseline:middle" x="472" y="92">62.6</text>
	<line style="stroke-dasharray:1" x1="57" y1="14" x2="57" y2="123" />
	<text style="text-anchor:middle" x="57" y="133">16</text>
	<line style="stroke-dasharray:1" x1="69" y1="14" x2="69" y2="123" />
	<line style="stroke-dasharray:1" x1="81" y1="14" x2="81" y2="123" />
	<text style="text-anchor:middle" x="81" y="133">14</text>
	<line style="stroke-dasharray:1" x1="93" y1="14" x2="93" y2="123" />
	<line style="stroke-dasharray:1" x1="105" y1="14" x2="105" y2="123" />
	<text style="text-anchor:middle" x="105" y="133">12</text>
	<line style="stroke-dasharray:1" x1="117" y1="14" x2="117" y2="123" />
	<line style="stroke-dasharray:1" x1="129" y1="14" x2="129" y2="123" />
	<text style="text-anchor:middle" x="129" y="133">10</text>
	<line style="stroke-dasharray:1" x1="141" y1="14" x2="141" y2="123" />
	<line style="stroke-dasharray:1" x1="153" y1="14" x2="153" y2="123" />
	<text style="text-anchor:middle" x="153" y="133">8</text>
	<line style="stroke-dasharray:1" x1="165" y1="14" x2="165" y2="123" />
	<line style="stroke-dasharray:1" x1="177" y1="14" x2="177" y2="123" />
	<text style="text-anchor:middle" x="177" y="133">6</text>
	<line style="stroke-dasharray:1" x1="189" y1="14" x2="189" y2="123" />
	<line style="stroke-dasharray:1" x1="201" y1="14" x2="201" y2="123" />
	<text style="text-anchor:middle" x="201" y="133">4</text>
	<line style="stroke-dasharray:1" x1="213" y1="14" x2="213" y2="123" />
	<line style="stroke-dasharray:1" x1="225" y1="14" x2="225" y2="123" />
	<text style="text-anchor:middle" x="225" y="133">2</text>
	<line style="stroke-dasharray:1" x1="237" y1="14" x2="237" y2="123" />
	<line style="stroke:red" x1="249" y1="14" x2="249" y2="123" />
	<text style="text-anchor:middle" x="249" y="133">0</text>
	<line style="stroke-dasharray:1" x1="261" y1="14" x2="261" y2="123" />
	<line style="stroke-dasharray:1" x1="273" y1="14" x2="273" y2="123" />
	<text style="text-anchor:middle" x="273" y="133">22</text>
	<line style="stroke-dasharray:1" x1="285" y1="14" x2="285" y2="123" />
	<line style="stroke-dasharray:1" x1="297" y1="14" x2="297" y2="123" />
	<text style="text-anchor:middle" x="297" y="133">20</text>
	<line style="stroke-dasharray:1" x1="309" y1="14" x2="309" y2="123" />
	<line style="stroke-dasharray:1" x1="321" y1="14" x2="321" y2="123" />
	<text style="text-anchor:middle" x="321" y="133">18</text>
	<line style="stroke-dasharray:1" x1="333" y1="14" x2="333" y2="123" />
	<line style="stroke-dasharray:1" x1="345" y1="14" x2="345" y2="123" />
	<text style="text-anchor:middle" x="345" y="133">16</text>
	<line style="stroke-dasharray:1" x1="357" y1="14" x2="357" y2="123" />
	<line style="stroke-dasharray:1" x1="369" y1="14" x2="369" y2="123" />
	<text style="text-anchor:middle" x="369" y="133">14</text>
	<line style="stroke-dasharray:1" x1="381" y1="14" x2="381" y2="123" />
	<line style="stroke-dasharray:1" x1="393" y1="14" x2="393" y2="123" />
	<text style="text-anchor:middle" x="393" y="133">12</text>
	<line style="stroke-dasharray:1" x1="405" y1="14" x2="405" y2="123" />
	<line style="stroke-dasharray:1" x1="417" y1="14" x2="417" y2="123" />
	<text style="text-anchor:middle" x="417" y="133">10</text>
	<line style="stroke-dasharray:1" x1="429" y1="14" x2="429" y2="123" />
	<line style="stroke-dasharray:1" x1="441" y1="14" x2="441" y2="123" />
	<text style="text-anchor:middle" x="441" y="133">8</text>
	<line style="stroke-dasharray:1" x1="453" y1="14" x2="453" y2="123" />
	<line style="stroke-dasharray:1" x1="465" y1="14" x2="465" y2="123" />
	<text style="text-anchor:middle" x="465" y="133">6</text>
	<polygon style="fill:red;stroke:red;fill-opacity:1;" points="51,121 57,118 57,124" />
	<!-- Temperature -->
	<polyline style="fill:none;stroke:blue;clip-path:url(#GraphRegion)" points="55,92 56,96 57,96 58,94 59,95 60,94 61,94 62,96 63,99 64,98 65,95 66,94 67,94 68,96 69,101 70,105 71,105 72,103 73,103 74,106 75,110 76,117 77,121 78,114 79,97 80,57 81,21 82,14 83,14 84,14 85,14 86,14 87,14 88,14 89,14 90,14 91,14 92,14 93,14 94,14 95,14 96,14 97,14 98,14 99,14 100,14 101,14 102,14 103,14 104,14 105,14 106,14 107,14 108,14 109,14 110,14 111,14 112,14 113,14 114,14 115,14 116,14 117,14 118,14 119,14 120,14 121,14 122,14 123,14 124,14 125,14 126,14 127,14 128,14 129,14 130,14 131,14 132,14 133,14 134,14 135,14 136,14 137,14 138,14 139,14 140,14 141,14 142,14 143,14 144,14 145,14 146,14 147,14 148,14 149,14 150,14 151,14 152,14 153,14 154,14 155,14 156,14 157,14 158,14 159,14 160,14 161,14 162,14 163,14 164,14 165,14 166,14 167,14 168,14 169,14 170,14 171,14 172,14 173,14 174,14 175,14 176,14 177,14 178,14 179,14 180,14 181,14 182,14 183,14 184,14 185,14 186,14 187,14 188,14 189,14 190,14 191,14 192,14 193,14 194,14 195,14 196,14 197,14 198,14 199,14 200,14 201,14 202,14 203,14 204,14 205,14 206,14 207,14 208,14 209,14 210,14 211,14 212,14 213,14 214,14 215,14 216,14 217,14 218,14 219,14 220,14 221,14 222,14 223,14 224,14 225,14 226,14 227,14 228,14 229,14 230,14 231,14 232,14 233,14 234,14 235,14 236,14 237,14 238,14 239,14 240,14 241,14 242,14 243,14 244,14 245,14 246,14 247,14 248,14 249,14 250,14 251,14 252,14 253,14 254,14 255,14 256,14 257,14 258,14 259,14 260,14 261,14 262,14 263,14 264,14 265,14 266,14 267,14 268,14 269,14 270,14 271,14 272,14 273,14 274,14 275,14 276,14 277,14 278,14 279,14 280,14 281,14 282,14 283,14 284,14 285,14 286,14 287,14 288,14 289,14 290,14 291,14 292,14 293,14 294,14 295,14 296,14 297,14 298,14 299,14 300,14 301,14 302,14 303,14 304,14 305,14 306,14 307,14 308,14 309,14 310,14 311,14 312,14 313,14 314,14 315,14 316,14 317,14 318,14 319,14 320,14 321,14 322,14 323,14 324,14 325,14 326,14 327,14 328,14 329,14 330,14 331,14 332,14 333,14 334,14 335,14 336,14 337,14 338,14 339,14 340,14 341,14 342,14 343,14 344,14 345,14 346,14 347,14 348,14 349,14 350,14 351,14 352,14 353,14 354,14 355,14 356,14 357,14 358,14 359,14 360,14 361,14 362,14 363,14 364,14 365,14 366,14 367,14 368,14 369,14 370,14 371,14 372,14 373,14 374,14 375,14 376,14 377,14 378,14 379,14 380,14 381,14 382,14 383,14 384,14 385,14 386,14 387,14 388,14 389,14 390,14 391,14 392,14 393,14 394,14 395,14 396,14 397,14 398,14 399,14 400,14 401,14 402,14 403,14 404,14 405,14 406,14 407,14 408,14 409,14 410,14 411,14 412,14 413,14 414,14 415,14 416,14 417,14 418,14 419,14 420,14 421,14 422,14 423,14 424,14 425,14 426,14 427,14 428,14 429,14 430,14 431,14 432,14 433,14 434,14 435,14 436,14 437,14 438,14 439,14 440,14 441,14 442,14 443,14 444,14 445,14 446,14 447,14 448,14 449,14 450,14 451,14 452,14 453,14 454,14 455,14 456,14 457,14 458,14 459,14 460,14 461,14 462,14 463,14 464,14 465,14 466,14 467,14 468,14 469,14 " />
</svg>
