<?xml version="1.0" encoding="utf-8" standalone="no"?>
<svg xmlns="http://www.w3.org/2000/svg" xmlns:xlink="http://www.w3.org/1999/xlink" width="500" height="135">
	<!-- Created by: WeatherFlowTempestLogger Version 1.20240618.2 Built on: Jun 18 2024 at 07:41:14 -->
	<clipPath id="GraphRegion"><polygon points="70,14 486,14 486,121 70,121" /></clipPath>
	<style>
		text { font-family: sans-serif; font-size: 12px; fill: black; }
		line { stroke: black; }
		polygon { fill-opacity: 0.5; }
		.barometer-label { font-family: Georgia, serif; font-style: italic; font-size: 287px; opacity: 0.5; clip-path: url(#GraphRegion); text-anchor: middle; dominant-baseline: middle; }
	</style>
	<rect style="fill-opacity:0;stroke:grey;stroke-width:2" width="500" height="135" />
	<text x="70" y="12">Tempest Wind</text>
	<text style="text-anchor:end" x="486" y="12">2024-06-18 23:04:37</text>
	<text style="fill:blue;text-anchor:middle" x="12" y="50%" transform="rotate(270 12,67)">Wind Speed (2.1 kn)</text>
	<text style="fill:blue;text-anchor:middle" x="24" y="50%" transform="rotate(270 24,67)">Wind Gust (3.4 kn)</text>
	<text style="fill:green;text-anchor:middle" x="36" y="50%" transform="rotate(270 36,67)">Pressure (1017.2 hPa)</text>
	<line x1="68" y1="14" x2="488" y2="14"/>
	<text style="fill:blue;text-anchor:end;dominant-baseline:middle" x="68" y="14">3.4</text>
	<line style="stroke-dasharray:1" x1="68" y1="40" x2="488" y2="40" />
	<text style="fill:blue;text-anchor:end;dominant-baseline:middle" x="68" y="40">2.6</text>
	<line style="stroke-dasharray:1" x1="68" y1="66" x2="488" y2="66" />
	<text style="fill:blue;text-anchor:end;dominant-baseline:middle" x="68" y="66">1.7</text>
	<line style="stroke-dasharray:1" x1="68" y1="92" x2="488" y2="92" />
	<text style="fill:blue;text-anchor:end;dominant-baseline:middle" x="68" y="92">0.9</text>
	<line x1="68" y1="121" x2="488" y2="121"/>
	<text style="fill:blue;text-anchor:end;dominant-baseline:middle" x="68" y="121">0.0</text>
	<line x1="70" y1="14" x2="70" y2="121"/>
	<line style="stroke-dasharray:1" x1="82" y1="14" x2="82" y2="123" />
	<text style="text-anchor:middle" x="82" y="133">22</text>
	<line style="stroke-dasharray:1" x1="94" y1="14" x2="94" y2="123" />
	<line style="stroke-dasharray:1" x1="106" y1="14" x2="106" y2="123" />
	<text style="text-anchor:middle" x="106" y="133">20</text>
	<line style="stroke-dasharray:1" x1="118" y1="14" x2="118" y2="123" />
	<line style="stroke-dasharray:1" x1="130" y1="14" x2="130" y2="123" />
	<text style="text-anchor:middle" x="130" y="133">18</text>
	<line style="stroke-dasharray:1" x1="142" y1="14" x2="142" y2="123" />
	<line style="stroke-dasharray:1" x1="154" y1="14" x2="154" y2="123" />
	<text style="text-anchor:middle" x="154" y="133">16</text>
	<line style="stroke-dasharray:1" x1="166" y1="14" x2="166" y2="123" />
	<line style="stroke-dasharray:1" x1="178" y1="14" x2="178" y2="123" />
	<text style="text-anchor:middle" x="178" y="133">14</text>
	<line style="stroke-dasharray:1" x1="190" y1="14" x2="190" y2="123" />
	<line style="stroke-dasharray:1" x1="202" y1="14" x2="202" y2="123" />
	<text style="text-anchor:middle" x="202" y="133">12</text>
	<line style="stroke-dasharray:1" x1="214" y1="14" x2="214" y2="123" />
	<line style="stroke-dasharray:1" x1="226" y1="14" x2="226" y2="123" />
	<text style="text-anchor:middle" x="226" y="133">10</text>
	<line style="stroke-dasharray:1" x1="238" y1="14" x2="238" y2="123" />
	<line style="stroke-dasharray:1" x1="250" y1="14" x2="250" y2="123" />
	<text style="text-anchor:middle" x="250" y="133">8</text>
	<line style="stroke-dasharray:1" x1="262" y1="14" x2="262" y2="123" />
	<line style="stroke-dasharray:1" x1="274" y1="14" x2="274" y2="123" />
	<text style="text-anchor:middle" x="274" y="133">6</text>
	<line style="stroke-dasharray:1" x1="286" y1="14" x2="286" y2="123" />
	<line style="stroke-dasharray:1" x1="298" y1="14" x2="298" y2="123" />
	<text style="text-anchor:middle" x="298" y="133">4</text>
	<line style="stroke-dasharray:1" x1="310" y1="14" x2="310" y2="123" />
	<line style="stroke-dasharray:1" x1="322" y1="14" x2="322" y2="123" />
	<text style="text-anchor:middle" x="322" y="133">2</text>
	<line style="stroke-dasharray:1" x1="334" y1="14" x2="334" y2="123" />
	<line style="stroke:red" x1="346" y1="14" x2="346" y2="123" />
	<text style="text-anchor:middle" x="346" y="133">0</text>
	<line style="stroke-dasharray:1" x1="358" y1="14" x2="358" y2="123" />
	<line style="stroke-dasharray:1" x1="370" y1="14" x2="370" y2="123" />
	<text style="text-anchor:middle" x="370" y="133">22</text>
	<line style="stroke-dasharray:1" x1="382" y1="14" x2="382" y2="123" />
	<line style="stroke-dasharray:1" x1="394" y1="14" x2="394" y2="123" />
	<text style="text-anchor:middle" x="394" y="133">20</text>
	<line style="stroke-dasharray:1" x1="406" y1="14" x2="406" y2="123" />
	<line style="stroke-dasharray:1" x1="418" y1="14" x2="418" y2="123" />
	<text style="text-anchor:middle" x="418" y="133">18</text>
	<line style="stroke-dasharray:1" x1="430" y1="14" x2="430" y2="123" />
	<line style="stroke-dasharray:1" x1="442" y1="14" x2="442" y2="123" />
	<text style="text-anchor:middle" x="442" y="133">16</text>
	<line style="stroke-dasharray:1" x1="454" y1="14" x2="454" y2="123" />
	<line style="stroke-dasharray:1" x1="466" y1="14" x2="466" y2="123" />
	<text style="text-anchor:middle" x="466" y="133">14</text>
	<line style="stroke-dasharray:1" x1="478" y1="14" x2="478" y2="123" />
	<line x1="486" y1="14" x2="486" y2="121"/>
	<polygon style="fill:red;stroke:red;fill-opacity:1;" points="67,121 73,118 73,124" />
	<!-- ApparentWindSpeed -->
	<polyline style="fill:none;stroke:blue;clip-path:url(#GraphRegion)" points="71,55 72,56 73,44 74,44 75,42 76,36 77,26 78,14 79,29 80,34 81,30 82,34 83,39 84,43 85,36 86,34 87,30 88,52 89,69 90,56 91,63 92,55 93,61 94,52 95,48 96,42 97,46 98,51 99,49 100,51 101,51 102,61 103,76 104,73 105,65 106,62 107,59 108,52 109,53 110,67 111,65 112,60 113,57 114,58 115,55 116,59 117,66 118,61 119,56 120,59 121,52 122,62 123,59 124,50 125,53 126,68 127,59 128,77 129,72 130,67 131,81 132,80 133,74 134,63 135,67 136,75 137,65 138,58 139,66 140,81 141,74 142,74 143,75 144,73 145,71 146,67 147,75 148,60 149,60 150,59 151,58 152,67 153,70 154,75 155,76 156,78 157,73 158,65 159,70 160,75 161,73 162,74 163,79 164,79 165,76 166,84 167,83 168,86 169,87 170,83 171,79 172,76 173,80 174,73 175,67 176,86 177,79 178,82 179,84 180,84 181,76 182,88 183,87 184,85 185,82 186,86 187,84 188,91 189,96 190,97 191,103 192,98 193,102 194,103 195,112 196,110 197,102 198,99 199,109 200,116 201,104 202,101 203,99 204,99 205,100 206,99 207,108 208,100 209,95 210,101 211,92 212,93 213,101 214,96 215,106 216,106 217,101 218,102 219,99 220,94 221,105 222,104 223,102 224,99 225,101 226,99 227,106 228,98 229,93 230,89 231,91 232,88 233,84 234,81 235,83 236,101 237,108 238,92 239,87 240,100 241,84 242,87 243,96 244,109 245,103 246,97 247,108 248,106 249,111 250,108 251,106 252,103 253,110 254,121 255,115 256,104 257,119 258,98 259,97 260,107 261,98 262,100 263,84 264,83 265,91 266,88 267,88 268,93 269,98 270,86 271,99 272,89 273,81 274,85 275,83 276,90 277,87 278,85 279,82 280,87 281,89 282,95 283,89 284,92 285,78 286,81 287,83 288,92 289,79 290,73 291,86 292,84 293,72 294,71 295,80 296,71 297,74 298,73 299,74 300,76 301,78 302,72 303,62 304,60 305,67 306,70 307,64 308,56 309,52 310,63 311,80 312,84 313,82 314,77 315,77 316,68 317,70 318,77 319,79 320,74 321,72 322,88 323,74 324,77 325,76 326,77 327,78 328,79 329,79 330,86 331,83 332,82 333,92 334,65 335,74 336,78 337,76 338,80 339,86 340,80 341,81 342,100 343,90 344,98 345,97 346,101 347,91 348,91 349,67 350,81 351,94 352,86 353,88 354,87 355,103 356,99 357,93 358,89 359,99 360,90 361,86 362,91 363,107 364,101 365,97 366,110 367,108 368,101 369,102 370,101 371,104 372,94 373,92 374,102 375,103 376,98 377,102 378,106 379,92 380,97 381,96 382,104 383,99 384,93 385,107 386,96 387,110 388,98 389,108 390,95 391,110 392,112 393,107 394,113 395,108 396,104 397,111 398,106 399,104 400,113 401,111 402,108 403,115 404,103 405,105 406,101 407,96 408,93 409,85 410,109 411,107 412,104 413,107 414,100 415,116 416,112 417,108 418,98 419,96 420,96 421,90 422,94 423,80 424,75 425,80 426,77 427,81 428,79 429,70 430,77 431,65 432,72 433,76 434,79 435,78 436,72 437,70 438,81 439,64 440,64 441,60 442,59 443,52 444,61 445,53 446,61 447,66 448,51 449,54 450,46 451,52 452,53 453,54 454,70 455,69 456,65 457,69 458,75 459,74 460,88 461,87 462,79 463,70 464,76 465,81 466,78 467,95 468,95 469,95 470,95 471,95 472,95 473,95 474,95 475,95 476,95 477,95 478,95 479,95 480,95 481,95 482,95 483,95 484,95 485,95 " />
</svg>
