<?xml version="1.0" encoding="utf-8" standalone="no"?>
<svg xmlns="http://www.w3.org/2000/svg" xmlns:xlink="http://www.w3.org/1999/xlink" width="500" height="135">
	<!-- Created by: WeatherFlowTempestLogger Version 1.20240618.1 Built on: Jun 18 2024 at 07:05:16 -->
	<clipPath id="GraphRegion"><polygon points="66,14 470,14 470,121 66,121" /></clipPath>
	<style>
		text { font-family: sans-serif; font-size: 12px; fill: black; }
		line { stroke: black; }
		polygon { fill-opacity: 0.5; }
		.barometer-label { font-family: Georgia, serif; font-style: italic; font-size: 116px; opacity: 0.5; clip-path: url(#GraphRegion); text-anchor: middle; dominant-baseline: middle; }
	</style>
	<rect style="fill-opacity:0;stroke:grey;stroke-width:2" width="500" height="135" />
	<text x="66" y="12">Tempest</text>
	<text style="text-anchor:end" x="470" y="12">2024-06-18 07:00:00</text>
	<text style="fill:blue;text-anchor:middle" x="12" y="50%" transform="rotate(270 12,67)">Wind Speed (1.0 kn)</text>
	<text style="fill:blue;text-anchor:middle" x="24" y="50%" transform="rotate(270 24,67)">Wind Gust (2.1 kn)</text>
	<text style="fill:green;text-anchor:middle" x="36" y="50%" transform="rotate(270 36,67)">Pressure (1019.6 hPa)</text>
	<line x1="64" y1="14" x2="472" y2="14"/>
	<text style="fill:blue;text-anchor:end;dominant-baseline:middle" x="64" y="14">5.6</text>
	<text style="fill:green;dominant-baseline:middle" x="472" y="14">1025.4</text>
	<line style="stroke-dasharray:1" x1="64" y1="40" x2="472" y2="40" />
	<text style="fill:blue;text-anchor:end;dominant-baseline:middle" x="64" y="40">4.2</text>
	<text style="fill:green;dominant-baseline:middle" x="472" y="40">1023.1</text>
	<line style="stroke-dasharray:1" x1="64" y1="66" x2="472" y2="66" />
	<text style="fill:blue;text-anchor:end;dominant-baseline:middle" x="64" y="66">2.8</text>
	<text style="fill:green;dominant-baseline:middle" x="472" y="66">1020.8</text>
	<line style="stroke-dasharray:1" x1="64" y1="92" x2="472" y2="92" />
	<text style="fill:blue;text-anchor:end;dominant-baseline:middle" x="64" y="92">1.4</text>
	<text style="fill:green;dominant-baseline:middle" x="472" y="92">1018.5</text>
	<line x1="64" y1="121" x2="472" y2="121"/>
	<text style="fill:blue;text-anchor:end;dominant-baseline:middle" x="64" y="121">0.0</text>
	<text style="fill:green;dominant-baseline:middle" x="472" y="121">1016.2</text>
	<line x1="66" y1="14" x2="66" y2="121"/>
	<line style="stroke-dasharray:1" x1="80" y1="14" x2="80" y2="123" />
	<text style="text-anchor:middle" x="104" y="133">Mon</text>
	<line style="stroke-dasharray:1" x1="128" y1="14" x2="128" y2="123" />
	<text style="text-anchor:middle" x="152" y="133">Sun</text>
	<line style="stroke:red" x1="176" y1="14" x2="176" y2="123" />
	<text style="text-anchor:middle" x="200" y="133">Sat</text>
	<line style="stroke-dasharray:1" x1="224" y1="14" x2="224" y2="123" />
	<text style="text-anchor:middle" x="248" y="133">Fri</text>
	<line style="stroke-dasharray:1" x1="272" y1="14" x2="272" y2="123" />
	<text style="text-anchor:middle" x="296" y="133">Thu</text>
	<line style="stroke-dasharray:1" x1="320" y1="14" x2="320" y2="123" />
	<text style="text-anchor:middle" x="344" y="133">Wed</text>
	<line style="stroke-dasharray:1" x1="368" y1="14" x2="368" y2="123" />
	<text style="text-anchor:middle" x="392" y="133">Tue</text>
	<line x1="470" y1="14" x2="470" y2="121"/>
	<polygon style="fill:red;stroke:red;fill-opacity:1;" points="63,121 69,118 69,124" />
	<!-- OutsidePressure -->
	<polyline style="fill:none;stroke:green;clip-path:url(#GraphRegion)" points="67,82 68,82 69,83 70,85 71,86 72,86 73,87 74,86 75,86 76,86 77,86 78,86 79,85 80,84 81,85 82,86 83,86 84,87 85,89 86,90 87,91 88,93 89,93 90,95 91,98 92,99 93,100 94,98 95,95 96,95 97,97 98,97 99,97 100,96 101,96 102,96 103,96 104,96 105,96 106,96 107,96 108,96 109,96 110,96 111,96 112,96 113,96 114,96 115,96 116,96 117,96 118,96 119,96 120,96 121,96 122,96 123,96 124,96 125,96 126,96 127,96 128,96 129,96 130,96 131,96 132,96 133,96 134,96 135,96 136,96 137,96 138,96 139,96 140,96 141,96 142,96 143,96 144,96 145,96 146,96 147,96 148,96 149,96 150,96 151,96 152,96 153,96 154,96 155,96 156,96 157,96 158,96 159,96 160,96 161,96 162,96 163,96 164,96 165,96 166,96 167,96 168,96 169,96 170,96 171,96 172,96 173,96 174,96 175,96 176,96 177,96 178,96 179,96 180,96 181,96 182,96 183,96 184,96 185,96 186,96 187,96 188,96 189,96 190,96 191,96 192,96 193,96 194,96 195,96 196,96 197,96 198,96 199,96 200,96 201,96 202,96 203,96 204,96 205,96 206,96 207,96 208,96 209,96 210,96 211,96 212,96 213,96 214,96 215,96 216,96 217,96 218,96 219,96 220,96 221,96 222,96 223,96 224,96 225,96 226,96 227,96 228,96 229,96 230,96 231,96 232,96 233,96 234,96 235,96 236,96 237,96 238,96 239,96 240,96 241,96 242,96 243,96 244,96 245,96 246,96 247,96 248,96 249,96 250,64 251,59 252,59 253,57 254,54 255,54 256,55 257,57 258,58 259,60 260,62 261,63 262,66 263,65 264,67 265,69 266,71 267,72 268,75 269,77 270,78 271,81 272,85 273,87 274,93 275,94 276,100 277,104 278,105 279,105 280,104 281,103 282,102 283,101 284,102 285,103 286,103 287,105 288,103 289,103 290,101 291,97 292,93 293,90 294,88 295,85 296,82 297,80 298,78 299,75 300,73 301,73 302,72 303,70 304,68 305,70 306,69 307,70 308,69 309,69 310,71 311,69 312,66 313,66 314,64 315,62 316,60 317,61 318,58 319,56 320,55 321,54 322,54 323,54 324,53 325,53 326,52 327,48 328,46 329,45 330,41 331,38 332,35 333,33 334,29 335,27 336,26 337,25 338,22 339,21 340,19 341,18 342,16 343,15 344,15 345,14 346,14 347,15 348,15 349,17 350,18 351,19 352,22 353,24 354,28 355,32 356,34 357,37 358,39 359,40 360,40 361,41 362,40 363,39 364,38 365,39 366,39 367,41 368,41 369,41 370,41 371,43 372,45 373,49 374,53 375,55 376,56 377,58 378,61 379,65 380,68 381,70 382,69 383,71 384,80 385,84 386,85 387,88 388,90 389,95 390,101 391,105 392,110 393,111 394,113 395,117 396,117 397,117 398,121 399,120 " />
	<!-- ApparentWindSpeed -->
	<polyline style="fill:none;stroke:blue;clip-path:url(#GraphRegion)" points="67,102 68,99 69,101 70,97 71,93 72,91 73,84 74,94 75,92 76,94 77,98 78,94 79,102 80,100 81,104 82,104 83,110 84,108 85,107 86,109 87,111 88,113 89,114 90,107 91,113 92,103 93,94 94,92 95,89 96,82 97,78 98,90 99,96 100,102 101,105 102,105 103,105 104,105 105,105 106,105 107,105 108,105 109,105 110,105 111,105 112,105 113,105 114,105 115,105 116,105 117,105 118,105 119,105 120,105 121,105 122,105 123,105 124,105 125,105 126,105 127,105 128,105 129,105 130,105 131,105 132,105 133,105 134,105 135,105 136,105 137,105 138,105 139,105 140,105 141,105 142,105 143,105 144,105 145,105 146,105 147,105 148,105 149,105 150,105 151,105 152,105 153,105 154,105 155,105 156,105 157,105 158,105 159,105 160,105 161,105 162,105 163,105 164,105 165,105 166,105 167,105 168,105 169,105 170,105 171,105 172,105 173,105 174,105 175,105 176,105 177,105 178,105 179,105 180,105 181,105 182,105 183,105 184,105 185,105 186,105 187,105 188,105 189,105 190,105 191,105 192,105 193,105 194,105 195,105 196,105 197,105 198,105 199,105 200,105 201,105 202,105 203,105 204,105 205,105 206,105 207,105 208,105 209,105 210,105 211,105 212,105 213,105 214,105 215,105 216,105 217,105 218,105 219,105 220,105 221,105 222,105 223,105 224,105 225,105 226,105 227,105 228,105 229,105 230,105 231,105 232,105 233,105 234,105 235,105 236,105 237,105 238,105 239,105 240,105 241,105 242,105 243,105 244,105 245,105 246,105 247,105 248,105 249,105 250,63 251,70 252,73 253,76 254,79 255,83 256,87 257,84 258,83 259,93 260,92 261,98 262,103 263,105 264,113 265,114 266,119 267,119 268,118 269,111 270,113 271,107 272,115 273,116 274,107 275,112 276,100 277,78 278,98 279,84 280,73 281,63 282,61 283,67 284,64 285,59 286,63 287,66 288,83 289,95 290,94 291,79 292,75 293,80 294,82 295,76 296,82 297,87 298,84 299,83 300,86 301,87 302,85 303,89 304,103 305,115 306,119 307,121 308,120 309,120 310,118 311,119 312,115 313,111 314,114 315,114 316,118 317,116 318,119 319,117 320,92 321,75 322,68 323,63 324,67 325,70 326,60 327,52 328,46 329,48 330,61 331,60 332,64 333,58 334,64 335,61 336,63 337,61 338,68 339,73 340,77 341,77 342,76 343,78 344,82 345,79 346,85 347,101 348,101 349,95 350,93 351,88 352,91 353,99 354,109 355,96 356,99 357,96 358,100 359,99 360,94 361,109 362,109 363,120 364,119 365,118 366,115 367,115 368,115 369,116 370,112 371,106 372,86 373,77 374,68 375,56 376,52 377,48 378,45 379,46 380,55 381,53 382,59 383,53 384,62 385,53 386,58 387,45 388,34 389,47 390,40 391,41 392,34 393,14 394,20 395,19 396,26 397,26 398,35 399,53 " />
	<text class="barometer-label" x="50%" y="614">Rain</text>
	<text class="barometer-label" x="50%" y="322">Change</text>
	<text class="barometer-label" x="50%" y="30">Fair</text>
</svg>
