<?xml version="1.0" encoding="utf-8" standalone="no"?>
<svg xmlns="http://www.w3.org/2000/svg" xmlns:xlink="http://www.w3.org/1999/xlink" width="500" height="135">
	<!-- Created by: WeatherFlowTempestLogger Version 1.20240722.0 Built on: Jul 22 2024 at 17:05:23 -->
	<clipPath id="GraphRegion"><polygon points="66,14 470,14 470,121 66,121" /></clipPath>
	<style>
		text { font-family: sans-serif; font-size: 12px; fill: black; }
		line { stroke: black; }
		polygon { fill-opacity: 0.5; }
		.barometer-label { font-family: Georgia, serif; font-style: italic; font-size: 56px; opacity: 0.5; clip-path: url(#GraphRegion); text-anchor: middle; dominant-baseline: middle; }
	</style>
	<rect style="fill-opacity:0;stroke:grey;stroke-width:2" width="500" height="135" />
	<text x="66" y="12">Tempest Wind &amp; Pressure</text>
	<text style="text-anchor:end" x="470" y="12">2024-09-08 00:00:00</text>
	<text style="fill:blue;text-anchor:middle" x="12" y="50%" transform="rotate(270 12,67)">Wind Speed (1.2 kn)</text>
	<text style="fill:blue;text-anchor:middle" x="24" y="50%" transform="rotate(270 24,67)">Wind Gust (7.2 kn)</text>
	<text style="fill:green;text-anchor:middle" x="36" y="50%" transform="rotate(270 36,67)">Pressure (1011.5 hPa)</text>
	<line x1="64" y1="14" x2="472" y2="14"/>
	<text style="fill:blue;text-anchor:end;dominant-baseline:middle" x="64" y="14">19.7</text>
	<text style="fill:green;dominant-baseline:middle" x="472" y="14">1025.6</text>
	<line style="stroke-dasharray:1" x1="64" y1="40" x2="472" y2="40" />
	<text style="fill:blue;text-anchor:end;dominant-baseline:middle" x="64" y="40">14.8</text>
	<text style="fill:green;dominant-baseline:middle" x="472" y="40">1020.8</text>
	<line style="stroke-dasharray:1" x1="64" y1="66" x2="472" y2="66" />
	<text style="fill:blue;text-anchor:end;dominant-baseline:middle" x="64" y="66">9.9</text>
	<text style="fill:green;dominant-baseline:middle" x="472" y="66">1016.1</text>
	<line style="stroke-dasharray:1" x1="64" y1="92" x2="472" y2="92" />
	<text style="fill:blue;text-anchor:end;dominant-baseline:middle" x="64" y="92">4.9</text>
	<text style="fill:green;dominant-baseline:middle" x="472" y="92">1011.3</text>
	<line x1="64" y1="121" x2="472" y2="121"/>
	<text style="fill:blue;text-anchor:end;dominant-baseline:middle" x="64" y="121">0.0</text>
	<text style="fill:green;dominant-baseline:middle" x="472" y="121">1006.6</text>
	<line x1="66" y1="14" x2="66" y2="121"/>
	<line style="stroke-dasharray:1" x1="73" y1="14" x2="73" y2="123" />
	<text style="text-anchor:middle" x="90" y="133">Aug</text>
	<line style="stroke-dasharray:1" x1="104" y1="14" x2="104" y2="123" />
	<text style="text-anchor:middle" x="121" y="133">Jul</text>
	<line style="stroke-dasharray:1" x1="135" y1="14" x2="135" y2="123" />
	<text style="text-anchor:middle" x="151" y="133">Jun</text>
	<line x1="470" y1="14" x2="470" y2="121"/>
	<polygon style="fill:red;stroke:red;fill-opacity:1;" points="63,121 69,118 69,124" />
	<!-- OutsidePressure MinMax -->
	<polygon style="fill:green;stroke:green;clip-path:url(#GraphRegion)" points="67,66 68,44 69,32 70,32 71,57 72,85 73,60 74,49 75,34 76,14 77,21 78,32 79,21 80,40 81,93 82,80 83,57 84,46 85,46 86,54 87,73 88,54 89,41 90,41 91,48 92,67 93,53 94,54 95,68 96,58 97,25 98,26 99,53 100,68 101,43 102,40 103,49 104,48 105,57 106,79 107,73 108,79 109,29 110,14 111,41 112,21 113,29 114,39 115,32 116,32 117,32 118,32 119,32 120,32 121,32 122,32 123,32 124,32 125,32 126,32 127,32 128,32 129,32 130,32 131,32 132,32 133,32 134,32 135,32 136,32 137,32 138,32 139,32 140,32 141,32 142,32 143,32 144,32 145,32 146,32 147,45 148,48 149,54 150,54 151,34 152,35 153,14 154,28 154,67 153,35 152,59 151,54 150,54 149,54 148,56 147,65 146,66 145,32 144,32 143,32 142,32 141,32 140,32 139,32 138,32 137,32 136,32 135,32 134,32 133,32 132,32 131,32 130,32 129,32 128,32 127,32 126,32 125,32 124,32 123,32 122,32 121,32 120,32 119,32 118,32 117,32 116,32 115,61 114,62 113,48 112,52 111,51 110,42 109,81 108,97 107,89 106,87 105,79 104,60 103,69 102,59 101,77 100,87 99,76 98,53 97,62 96,86 95,83 94,72 93,73 92,77 91,70 90,54 89,59 88,73 87,121 86,95 85,60 84,58 83,81 82,108 81,114 80,104 79,40 78,62 77,60 76,38 75,63 74,66 73,89 72,104 71,91 70,57 69,51 68,74 67,91 " />
	<!-- ApparentWindSpeed MinMax -->
	<polygon style="fill:blue;stroke:blue;clip-path:url(#GraphRegion)" points="67,62 68,68 69,74 70,84 71,62 72,63 73,71 74,71 75,67 76,66 77,58 78,60 79,76 80,63 81,69 82,79 83,65 84,57 85,65 86,27 87,52 88,67 89,71 90,75 91,79 92,57 93,72 94,67 95,85 96,58 97,76 98,76 99,74 100,62 101,81 102,74 103,70 104,66 105,39 106,51 107,45 108,59 109,74 110,65 111,44 112,66 113,70 114,71 115,67 116,116 117,116 118,116 119,116 120,116 121,116 122,116 123,116 124,116 125,116 126,116 127,116 128,116 129,116 130,116 131,116 132,116 133,116 134,116 135,116 136,116 137,116 138,116 139,116 140,116 141,116 142,116 143,116 144,116 145,116 146,59 147,62 148,76 149,107 150,107 151,34 152,60 153,48 154,14 154,84 153,100 152,106 151,108 150,112 149,112 148,110 147,106 146,107 145,118 144,118 143,118 142,118 141,118 140,118 139,118 138,118 137,118 136,118 135,118 134,118 133,118 132,118 131,118 130,118 129,118 128,118 127,118 126,118 125,118 124,118 123,118 122,118 121,118 120,118 119,118 118,118 117,118 116,118 115,106 114,112 113,110 112,108 111,109 110,106 109,108 108,111 107,95 106,93 105,96 104,106 103,105 102,111 101,110 100,110 99,107 98,106 97,109 96,109 95,115 94,107 93,104 92,102 91,111 90,111 89,112 88,109 87,100 86,103 85,106 84,102 83,106 82,113 81,106 80,97 79,110 78,113 77,107 76,107 75,104 74,110 73,109 72,111 71,101 70,110 69,105 68,110 67,110 " />
	<!-- OutsidePressure -->
	<polyline style="fill:none;stroke:green;clip-path:url(#GraphRegion)" points="67,76 68,57 69,41 70,42 71,78 72,92 73,72 74,58 75,47 76,24 77,38 78,45 79,29 80,73 81,106 82,91 83,66 84,53 85,56 86,72 87,92 88,61 89,50 90,47 91,58 92,72 93,62 94,63 95,75 96,70 97,40 98,36 99,65 100,76 101,57 102,49 103,59 104,54 105,67 106,84 107,80 108,87 109,53 110,25 111,46 112,34 113,40 114,53 115,49 116,32 117,32 118,32 119,32 120,32 121,32 122,32 123,32 124,32 125,32 126,32 127,32 128,32 129,32 130,32 131,32 132,32 133,32 134,32 135,32 136,32 137,32 138,32 139,32 140,32 141,32 142,32 143,32 144,32 145,32 146,58 147,54 148,53 149,54 150,54 151,42 152,48 153,24 154,46 " />
	<!-- ApparentWindSpeed -->
	<polyline style="fill:none;stroke:blue;clip-path:url(#GraphRegion)" points="67,110 68,110 69,105 70,110 71,101 72,111 73,109 74,110 75,104 76,107 77,107 78,113 79,110 80,97 81,106 82,113 83,106 84,102 85,106 86,103 87,100 88,109 89,112 90,111 91,111 92,102 93,104 94,107 95,115 96,109 97,109 98,106 99,107 100,110 101,110 102,111 103,105 104,106 105,96 106,93 107,95 108,111 109,108 110,106 111,109 112,108 113,110 114,112 115,106 116,118 117,118 118,118 119,118 120,118 121,118 122,118 123,118 124,118 125,118 126,118 127,118 128,118 129,118 130,118 131,118 132,118 133,118 134,118 135,118 136,118 137,118 138,118 139,118 140,118 141,118 142,118 143,118 144,118 145,118 146,107 147,106 148,110 149,112 150,112 151,108 152,106 153,100 154,84 " />
	<text class="barometer-label" x="50%" y="303">Rain</text>
	<text class="barometer-label" x="50%" y="163">Change</text>
	<text class="barometer-label" x="50%" y="23">Fair</text>
</svg>
