<?xml version="1.0" encoding="utf-8" standalone="no"?>
<svg xmlns="http://www.w3.org/2000/svg" xmlns:xlink="http://www.w3.org/1999/xlink" width="500" height="135">
	<!-- Created by: WeatherFlowTempestLogger Version 1.20240617.3 Built on: Jun 17 2024 at 22:43:41 -->
	<clipPath id="GraphRegion"><polygon points="70,14 486,14 486,121 70,121" /></clipPath>
	<style>
		text { font-family: sans-serif; font-size: 12px; fill: black; }
		line { stroke: black; }
		polygon { fill-opacity: 0.5; }
		.barometer-label { font-family: Georgia, serif; font-style: italic; font-size: 2147483647px; opacity: 0.5; clip-path: url(#GraphRegion); text-anchor: middle; dominant-baseline: middle; }
	</style>
	<rect style="fill-opacity:0;stroke:grey;stroke-width:2" width="500" height="135" />
	<text x="70" y="12">Tempest</text>
	<text style="text-anchor:end" x="486" y="12">2024-06-18 05:09:50</text>
	<text style="fill:blue;text-anchor:middle" x="12" y="50%" transform="rotate(270 12,67)">Wind Speed (0.0 kn)</text>
	<text style="fill:blue;text-anchor:middle" x="24" y="50%" transform="rotate(270 24,67)">Wind Gust (0.0 kn)</text>
	<text style="fill:green;text-anchor:middle" x="36" y="50%" transform="rotate(270 36,67)">Pressure (0.0 hPa)</text>
	<line x1="68" y1="14" x2="488" y2="14"/>
	<text style="fill:blue;text-anchor:end;dominant-baseline:middle" x="68" y="14">0.0</text>
	<line style="stroke-dasharray:1" x1="68" y1="40" x2="488" y2="40" />
	<text style="fill:blue;text-anchor:end;dominant-baseline:middle" x="68" y="40">0.0</text>
	<line style="stroke-dasharray:1" x1="68" y1="66" x2="488" y2="66" />
	<text style="fill:blue;text-anchor:end;dominant-baseline:middle" x="68" y="66">0.0</text>
	<line style="stroke-dasharray:1" x1="68" y1="92" x2="488" y2="92" />
	<text style="fill:blue;text-anchor:end;dominant-baseline:middle" x="68" y="92">0.0</text>
	<line x1="68" y1="121" x2="488" y2="121"/>
	<text style="fill:blue;text-anchor:end;dominant-baseline:middle" x="68" y="121">0.0</text>
	<line x1="70" y1="14" x2="70" y2="121"/>
	<line style="stroke-dasharray:1" x1="71" y1="14" x2="71" y2="123" />
	<line style="stroke-dasharray:1" x1="83" y1="14" x2="83" y2="123" />
	<text style="text-anchor:middle" x="83" y="133">4</text>
	<line style="stroke-dasharray:1" x1="95" y1="14" x2="95" y2="123" />
	<line style="stroke-dasharray:1" x1="107" y1="14" x2="107" y2="123" />
	<text style="text-anchor:middle" x="107" y="133">2</text>
	<line style="stroke-dasharray:1" x1="119" y1="14" x2="119" y2="123" />
	<line style="stroke:red" x1="131" y1="14" x2="131" y2="123" />
	<text style="text-anchor:middle" x="131" y="133">0</text>
	<line style="stroke-dasharray:1" x1="143" y1="14" x2="143" y2="123" />
	<line style="stroke-dasharray:1" x1="155" y1="14" x2="155" y2="123" />
	<text style="text-anchor:middle" x="155" y="133">22</text>
	<line style="stroke-dasharray:1" x1="167" y1="14" x2="167" y2="123" />
	<line style="stroke-dasharray:1" x1="179" y1="14" x2="179" y2="123" />
	<text style="text-anchor:middle" x="179" y="133">20</text>
	<line style="stroke-dasharray:1" x1="191" y1="14" x2="191" y2="123" />
	<line style="stroke-dasharray:1" x1="203" y1="14" x2="203" y2="123" />
	<text style="text-anchor:middle" x="203" y="133">18</text>
	<line style="stroke-dasharray:1" x1="215" y1="14" x2="215" y2="123" />
	<line style="stroke-dasharray:1" x1="227" y1="14" x2="227" y2="123" />
	<text style="text-anchor:middle" x="227" y="133">16</text>
	<line style="stroke-dasharray:1" x1="239" y1="14" x2="239" y2="123" />
	<line style="stroke-dasharray:1" x1="251" y1="14" x2="251" y2="123" />
	<text style="text-anchor:middle" x="251" y="133">14</text>
	<line style="stroke-dasharray:1" x1="263" y1="14" x2="263" y2="123" />
	<line style="stroke-dasharray:1" x1="275" y1="14" x2="275" y2="123" />
	<text style="text-anchor:middle" x="275" y="133">12</text>
	<line style="stroke-dasharray:1" x1="287" y1="14" x2="287" y2="123" />
	<line style="stroke-dasharray:1" x1="299" y1="14" x2="299" y2="123" />
	<text style="text-anchor:middle" x="299" y="133">10</text>
	<line style="stroke-dasharray:1" x1="311" y1="14" x2="311" y2="123" />
	<line style="stroke-dasharray:1" x1="323" y1="14" x2="323" y2="123" />
	<text style="text-anchor:middle" x="323" y="133">8</text>
	<line style="stroke-dasharray:1" x1="335" y1="14" x2="335" y2="123" />
	<line style="stroke-dasharray:1" x1="347" y1="14" x2="347" y2="123" />
	<text style="text-anchor:middle" x="347" y="133">6</text>
	<line style="stroke-dasharray:1" x1="359" y1="14" x2="359" y2="123" />
	<line style="stroke-dasharray:1" x1="371" y1="14" x2="371" y2="123" />
	<text style="text-anchor:middle" x="371" y="133">4</text>
	<line style="stroke-dasharray:1" x1="383" y1="14" x2="383" y2="123" />
	<line style="stroke-dasharray:1" x1="395" y1="14" x2="395" y2="123" />
	<text style="text-anchor:middle" x="395" y="133">2</text>
	<line style="stroke-dasharray:1" x1="407" y1="14" x2="407" y2="123" />
	<line style="stroke:red" x1="419" y1="14" x2="419" y2="123" />
	<text style="text-anchor:middle" x="419" y="133">0</text>
	<line style="stroke-dasharray:1" x1="431" y1="14" x2="431" y2="123" />
	<line style="stroke-dasharray:1" x1="443" y1="14" x2="443" y2="123" />
	<text style="text-anchor:middle" x="443" y="133">22</text>
	<line style="stroke-dasharray:1" x1="455" y1="14" x2="455" y2="123" />
	<line style="stroke-dasharray:1" x1="467" y1="14" x2="467" y2="123" />
	<text style="text-anchor:middle" x="467" y="133">20</text>
	<line style="stroke-dasharray:1" x1="479" y1="14" x2="479" y2="123" />
	<line x1="486" y1="14" x2="486" y2="121"/>
	<polygon style="fill:red;stroke:red;fill-opacity:1;" points="67,121 73,118 73,124" />
	<!-- ApparentWindSpeed -->
	<polyline style="fill:none;stroke:blue;clip-path:url(#GraphRegion)" points="71,0 72,0 73,0 74,0 75,0 76,0 77,0 78,0 79,0 80,0 81,0 82,0 83,0 84,0 85,0 86,0 87,0 88,0 89,0 90,0 91,0 92,0 93,0 94,0 95,0 96,0 97,0 98,0 99,0 100,0 101,0 102,0 103,0 104,0 105,0 106,0 107,0 108,0 109,0 110,0 111,0 112,0 113,0 114,0 115,0 116,0 117,0 118,0 119,0 120,0 121,0 122,0 123,0 124,0 125,0 126,0 127,0 128,0 129,0 130,0 131,0 132,0 133,0 134,0 135,0 136,0 137,0 138,0 139,0 140,0 141,0 142,0 143,0 144,0 145,0 146,0 147,0 148,0 149,0 150,0 151,0 152,0 153,0 154,0 155,0 156,0 157,0 158,0 159,0 160,0 161,0 162,0 163,0 164,0 165,0 166,0 167,0 168,0 169,0 170,0 171,0 172,0 173,0 174,0 175,0 176,0 177,0 178,0 179,0 180,0 181,0 182,0 183,0 184,0 185,0 186,0 187,0 188,0 189,0 190,0 191,0 192,0 193,0 194,0 195,0 196,0 197,0 198,0 199,0 200,0 201,0 202,0 203,0 204,0 205,0 206,0 207,0 208,0 209,0 210,0 211,0 212,0 213,0 214,0 215,0 216,0 217,0 218,0 219,0 220,0 221,0 222,0 223,0 224,0 225,0 226,0 227,0 228,0 229,0 230,0 231,0 232,0 233,0 234,0 235,0 236,0 237,0 238,0 239,0 240,0 241,0 242,0 243,0 244,0 245,0 246,0 247,0 248,0 249,0 250,0 251,0 252,0 253,0 254,0 255,0 256,0 257,0 258,0 259,0 260,0 261,0 262,0 263,0 264,0 265,0 266,0 267,0 268,0 269,0 270,0 271,0 272,0 273,0 274,0 275,0 276,0 277,0 278,0 279,0 280,0 281,0 282,0 283,0 284,0 285,0 286,0 287,0 288,0 289,0 290,0 291,0 292,0 293,0 294,0 295,0 296,0 297,0 298,0 299,0 300,0 301,0 302,0 303,0 304,0 305,0 306,0 307,0 308,0 309,0 310,0 311,0 312,0 313,0 314,0 315,0 316,0 317,0 318,0 319,0 320,0 321,0 322,0 323,0 324,0 325,0 326,0 327,0 328,0 329,0 330,0 331,0 332,0 333,0 334,0 335,0 336,0 337,0 338,0 339,0 340,0 341,0 342,0 343,0 344,0 345,0 346,0 347,0 348,0 349,0 350,0 351,0 352,0 353,0 354,0 355,0 356,0 357,0 358,0 359,0 360,0 361,0 362,0 363,0 364,0 365,0 366,0 367,0 368,0 369,0 370,0 371,0 372,0 373,0 374,0 375,0 376,0 377,0 378,0 379,0 380,0 381,0 382,0 383,0 384,0 385,0 386,0 387,0 388,0 389,0 390,0 391,0 392,0 393,0 394,0 395,0 396,0 397,0 398,0 399,0 400,0 401,0 402,0 403,0 404,0 405,0 406,0 407,0 408,0 409,0 410,0 411,0 412,0 413,0 414,0 415,0 416,0 417,0 418,0 419,0 420,0 421,0 422,0 423,0 424,0 425,0 426,0 427,0 428,0 429,0 430,0 431,0 432,0 433,0 434,0 435,0 436,0 437,0 438,0 439,0 440,0 441,0 442,0 443,0 444,0 445,0 446,0 447,0 448,0 449,0 450,0 451,0 452,0 453,0 454,0 455,0 456,0 457,0 458,0 459,0 460,0 461,0 462,0 463,0 464,0 465,0 466,0 467,0 468,0 469,0 470,0 471,0 472,0 473,0 474,0 475,0 476,0 477,0 478,0 479,0 480,0 481,0 482,0 483,0 484,0 485,0 " />
</svg>
