<?xml version="1.0" encoding="utf-8" standalone="no"?>
<svg xmlns="http://www.w3.org/2000/svg" xmlns:xlink="http://www.w3.org/1999/xlink" width="500" height="135">
	<!-- Created by: WeatherFlowTempestLogger Version 1.20240617.1 Built on: Jun 17 2024 at 16:19:39 -->
	<clipPath id="GraphRegion"><polygon points="54,14 470,14 470,121 54,121" /></clipPath>
	<style>
		text { font-family: sans-serif; font-size: 12px; fill: black; }
		line { stroke: black; }
		polygon { fill-opacity: 0.5; }
	</style>
	<rect style="fill-opacity:0;stroke:grey;stroke-width:2" width="500" height="135" />
	<text x="54" y="12">Tempest</text>
	<text style="text-anchor:end" x="470" y="12">2024-06-17 16:00:00</text>
	<text style="fill:blue;text-anchor:middle" x="12" y="50%" transform="rotate(270 12,67)">Temperature (58.1°F)</text>
	<text style="fill:green;text-anchor:middle" x="24" y="50%" transform="rotate(270 24,67)">Humidity (68.1%)</text>
	<!-- Humidity -->
	<polygon style="fill:lime;stroke:green;clip-path:url(#GraphRegion)" points="55,120 54,54 55,74 56,75 57,75 58,75 59,75 60,75 61,75 62,75 63,75 64,75 65,75 66,75 67,75 68,75 69,75 70,75 71,75 72,75 73,75 74,75 75,75 76,75 77,75 78,75 79,75 80,75 81,75 82,75 83,75 84,75 85,75 86,75 87,75 88,75 89,75 90,75 91,75 92,65 93,41 94,33 95,38 96,36 97,49 98,66 99,82 100,89 101,97 102,121 103,105 104,56 105,34 106,16 107,14 108,26 109,46 110,52 111,57 112,78 113,83 114,81 115,76 116,67 117,56 118,55 119,49 120,36 121,40 122,52 123,48 124,47 125,44 126,94 127,81 128,56 129,29 130,120" />
	<line x1="52" y1="14" x2="472" y2="14"/>
	<text style="fill:blue;text-anchor:end;dominant-baseline:middle" x="52" y="14">65.9</text>
	<text style="fill:green;dominant-baseline:middle" x="472" y="14">84.0</text>
	<line x1="52" y1="121" x2="472" y2="121"/>
	<text style="fill:blue;text-anchor:end;dominant-baseline:middle" x="52" y="121">48.3</text>
	<text style="fill:green;dominant-baseline:middle" x="472" y="121">42.2</text>
	<line x1="54" y1="14" x2="54" y2="121"/>
	<line x1="470" y1="14" x2="470" y2="121"/>
	<line style="stroke-dasharray:1" x1="52" y1="40" x2="472" y2="40" />
	<text style="fill:blue;text-anchor:end;dominant-baseline:middle" x="52" y="40">61.5</text>
	<text style="fill:green;dominant-baseline:middle" x="472" y="40">73.5</text>
	<line style="stroke-dasharray:1" x1="52" y1="66" x2="472" y2="66" />
	<text style="fill:blue;text-anchor:end;dominant-baseline:middle" x="52" y="66">57.1</text>
	<text style="fill:green;dominant-baseline:middle" x="472" y="66">63.1</text>
	<line style="stroke-dasharray:1" x1="52" y1="92" x2="472" y2="92" />
	<text style="fill:blue;text-anchor:end;dominant-baseline:middle" x="52" y="92">52.7</text>
	<text style="fill:green;dominant-baseline:middle" x="472" y="92">52.6</text>
	<line style="stroke-dasharray:1" x1="74" y1="14" x2="74" y2="123" />
	<text style="text-anchor:middle" x="116" y="133">Week 24</text>
	<polygon style="fill:red;stroke:red;fill-opacity:1;" points="51,121 57,118 57,124" />
	<!-- Temperature -->
	<polyline style="fill:none;stroke:blue;clip-path:url(#GraphRegion)" points="55,36 56,36 57,36 58,36 59,36 60,36 61,36 62,36 63,36 64,36 65,36 66,36 67,36 68,36 69,36 70,36 71,36 72,36 73,36 74,36 75,36 76,36 77,36 78,36 79,36 80,36 81,36 82,36 83,36 84,36 85,36 86,36 87,36 88,36 89,36 90,36 91,36 92,52 93,81 94,100 95,103 96,103 97,91 98,74 99,46 100,35 101,24 102,14 103,28 104,61 105,83 106,110 107,121 108,109 109,96 110,83 111,69 112,49 113,38 114,40 115,50 116,61 117,76 118,88 119,93 120,98 121,92 122,79 123,80 124,73 125,64 126,16 127,19 128,41 129,69 " />
</svg>
