<?xml version="1.0" encoding="utf-8" standalone="no"?>
<svg xmlns="http://www.w3.org/2000/svg" xmlns:xlink="http://www.w3.org/1999/xlink" width="500" height="135">
	<!-- Created by: WeatherFlowTempestLogger Version 1.20240617.3 Built on: Jun 17 2024 at 22:43:41 -->
	<clipPath id="GraphRegion"><polygon points="70,14 486,14 486,121 70,121" /></clipPath>
	<style>
		text { font-family: sans-serif; font-size: 12px; fill: black; }
		line { stroke: black; }
		polygon { fill-opacity: 0.5; }
		.barometer-label { font-family: Georgia, serif; font-style: italic; font-size: 2147483647px; opacity: 0.5; clip-path: url(#GraphRegion); text-anchor: middle; dominant-baseline: middle; }
	</style>
	<rect style="fill-opacity:0;stroke:grey;stroke-width:2" width="500" height="135" />
	<text x="70" y="12">Tempest</text>
	<text style="text-anchor:end" x="486" y="12">2024-06-18 00:00:00</text>
	<text style="fill:blue;text-anchor:middle" x="12" y="50%" transform="rotate(270 12,67)">Wind Speed (0.0 kn)</text>
	<text style="fill:blue;text-anchor:middle" x="24" y="50%" transform="rotate(270 24,67)">Wind Gust (0.0 kn)</text>
	<text style="fill:green;text-anchor:middle" x="36" y="50%" transform="rotate(270 36,67)">Pressure (0.0 hPa)</text>
	<line x1="68" y1="14" x2="488" y2="14"/>
	<text style="fill:blue;text-anchor:end;dominant-baseline:middle" x="68" y="14">0.0</text>
	<line style="stroke-dasharray:1" x1="68" y1="40" x2="488" y2="40" />
	<text style="fill:blue;text-anchor:end;dominant-baseline:middle" x="68" y="40">0.0</text>
	<line style="stroke-dasharray:1" x1="68" y1="66" x2="488" y2="66" />
	<text style="fill:blue;text-anchor:end;dominant-baseline:middle" x="68" y="66">0.0</text>
	<line style="stroke-dasharray:1" x1="68" y1="92" x2="488" y2="92" />
	<text style="fill:blue;text-anchor:end;dominant-baseline:middle" x="68" y="92">0.0</text>
	<line x1="68" y1="121" x2="488" y2="121"/>
	<text style="fill:blue;text-anchor:end;dominant-baseline:middle" x="68" y="121">0.0</text>
	<line x1="70" y1="14" x2="70" y2="121"/>
	<text style="text-anchor:middle" x="73" y="133">Jun</text>
	<line x1="486" y1="14" x2="486" y2="121"/>
	<polygon style="fill:red;stroke:red;fill-opacity:1;" points="67,121 73,118 73,124" />
	<!-- ApparentWindSpeed MinMax -->
	<polygon style="fill:blue;stroke:blue;clip-path:url(#GraphRegion)" points="71,0 72,0 73,0 74,0 75,0 76,0 76,0 75,0 74,0 73,0 72,0 71,0 " />
	<!-- ApparentWindSpeed -->
	<polyline style="fill:none;stroke:blue;clip-path:url(#GraphRegion)" points="71,0 72,0 73,0 74,0 75,0 76,0 " />
</svg>
