<?xml version="1.0" encoding="utf-8" standalone="no"?>
<svg xmlns="http://www.w3.org/2000/svg" xmlns:xlink="http://www.w3.org/1999/xlink" width="500" height="135">
	<!-- Created by: WeatherFlowTempestLogger Version 1.20240618.2 Built on: Jun 18 2024 at 07:41:14 -->
	<clipPath id="GraphRegion"><polygon points="66,14 470,14 470,121 66,121" /></clipPath>
	<style>
		text { font-family: sans-serif; font-size: 12px; fill: black; }
		line { stroke: black; }
		polygon { fill-opacity: 0.5; }
		.barometer-label { font-family: Georgia, serif; font-style: italic; font-size: 119px; opacity: 0.5; clip-path: url(#GraphRegion); text-anchor: middle; dominant-baseline: middle; }
	</style>
	<rect style="fill-opacity:0;stroke:grey;stroke-width:2" width="500" height="135" />
	<text x="66" y="12">Tempest Wind</text>
	<text style="text-anchor:end" x="470" y="12">2024-06-18 22:00:00</text>
	<text style="fill:blue;text-anchor:middle" x="12" y="50%" transform="rotate(270 12,67)">Wind Speed (2.2 kn)</text>
	<text style="fill:blue;text-anchor:middle" x="24" y="50%" transform="rotate(270 24,67)">Wind Gust (5.5 kn)</text>
	<text style="fill:green;text-anchor:middle" x="36" y="50%" transform="rotate(270 36,67)">Pressure (1016.7 hPa)</text>
	<line x1="64" y1="14" x2="472" y2="14"/>
	<text style="fill:blue;text-anchor:end;dominant-baseline:middle" x="64" y="14">5.2</text>
	<text style="fill:green;dominant-baseline:middle" x="472" y="14">1025.3</text>
	<line style="stroke-dasharray:1" x1="64" y1="40" x2="472" y2="40" />
	<text style="fill:blue;text-anchor:end;dominant-baseline:middle" x="64" y="40">3.9</text>
	<text style="fill:green;dominant-baseline:middle" x="472" y="40">1023.1</text>
	<line style="stroke-dasharray:1" x1="64" y1="66" x2="472" y2="66" />
	<text style="fill:blue;text-anchor:end;dominant-baseline:middle" x="64" y="66">2.6</text>
	<text style="fill:green;dominant-baseline:middle" x="472" y="66">1020.9</text>
	<line style="stroke-dasharray:1" x1="64" y1="92" x2="472" y2="92" />
	<text style="fill:blue;text-anchor:end;dominant-baseline:middle" x="64" y="92">1.4</text>
	<text style="fill:green;dominant-baseline:middle" x="472" y="92">1018.6</text>
	<line x1="64" y1="121" x2="472" y2="121"/>
	<text style="fill:blue;text-anchor:end;dominant-baseline:middle" x="64" y="121">0.1</text>
	<text style="fill:green;dominant-baseline:middle" x="472" y="121">1016.4</text>
	<line x1="66" y1="14" x2="66" y2="121"/>
	<line style="stroke-dasharray:1" x1="101" y1="14" x2="101" y2="123" />
	<text style="text-anchor:middle" x="143" y="133">Week 24</text>
	<line x1="470" y1="14" x2="470" y2="121"/>
	<polygon style="fill:red;stroke:red;fill-opacity:1;" points="63,121 69,118 69,124" />
	<!-- OutsidePressure -->
	<polyline style="fill:none;stroke:green;clip-path:url(#GraphRegion)" points="67,120 68,115 69,104 70,92 71,82 72,78 73,81 74,85 75,87 76,87 77,86 78,90 79,96 80,99 81,98 82,97 83,97 84,97 85,97 86,97 87,97 88,97 89,97 90,97 91,97 92,97 93,97 94,97 95,97 96,97 97,97 98,97 99,97 100,97 101,97 102,97 103,97 104,97 105,97 106,97 107,97 108,97 109,97 110,97 111,97 112,97 113,97 114,97 115,97 116,97 117,97 118,97 119,68 120,56 121,57 122,65 123,70 124,78 125,91 126,105 127,104 128,105 129,102 130,90 131,80 132,73 133,70 134,70 135,65 136,59 137,54 138,51 139,42 140,31 141,23 142,17 143,14 144,17 145,26 146,37 147,40 148,39 149,41 150,50 151,60 152,70 153,85 154,99 155,114 156,121 " />
	<!-- ApparentWindSpeed -->
	<polyline style="fill:none;stroke:blue;clip-path:url(#GraphRegion)" points="67,81 68,87 69,93 70,105 71,108 72,105 73,107 74,96 75,89 76,96 77,104 78,109 79,112 80,93 81,85 82,104 83,105 84,105 85,105 86,105 87,105 88,105 89,105 90,105 91,105 92,105 93,105 94,105 95,105 96,105 97,105 98,105 99,105 100,105 101,105 102,105 103,105 104,105 105,105 106,105 107,105 108,105 109,105 110,105 111,105 112,105 113,105 114,105 115,105 116,105 117,105 118,105 119,71 120,75 121,85 122,99 123,117 124,113 125,113 126,88 127,62 128,59 129,86 130,75 131,82 132,85 133,115 134,121 135,114 136,118 137,71 138,58 139,49 140,57 141,62 142,74 143,85 144,93 145,98 146,97 147,108 148,118 149,113 150,68 151,42 152,50 153,50 154,34 155,14 156,27 " />
	<text class="barometer-label" x="50%" y="627">Rain</text>
	<text class="barometer-label" x="50%" y="328">Change</text>
	<text class="barometer-label" x="50%" y="29">Fair</text>
</svg>
