<?xml version="1.0" encoding="utf-8" standalone="no"?>
<svg xmlns="http://www.w3.org/2000/svg" xmlns:xlink="http://www.w3.org/1999/xlink" width="500" height="135">
	<!-- Created by: WeatherFlowTempestLogger Version 1.20240722.0 Built on: Jul 22 2024 at 17:05:23 -->
	<clipPath id="GraphRegion"><polygon points="54,14 470,14 470,121 54,121" /></clipPath>
	<style>
		text { font-family: sans-serif; font-size: 12px; fill: black; }
		line { stroke: black; }
		polygon { fill-opacity: 0.5; }
	</style>
	<rect style="fill-opacity:0;stroke:grey;stroke-width:2" width="500" height="135" />
	<text x="54" y="12">Tempest Temperature &amp; Humidity</text>
	<text style="text-anchor:end" x="470" y="12">2024-09-08 11:30:00</text>
	<text style="fill:blue;text-anchor:middle" x="12" y="50%" transform="rotate(270 12,67)">Temperature (62.0°F)</text>
	<text style="fill:green;text-anchor:middle" x="24" y="50%" transform="rotate(270 24,67)">Humidity (89.7%)</text>
	<!-- Humidity -->
	<polygon style="fill:lime;stroke:green;clip-path:url(#GraphRegion)" points="55,120 54,36 55,30 56,29 57,25 58,22 59,21 60,21 61,22 62,22 63,23 64,21 65,24 66,29 67,31 68,18 69,17 70,17 71,20 72,23 73,25 74,33 75,37 76,32 77,32 78,36 79,35 80,35 81,45 82,47 83,56 84,42 85,47 86,54 87,57 88,58 89,56 90,71 91,85 92,69 93,82 94,79 95,73 96,74 97,79 98,67 99,63 100,79 101,87 102,80 103,59 104,48 105,46 106,40 107,38 108,33 109,29 110,29 111,27 112,32 113,37 114,37 115,40 116,40 117,37 118,42 119,34 120,33 121,39 122,37 123,38 124,36 125,38 126,42 127,45 128,49 129,53 130,59 131,63 132,67 133,74 134,92 135,105 136,111 137,110 138,113 139,115 140,112 141,112 142,109 143,105 144,99 145,102 146,98 147,102 148,95 149,83 150,58 151,51 152,43 153,40 154,40 155,37 156,30 157,14 158,15 159,15 160,14 161,18 162,17 163,18 164,17 165,17 166,17 167,18 168,20 169,23 170,24 171,25 172,27 173,34 174,41 175,43 176,47 177,52 178,60 179,62 180,74 181,91 182,100 183,108 184,112 185,112 186,114 187,118 188,120 189,106 190,98 191,90 192,98 193,98 194,93 195,89 196,80 197,78 198,75 199,64 200,51 201,40 202,35 203,29 204,16 205,14 206,15 207,14 208,14 209,14 210,14 211,17 212,16 213,20 214,24 215,28 216,33 217,35 218,39 219,49 220,52 221,47 222,48 223,51 224,54 225,58 226,65 227,69 228,72 229,76 230,84 231,87 232,89 233,92 234,91 235,88 236,88 237,84 238,82 239,80 240,77 241,73 242,65 243,62 244,54 245,54 246,44 247,35 248,29 249,19 250,15 251,15 252,15 253,15 254,15 255,15 256,16 257,16 258,17 259,17 260,18 261,21 262,23 263,24 264,23 265,24 266,27 267,30 268,31 269,34 270,37 271,31 272,37 273,35 274,37 275,41 276,46 277,52 278,59 279,65 280,73 281,74 282,73 283,71 284,75 285,69 286,65 287,65 288,65 289,54 290,60 291,66 292,64 293,62 294,50 295,50 296,48 297,41 298,38 299,39 300,43 301,46 302,44 303,43 304,43 305,43 306,44 307,44 308,45 309,44 310,45 311,45 312,44 313,43 314,43 315,44 316,44 317,44 318,46 319,48 320,50 321,54 322,57 323,60 324,61 325,61 326,63 327,64 328,64 329,65 330,68 331,69 332,72 333,76 334,75 335,79 336,76 337,68 338,65 339,60 340,64 341,64 342,59 343,56 344,49 345,42 346,41 347,46 348,46 349,47 350,47 351,47 352,46 353,44 354,40 355,41 356,41 357,41 358,41 359,41 360,42 361,44 362,47 363,49 364,52 365,52 366,51 367,53 368,57 369,61 370,72 371,75 372,70 373,81 374,101 375,106 376,108 377,118 378,121 379,108 380,113 381,118 382,119 383,87 384,76 385,90 386,98 387,96 388,89 389,91 390,86 391,73 392,70 393,66 394,51 395,42 396,31 397,23 398,23 399,25 400,24 401,24 402,24 403,24 404,24 405,28 406,28 407,27 408,28 409,30 410,32 411,33 412,35 413,36 414,39 415,42 416,47 417,49 418,52 419,66 420,83 421,93 422,100 423,105 424,108 425,112 426,114 427,119 428,114 429,113 430,103 431,100 432,95 433,93 434,97 435,95 436,88 437,86 438,72 439,56 440,59 441,54 442,50 443,43 444,25 445,19 446,19 447,21 448,22 449,23 450,26 451,28 452,31 453,34 454,36 455,35 456,35 457,38 458,36 459,36 460,37 461,41 462,47 463,48 464,49 465,59 466,71 467,82 468,85 469,91 469,120" />
	<line x1="52" y1="14" x2="472" y2="14"/>
	<text style="fill:blue;text-anchor:end;dominant-baseline:middle" x="52" y="14">81.4</text>
	<text style="fill:green;dominant-baseline:middle" x="472" y="14">99.5</text>
	<line x1="52" y1="121" x2="472" y2="121"/>
	<text style="fill:blue;text-anchor:end;dominant-baseline:middle" x="52" y="121">55.7</text>
	<text style="fill:green;dominant-baseline:middle" x="472" y="121">52.6</text>
	<line x1="54" y1="14" x2="54" y2="121"/>
	<line x1="470" y1="14" x2="470" y2="121"/>
	<line style="stroke-dasharray:1" x1="52" y1="40" x2="472" y2="40" />
	<text style="fill:blue;text-anchor:end;dominant-baseline:middle" x="52" y="40">75.0</text>
	<text style="fill:green;dominant-baseline:middle" x="472" y="40">87.8</text>
	<line style="stroke-dasharray:1" x1="52" y1="66" x2="472" y2="66" />
	<text style="fill:blue;text-anchor:end;dominant-baseline:middle" x="52" y="66">68.6</text>
	<text style="fill:green;dominant-baseline:middle" x="472" y="66">76.1</text>
	<line style="stroke-dasharray:1" x1="52" y1="92" x2="472" y2="92" />
	<text style="fill:blue;text-anchor:end;dominant-baseline:middle" x="52" y="92">62.1</text>
	<text style="fill:green;dominant-baseline:middle" x="472" y="92">64.3</text>
	<line style="stroke:red" x1="77" y1="14" x2="77" y2="123" />
	<text style="text-anchor:middle" x="101" y="133">Sat</text>
	<line style="stroke-dasharray:1" x1="125" y1="14" x2="125" y2="123" />
	<text style="text-anchor:middle" x="149" y="133">Fri</text>
	<line style="stroke-dasharray:1" x1="173" y1="14" x2="173" y2="123" />
	<text style="text-anchor:middle" x="197" y="133">Thu</text>
	<line style="stroke-dasharray:1" x1="221" y1="14" x2="221" y2="123" />
	<text style="text-anchor:middle" x="245" y="133">Wed</text>
	<line style="stroke-dasharray:1" x1="269" y1="14" x2="269" y2="123" />
	<text style="text-anchor:middle" x="293" y="133">Tue</text>
	<line style="stroke-dasharray:1" x1="317" y1="14" x2="317" y2="123" />
	<text style="text-anchor:middle" x="341" y="133">Mon</text>
	<line style="stroke-dasharray:1" x1="365" y1="14" x2="365" y2="123" />
	<text style="text-anchor:middle" x="389" y="133">Sun</text>
	<line style="stroke:red" x1="413" y1="14" x2="413" y2="123" />
	<text style="text-anchor:middle" x="437" y="133">Sat</text>
	<line style="stroke-dasharray:1" x1="461" y1="14" x2="461" y2="123" />
	<polygon style="fill:red;stroke:red;fill-opacity:1;" points="51,121 57,118 57,124" />
	<!-- Temperature -->
	<polyline style="fill:none;stroke:blue;clip-path:url(#GraphRegion)" points="55,98 56,100 57,101 58,103 59,103 60,103 61,102 62,102 63,101 64,102 65,99 66,96 67,95 68,105 69,110 70,111 71,109 72,105 73,102 74,94 75,92 76,97 77,92 78,88 79,91 80,92 81,82 82,81 83,74 84,88 85,81 86,75 87,74 88,76 89,79 90,62 91,53 92,65 93,52 94,56 95,62 96,61 97,57 98,71 99,73 100,60 101,56 102,62 103,77 104,85 105,87 106,92 107,95 108,100 109,104 110,104 111,105 112,101 113,100 114,100 115,98 116,97 117,98 118,94 119,98 120,98 121,94 122,95 123,93 124,95 125,94 126,91 127,86 128,84 129,82 130,76 131,73 132,71 133,65 134,47 135,35 136,32 137,32 138,27 139,24 140,24 141,24 142,27 143,31 144,36 145,36 146,40 147,35 148,43 149,55 150,73 151,79 152,84 153,86 154,86 155,89 156,95 157,109 158,110 159,111 160,111 161,106 162,105 163,103 164,104 165,104 166,107 167,108 168,105 169,102 170,99 171,96 172,93 173,87 174,83 175,81 176,79 177,77 178,70 179,69 180,56 181,43 182,35 183,28 184,22 185,20 186,17 187,14 188,14 189,29 190,39 191,45 192,36 193,38 194,42 195,47 196,56 197,57 198,61 199,69 200,80 201,89 202,95 203,100 204,109 205,110 206,112 207,111 208,109 209,110 210,111 211,108 212,107 213,109 214,108 215,105 216,100 217,98 218,95 219,88 220,86 221,89 222,87 223,86 224,83 225,81 226,77 227,73 228,71 229,67 230,62 231,56 232,51 233,47 234,49 235,50 236,53 237,57 238,60 239,63 240,64 241,69 242,76 243,78 244,86 245,85 246,96 247,104 248,108 249,113 250,115 251,115 252,117 253,120 254,120 255,119 256,118 257,118 258,118 259,118 260,117 261,116 262,114 263,113 264,113 265,112 266,110 267,108 268,106 269,104 270,101 271,106 272,101 273,102 274,100 275,97 276,93 277,89 278,83 279,79 280,73 281,74 282,75 283,76 284,74 285,77 286,78 287,78 288,80 289,89 290,84 291,79 292,80 293,83 294,92 295,92 296,94 297,99 298,100 299,100 300,97 301,96 302,98 303,99 304,99 305,99 306,99 307,99 308,99 309,98 310,97 311,97 312,99 313,100 314,101 315,100 316,99 317,98 318,95 319,92 320,90 321,87 322,84 323,80 324,78 325,76 326,74 327,74 328,74 329,73 330,72 331,72 332,72 333,70 334,70 335,67 336,71 337,77 338,79 339,83 340,80 341,80 342,84 343,85 344,89 345,93 346,95 347,94 348,94 349,94 350,96 351,95 352,96 353,96 354,97 355,96 356,96 357,95 358,96 359,96 360,95 361,93 362,91 363,90 364,88 365,87 366,89 367,87 368,81 369,75 370,64 371,70 372,75 373,66 374,46 375,43 376,41 377,27 378,27 379,41 380,32 381,28 382,32 383,57 384,65 385,49 386,42 387,48 388,51 389,52 390,61 391,74 392,74 393,76 394,89 395,95 396,104 397,110 398,111 399,109 400,108 401,111 402,109 403,110 404,109 405,106 406,104 407,106 408,105 409,103 410,101 411,100 412,98 413,96 414,93 415,92 416,88 417,88 418,86 419,75 420,57 421,49 422,44 423,39 424,36 425,32 426,34 427,32 428,33 429,33 430,37 431,42 432,49 433,52 434,47 435,52 436,57 437,58 438,71 439,83 440,80 441,84 442,88 443,92 444,107 445,116 446,121 447,120 448,117 449,117 450,113 451,110 452,107 453,104 454,102 455,104 456,102 457,99 458,99 459,99 460,99 461,96 462,90 463,89 464,89 465,81 466,71 467,63 468,61 469,56 " />
</svg>
