<?xml version="1.0" encoding="utf-8" standalone="no"?>
<svg xmlns="http://www.w3.org/2000/svg" xmlns:xlink="http://www.w3.org/1999/xlink" width="500" height="135">
	<!-- Created by: WeatherFlowTempestLogger Version 1.20240617.3 Built on: Jun 17 2024 at 22:43:41 -->
	<clipPath id="GraphRegion"><polygon points="54,14 470,14 470,121 54,121" /></clipPath>
	<style>
		text { font-family: sans-serif; font-size: 12px; fill: black; }
		line { stroke: black; }
		polygon { fill-opacity: 0.5; }
	</style>
	<rect style="fill-opacity:0;stroke:grey;stroke-width:2" width="500" height="135" />
	<text x="54" y="12">Tempest</text>
	<text style="text-anchor:end" x="470" y="12">2024-06-18 05:00:00</text>
	<text style="fill:blue;text-anchor:middle" x="12" y="50%" transform="rotate(270 12,67)">Temperature (52.4°F)</text>
	<text style="fill:green;text-anchor:middle" x="24" y="50%" transform="rotate(270 24,67)">Humidity (81.8%)</text>
	<!-- Humidity -->
	<polygon style="fill:lime;stroke:green;clip-path:url(#GraphRegion)" points="55,120 54,24 55,23 56,21 57,23 58,29 59,32 60,33 61,33 62,34 63,35 64,38 65,31 66,23 67,23 68,23 69,27 70,24 71,20 72,24 73,26 74,32 75,44 76,56 77,62 78,65 79,59 80,60 81,58 82,54 83,54 84,73 85,75 86,75 87,75 88,75 89,75 90,75 91,75 92,75 93,75 94,75 95,75 96,75 97,75 98,75 99,75 100,75 101,75 102,75 103,75 104,75 105,75 106,75 107,75 108,75 109,75 110,75 111,75 112,75 113,75 114,75 115,75 116,75 117,75 118,75 119,75 120,75 121,75 122,75 123,75 124,75 125,75 126,75 127,75 128,75 129,75 130,75 131,75 132,75 133,75 134,75 135,75 136,75 137,75 138,75 139,75 140,75 141,75 142,75 143,75 144,75 145,75 146,75 147,75 148,75 149,75 150,75 151,75 152,75 153,75 154,75 155,75 156,75 157,75 158,75 159,75 160,75 161,75 162,75 163,75 164,75 165,75 166,75 167,75 168,75 169,75 170,75 171,75 172,75 173,75 174,75 175,75 176,75 177,75 178,75 179,75 180,75 181,75 182,75 183,75 184,75 185,75 186,75 187,75 188,75 189,75 190,75 191,75 192,75 193,75 194,75 195,75 196,75 197,75 198,75 199,75 200,75 201,75 202,75 203,75 204,75 205,75 206,75 207,75 208,75 209,75 210,75 211,75 212,75 213,75 214,75 215,75 216,75 217,75 218,75 219,75 220,75 221,75 222,75 223,75 224,75 225,75 226,75 227,75 228,75 229,75 230,75 231,75 232,75 233,75 234,67 235,62 236,54 237,49 238,39 239,36 240,34 241,34 242,37 243,40 244,41 245,42 246,42 247,42 248,38 249,37 250,41 251,41 252,45 253,50 254,53 255,56 256,61 257,69 258,72 259,67 260,78 261,77 262,84 263,89 264,97 265,98 266,85 267,76 268,79 269,86 270,101 271,116 272,120 273,111 274,118 275,121 276,119 277,105 278,95 279,93 280,77 281,55 282,51 283,49 284,40 285,37 286,38 287,35 288,32 289,25 290,15 291,14 292,14 293,17 294,22 295,23 296,29 297,29 298,30 299,35 300,40 301,48 302,53 303,55 304,57 305,52 306,52 307,55 308,58 309,60 310,58 311,61 312,70 313,79 314,81 315,84 316,88 317,86 318,77 319,81 320,78 321,85 322,76 323,85 324,90 325,78 326,69 327,68 328,73 329,71 330,68 331,60 332,60 333,59 334,59 335,55 336,59 337,58 338,57 339,55 340,54 341,54 342,50 343,48 344,45 345,41 346,38 347,36 348,34 349,39 350,48 351,52 352,53 353,53 354,55 355,55 356,53 357,53 358,51 359,48 360,46 361,52 362,51 363,51 364,47 365,50 366,48 367,43 368,87 369,99 370,96 371,91 372,87 373,89 374,80 375,66 376,62 377,58 378,57 379,52 380,35 381,35 382,30 383,31 384,120" />
	<line x1="52" y1="14" x2="472" y2="14"/>
	<text style="fill:blue;text-anchor:end;dominant-baseline:middle" x="52" y="14">66.5</text>
	<text style="fill:green;dominant-baseline:middle" x="472" y="14">86.3</text>
	<line x1="52" y1="121" x2="472" y2="121"/>
	<text style="fill:blue;text-anchor:end;dominant-baseline:middle" x="52" y="121">47.8</text>
	<text style="fill:green;dominant-baseline:middle" x="472" y="121">40.8</text>
	<line x1="54" y1="14" x2="54" y2="121"/>
	<line x1="470" y1="14" x2="470" y2="121"/>
	<line style="stroke-dasharray:1" x1="52" y1="40" x2="472" y2="40" />
	<text style="fill:blue;text-anchor:end;dominant-baseline:middle" x="52" y="40">61.9</text>
	<text style="fill:green;dominant-baseline:middle" x="472" y="40">74.9</text>
	<line style="stroke-dasharray:1" x1="52" y1="66" x2="472" y2="66" />
	<text style="fill:blue;text-anchor:end;dominant-baseline:middle" x="52" y="66">57.2</text>
	<text style="fill:green;dominant-baseline:middle" x="472" y="66">63.6</text>
	<line style="stroke-dasharray:1" x1="52" y1="92" x2="472" y2="92" />
	<text style="fill:blue;text-anchor:end;dominant-baseline:middle" x="52" y="92">52.5</text>
	<text style="fill:green;dominant-baseline:middle" x="472" y="92">52.2</text>
	<line style="stroke-dasharray:1" x1="64" y1="14" x2="64" y2="123" />
	<text style="text-anchor:middle" x="88" y="133">Mon</text>
	<line style="stroke-dasharray:1" x1="112" y1="14" x2="112" y2="123" />
	<text style="text-anchor:middle" x="136" y="133">Sun</text>
	<line style="stroke:red" x1="160" y1="14" x2="160" y2="123" />
	<text style="text-anchor:middle" x="184" y="133">Sat</text>
	<line style="stroke-dasharray:1" x1="208" y1="14" x2="208" y2="123" />
	<text style="text-anchor:middle" x="232" y="133">Fri</text>
	<line style="stroke-dasharray:1" x1="256" y1="14" x2="256" y2="123" />
	<text style="text-anchor:middle" x="280" y="133">Thu</text>
	<line style="stroke-dasharray:1" x1="304" y1="14" x2="304" y2="123" />
	<text style="text-anchor:middle" x="328" y="133">Wed</text>
	<line style="stroke-dasharray:1" x1="352" y1="14" x2="352" y2="123" />
	<text style="text-anchor:middle" x="376" y="133">Tue</text>
	<polygon style="fill:red;stroke:red;fill-opacity:1;" points="51,121 57,118 57,124" />
	<!-- Temperature -->
	<polyline style="fill:none;stroke:blue;clip-path:url(#GraphRegion)" points="55,95 56,96 57,93 58,89 59,87 60,86 61,84 62,82 63,80 64,78 65,77 66,78 67,79 68,79 69,76 70,74 71,73 72,69 73,64 74,62 75,59 76,58 77,57 78,57 79,60 80,60 81,61 82,63 83,63 84,39 85,38 86,38 87,38 88,38 89,38 90,38 91,38 92,38 93,38 94,38 95,38 96,38 97,38 98,38 99,38 100,38 101,38 102,38 103,38 104,38 105,38 106,38 107,38 108,38 109,38 110,38 111,38 112,38 113,38 114,38 115,38 116,38 117,38 118,38 119,38 120,38 121,38 122,38 123,38 124,38 125,38 126,38 127,38 128,38 129,38 130,38 131,38 132,38 133,38 134,38 135,38 136,38 137,38 138,38 139,38 140,38 141,38 142,38 143,38 144,38 145,38 146,38 147,38 148,38 149,38 150,38 151,38 152,38 153,38 154,38 155,38 156,38 157,38 158,38 159,38 160,38 161,38 162,38 163,38 164,38 165,38 166,38 167,38 168,38 169,38 170,38 171,38 172,38 173,38 174,38 175,38 176,38 177,38 178,38 179,38 180,38 181,38 182,38 183,38 184,38 185,38 186,38 187,38 188,38 189,38 190,38 191,38 192,38 193,38 194,38 195,38 196,38 197,38 198,38 199,38 200,38 201,38 202,38 203,38 204,38 205,38 206,38 207,38 208,38 209,38 210,38 211,38 212,38 213,38 214,38 215,38 216,38 217,38 218,38 219,38 220,38 221,38 222,38 223,38 224,38 225,38 226,38 227,38 228,38 229,38 230,38 231,38 232,38 233,38 234,53 235,61 236,70 237,77 238,86 239,91 240,96 241,100 242,100 243,100 244,100 245,103 246,102 247,100 248,100 249,100 250,102 251,102 252,97 253,91 254,88 255,86 256,82 257,77 258,72 259,66 260,57 261,52 262,43 263,39 264,36 265,39 266,36 267,39 268,35 269,32 270,26 271,16 272,20 273,14 274,15 275,21 276,25 277,30 278,33 279,37 280,50 281,61 282,66 283,69 284,77 285,81 286,84 287,88 288,92 289,105 290,116 291,119 292,121 293,119 294,117 295,115 296,108 297,108 298,106 299,104 300,100 301,96 302,95 303,90 304,86 305,84 306,82 307,79 308,75 309,71 310,67 311,64 312,58 313,51 314,49 315,45 316,43 317,39 318,39 319,40 320,41 321,42 322,44 323,43 324,43 325,50 326,55 327,59 328,59 329,62 330,63 331,64 332,67 333,74 334,77 335,84 336,83 337,86 338,89 339,91 340,92 341,92 342,92 343,92 344,93 345,98 346,98 347,97 348,99 349,95 350,87 351,83 352,81 353,78 354,78 355,79 356,79 357,79 358,80 359,80 360,79 361,74 362,72 363,69 364,66 365,63 366,64 367,65 368,22 369,17 370,19 371,22 372,24 373,21 374,21 375,24 376,31 377,40 378,46 379,56 380,67 381,67 382,72 383,72 " />
</svg>
