<?xml version="1.0" encoding="utf-8" standalone="no"?>
<svg xmlns="http://www.w3.org/2000/svg" xmlns:xlink="http://www.w3.org/1999/xlink" width="500" height="135">
	<!-- Created by: WeatherFlowTempestLogger Version 1.20240617.3 Built on: Jun 17 2024 at 22:43:41 -->
	<clipPath id="GraphRegion"><polygon points="54,14 470,14 470,121 54,121" /></clipPath>
	<style>
		text { font-family: sans-serif; font-size: 12px; fill: black; }
		line { stroke: black; }
		polygon { fill-opacity: 0.5; }
	</style>
	<rect style="fill-opacity:0;stroke:grey;stroke-width:2" width="500" height="135" />
	<text x="54" y="12">Tempest</text>
	<text style="text-anchor:end" x="470" y="12">2024-06-18 06:30:00</text>
	<text style="fill:blue;text-anchor:middle" x="12" y="50%" transform="rotate(270 12,67)">Temperature (52.7°F)</text>
	<text style="fill:green;text-anchor:middle" x="24" y="50%" transform="rotate(270 24,67)">Humidity (80.0%)</text>
	<!-- Humidity -->
	<polygon style="fill:lime;stroke:green;clip-path:url(#GraphRegion)" points="55,120 54,28 55,26 56,25 57,24 58,23 59,21 60,23 61,29 62,32 63,33 64,33 65,34 66,35 67,38 68,31 69,23 70,23 71,23 72,27 73,24 74,20 75,24 76,26 77,32 78,44 79,56 80,62 81,65 82,59 83,60 84,58 85,54 86,54 87,73 88,75 89,75 90,75 91,75 92,75 93,75 94,75 95,75 96,75 97,75 98,75 99,75 100,75 101,75 102,75 103,75 104,75 105,75 106,75 107,75 108,75 109,75 110,75 111,75 112,75 113,75 114,75 115,75 116,75 117,75 118,75 119,75 120,75 121,75 122,75 123,75 124,75 125,75 126,75 127,75 128,75 129,75 130,75 131,75 132,75 133,75 134,75 135,75 136,75 137,75 138,75 139,75 140,75 141,75 142,75 143,75 144,75 145,75 146,75 147,75 148,75 149,75 150,75 151,75 152,75 153,75 154,75 155,75 156,75 157,75 158,75 159,75 160,75 161,75 162,75 163,75 164,75 165,75 166,75 167,75 168,75 169,75 170,75 171,75 172,75 173,75 174,75 175,75 176,75 177,75 178,75 179,75 180,75 181,75 182,75 183,75 184,75 185,75 186,75 187,75 188,75 189,75 190,75 191,75 192,75 193,75 194,75 195,75 196,75 197,75 198,75 199,75 200,75 201,75 202,75 203,75 204,75 205,75 206,75 207,75 208,75 209,75 210,75 211,75 212,75 213,75 214,75 215,75 216,75 217,75 218,75 219,75 220,75 221,75 222,75 223,75 224,75 225,75 226,75 227,75 228,75 229,75 230,75 231,75 232,75 233,75 234,75 235,75 236,75 237,67 238,62 239,54 240,49 241,39 242,36 243,34 244,34 245,37 246,40 247,41 248,42 249,42 250,42 251,38 252,37 253,41 254,41 255,45 256,50 257,53 258,56 259,61 260,69 261,72 262,67 263,78 264,77 265,84 266,89 267,97 268,98 269,85 270,76 271,79 272,86 273,101 274,116 275,120 276,111 277,118 278,121 279,119 280,105 281,95 282,93 283,77 284,55 285,51 286,49 287,40 288,37 289,38 290,35 291,32 292,25 293,15 294,14 295,14 296,17 297,22 298,23 299,29 300,29 301,30 302,35 303,40 304,48 305,53 306,55 307,57 308,52 309,52 310,55 311,58 312,60 313,58 314,61 315,70 316,79 317,81 318,84 319,88 320,86 321,77 322,81 323,78 324,85 325,76 326,85 327,90 328,78 329,69 330,68 331,73 332,71 333,68 334,60 335,60 336,59 337,59 338,55 339,59 340,58 341,57 342,55 343,54 344,54 345,50 346,48 347,45 348,41 349,38 350,36 351,34 352,39 353,48 354,52 355,53 356,53 357,55 358,55 359,53 360,53 361,51 362,48 363,46 364,52 365,51 366,51 367,47 368,50 369,48 370,43 371,87 372,99 373,96 374,91 375,87 376,89 377,80 378,66 379,62 380,58 381,57 382,52 383,35 384,35 385,30 386,31 387,120" />
	<line x1="52" y1="14" x2="472" y2="14"/>
	<text style="fill:blue;text-anchor:end;dominant-baseline:middle" x="52" y="14">66.5</text>
	<text style="fill:green;dominant-baseline:middle" x="472" y="14">86.3</text>
	<line x1="52" y1="121" x2="472" y2="121"/>
	<text style="fill:blue;text-anchor:end;dominant-baseline:middle" x="52" y="121">47.8</text>
	<text style="fill:green;dominant-baseline:middle" x="472" y="121">40.8</text>
	<line x1="54" y1="14" x2="54" y2="121"/>
	<line x1="470" y1="14" x2="470" y2="121"/>
	<line style="stroke-dasharray:1" x1="52" y1="40" x2="472" y2="40" />
	<text style="fill:blue;text-anchor:end;dominant-baseline:middle" x="52" y="40">61.9</text>
	<text style="fill:green;dominant-baseline:middle" x="472" y="40">74.9</text>
	<line style="stroke-dasharray:1" x1="52" y1="66" x2="472" y2="66" />
	<text style="fill:blue;text-anchor:end;dominant-baseline:middle" x="52" y="66">57.2</text>
	<text style="fill:green;dominant-baseline:middle" x="472" y="66">63.6</text>
	<line style="stroke-dasharray:1" x1="52" y1="92" x2="472" y2="92" />
	<text style="fill:blue;text-anchor:end;dominant-baseline:middle" x="52" y="92">52.5</text>
	<text style="fill:green;dominant-baseline:middle" x="472" y="92">52.2</text>
	<line style="stroke-dasharray:1" x1="67" y1="14" x2="67" y2="123" />
	<text style="text-anchor:middle" x="91" y="133">Mon</text>
	<line style="stroke-dasharray:1" x1="115" y1="14" x2="115" y2="123" />
	<text style="text-anchor:middle" x="139" y="133">Sun</text>
	<line style="stroke:red" x1="163" y1="14" x2="163" y2="123" />
	<text style="text-anchor:middle" x="187" y="133">Sat</text>
	<line style="stroke-dasharray:1" x1="211" y1="14" x2="211" y2="123" />
	<text style="text-anchor:middle" x="235" y="133">Fri</text>
	<line style="stroke-dasharray:1" x1="259" y1="14" x2="259" y2="123" />
	<text style="text-anchor:middle" x="283" y="133">Thu</text>
	<line style="stroke-dasharray:1" x1="307" y1="14" x2="307" y2="123" />
	<text style="text-anchor:middle" x="331" y="133">Wed</text>
	<line style="stroke-dasharray:1" x1="355" y1="14" x2="355" y2="123" />
	<text style="text-anchor:middle" x="379" y="133">Tue</text>
	<polygon style="fill:red;stroke:red;fill-opacity:1;" points="51,121 57,118 57,124" />
	<!-- Temperature -->
	<polyline style="fill:none;stroke:blue;clip-path:url(#GraphRegion)" points="55,94 56,94 57,95 58,95 59,96 60,93 61,89 62,87 63,86 64,84 65,82 66,80 67,78 68,77 69,78 70,79 71,79 72,76 73,74 74,73 75,69 76,64 77,62 78,59 79,58 80,57 81,57 82,60 83,60 84,61 85,63 86,63 87,39 88,38 89,38 90,38 91,38 92,38 93,38 94,38 95,38 96,38 97,38 98,38 99,38 100,38 101,38 102,38 103,38 104,38 105,38 106,38 107,38 108,38 109,38 110,38 111,38 112,38 113,38 114,38 115,38 116,38 117,38 118,38 119,38 120,38 121,38 122,38 123,38 124,38 125,38 126,38 127,38 128,38 129,38 130,38 131,38 132,38 133,38 134,38 135,38 136,38 137,38 138,38 139,38 140,38 141,38 142,38 143,38 144,38 145,38 146,38 147,38 148,38 149,38 150,38 151,38 152,38 153,38 154,38 155,38 156,38 157,38 158,38 159,38 160,38 161,38 162,38 163,38 164,38 165,38 166,38 167,38 168,38 169,38 170,38 171,38 172,38 173,38 174,38 175,38 176,38 177,38 178,38 179,38 180,38 181,38 182,38 183,38 184,38 185,38 186,38 187,38 188,38 189,38 190,38 191,38 192,38 193,38 194,38 195,38 196,38 197,38 198,38 199,38 200,38 201,38 202,38 203,38 204,38 205,38 206,38 207,38 208,38 209,38 210,38 211,38 212,38 213,38 214,38 215,38 216,38 217,38 218,38 219,38 220,38 221,38 222,38 223,38 224,38 225,38 226,38 227,38 228,38 229,38 230,38 231,38 232,38 233,38 234,38 235,38 236,38 237,53 238,61 239,70 240,77 241,86 242,91 243,96 244,100 245,100 246,100 247,100 248,103 249,102 250,100 251,100 252,100 253,102 254,102 255,97 256,91 257,88 258,86 259,82 260,77 261,72 262,66 263,57 264,52 265,43 266,39 267,36 268,39 269,36 270,39 271,35 272,32 273,26 274,16 275,20 276,14 277,15 278,21 279,25 280,30 281,33 282,37 283,50 284,61 285,66 286,69 287,77 288,81 289,84 290,88 291,92 292,105 293,116 294,119 295,121 296,119 297,117 298,115 299,108 300,108 301,106 302,104 303,100 304,96 305,95 306,90 307,86 308,84 309,82 310,79 311,75 312,71 313,67 314,64 315,58 316,51 317,49 318,45 319,43 320,39 321,39 322,40 323,41 324,42 325,44 326,43 327,43 328,50 329,55 330,59 331,59 332,62 333,63 334,64 335,67 336,74 337,77 338,84 339,83 340,86 341,89 342,91 343,92 344,92 345,92 346,92 347,93 348,98 349,98 350,97 351,99 352,95 353,87 354,83 355,81 356,78 357,78 358,79 359,79 360,79 361,80 362,80 363,79 364,74 365,72 366,69 367,66 368,63 369,64 370,65 371,22 372,17 373,19 374,22 375,24 376,21 377,21 378,24 379,31 380,40 381,46 382,56 383,67 384,67 385,72 386,72 " />
</svg>
