<?xml version="1.0" encoding="utf-8" standalone="no"?>
<svg xmlns="http://www.w3.org/2000/svg" xmlns:xlink="http://www.w3.org/1999/xlink" width="500" height="135">
	<!-- Created by: WeatherFlowTempestLogger Version 1.20240617.3 Built on: Jun 17 2024 at 22:43:41 -->
	<clipPath id="GraphRegion"><polygon points="70,14 486,14 486,121 70,121" /></clipPath>
	<style>
		text { font-family: sans-serif; font-size: 12px; fill: black; }
		line { stroke: black; }
		polygon { fill-opacity: 0.5; }
		.barometer-label { font-family: Georgia, serif; font-style: italic; font-size: 2147483647px; opacity: 0.5; clip-path: url(#GraphRegion); text-anchor: middle; dominant-baseline: middle; }
	</style>
	<rect style="fill-opacity:0;stroke:grey;stroke-width:2" width="500" height="135" />
	<text x="70" y="12">Tempest</text>
	<text style="text-anchor:end" x="486" y="12">2024-06-18 05:00:00</text>
	<text style="fill:blue;text-anchor:middle" x="12" y="50%" transform="rotate(270 12,67)">Wind Speed (0.0 kn)</text>
	<text style="fill:blue;text-anchor:middle" x="24" y="50%" transform="rotate(270 24,67)">Wind Gust (0.0 kn)</text>
	<text style="fill:green;text-anchor:middle" x="36" y="50%" transform="rotate(270 36,67)">Pressure (0.0 hPa)</text>
	<line x1="68" y1="14" x2="488" y2="14"/>
	<text style="fill:blue;text-anchor:end;dominant-baseline:middle" x="68" y="14">0.0</text>
	<line style="stroke-dasharray:1" x1="68" y1="40" x2="488" y2="40" />
	<text style="fill:blue;text-anchor:end;dominant-baseline:middle" x="68" y="40">0.0</text>
	<line style="stroke-dasharray:1" x1="68" y1="66" x2="488" y2="66" />
	<text style="fill:blue;text-anchor:end;dominant-baseline:middle" x="68" y="66">0.0</text>
	<line style="stroke-dasharray:1" x1="68" y1="92" x2="488" y2="92" />
	<text style="fill:blue;text-anchor:end;dominant-baseline:middle" x="68" y="92">0.0</text>
	<line x1="68" y1="121" x2="488" y2="121"/>
	<text style="fill:blue;text-anchor:end;dominant-baseline:middle" x="68" y="121">0.0</text>
	<line x1="70" y1="14" x2="70" y2="121"/>
	<line style="stroke-dasharray:1" x1="80" y1="14" x2="80" y2="123" />
	<text style="text-anchor:middle" x="104" y="133">Mon</text>
	<line style="stroke-dasharray:1" x1="128" y1="14" x2="128" y2="123" />
	<text style="text-anchor:middle" x="152" y="133">Sun</text>
	<line style="stroke:red" x1="176" y1="14" x2="176" y2="123" />
	<text style="text-anchor:middle" x="200" y="133">Sat</text>
	<line style="stroke-dasharray:1" x1="224" y1="14" x2="224" y2="123" />
	<text style="text-anchor:middle" x="248" y="133">Fri</text>
	<line style="stroke-dasharray:1" x1="272" y1="14" x2="272" y2="123" />
	<text style="text-anchor:middle" x="296" y="133">Thu</text>
	<line style="stroke-dasharray:1" x1="320" y1="14" x2="320" y2="123" />
	<text style="text-anchor:middle" x="344" y="133">Wed</text>
	<line style="stroke-dasharray:1" x1="368" y1="14" x2="368" y2="123" />
	<text style="text-anchor:middle" x="392" y="133">Tue</text>
	<line x1="486" y1="14" x2="486" y2="121"/>
	<polygon style="fill:red;stroke:red;fill-opacity:1;" points="67,121 73,118 73,124" />
	<!-- ApparentWindSpeed -->
	<polyline style="fill:none;stroke:blue;clip-path:url(#GraphRegion)" points="71,0 72,0 73,0 74,0 75,0 76,0 77,0 78,0 79,0 80,0 81,0 82,0 83,2147483647 84,2147483647 85,2147483647 86,2147483647 87,2147483647 88,2147483647 89,2147483647 90,2147483647 91,2147483647 92,2147483647 93,2147483647 94,2147483647 95,2147483647 96,2147483647 97,2147483647 98,2147483647 99,2147483647 100,2147483647 101,2147483647 102,2147483647 103,2147483647 104,2147483647 105,2147483647 106,2147483647 107,2147483647 108,2147483647 109,2147483647 110,2147483647 111,2147483647 112,2147483647 113,2147483647 114,2147483647 115,2147483647 116,2147483647 117,2147483647 118,2147483647 119,2147483647 120,2147483647 121,2147483647 122,2147483647 123,2147483647 124,2147483647 125,2147483647 126,2147483647 127,2147483647 128,2147483647 129,2147483647 130,2147483647 131,2147483647 132,2147483647 133,2147483647 134,2147483647 135,2147483647 136,2147483647 137,2147483647 138,2147483647 139,2147483647 140,2147483647 141,2147483647 142,2147483647 143,2147483647 144,2147483647 145,2147483647 146,2147483647 147,2147483647 148,2147483647 149,2147483647 150,2147483647 151,2147483647 152,2147483647 153,2147483647 154,2147483647 155,2147483647 156,2147483647 157,2147483647 158,2147483647 159,2147483647 160,2147483647 161,2147483647 162,2147483647 163,2147483647 164,2147483647 165,2147483647 166,2147483647 167,2147483647 168,2147483647 169,2147483647 170,2147483647 171,2147483647 172,2147483647 173,2147483647 174,2147483647 175,2147483647 176,2147483647 177,2147483647 178,2147483647 179,2147483647 180,2147483647 181,2147483647 182,2147483647 183,2147483647 184,2147483647 185,2147483647 186,2147483647 187,2147483647 188,2147483647 189,2147483647 190,2147483647 191,2147483647 192,2147483647 193,2147483647 194,2147483647 195,2147483647 196,2147483647 197,2147483647 198,2147483647 199,2147483647 200,2147483647 201,2147483647 202,2147483647 203,2147483647 204,2147483647 205,2147483647 206,2147483647 207,2147483647 208,2147483647 209,2147483647 210,2147483647 211,2147483647 212,2147483647 213,2147483647 214,2147483647 215,2147483647 216,2147483647 217,2147483647 218,2147483647 219,2147483647 220,2147483647 221,2147483647 222,2147483647 223,2147483647 224,2147483647 225,2147483647 226,2147483647 227,2147483647 228,2147483647 229,2147483647 230,2147483647 231,2147483647 232,2147483647 233,2147483647 234,2147483647 235,2147483647 236,2147483647 237,2147483647 238,2147483647 239,2147483647 240,2147483647 241,2147483647 242,2147483647 243,2147483647 244,2147483647 245,2147483647 246,2147483647 247,2147483647 248,2147483647 249,2147483647 250,2147483647 251,2147483647 252,2147483647 253,2147483647 254,2147483647 255,2147483647 256,2147483647 257,2147483647 258,2147483647 259,2147483647 260,2147483647 261,2147483647 262,2147483647 263,2147483647 264,2147483647 265,2147483647 266,2147483647 267,2147483647 268,2147483647 269,2147483647 270,2147483647 271,2147483647 272,2147483647 273,2147483647 274,2147483647 275,2147483647 276,2147483647 277,2147483647 278,2147483647 279,2147483647 280,2147483647 281,2147483647 282,2147483647 283,2147483647 284,2147483647 285,2147483647 286,2147483647 287,2147483647 288,2147483647 289,2147483647 290,2147483647 291,2147483647 292,2147483647 293,2147483647 294,2147483647 295,2147483647 296,2147483647 297,2147483647 298,2147483647 299,2147483647 300,2147483647 301,2147483647 302,2147483647 303,2147483647 304,2147483647 305,2147483647 306,2147483647 307,2147483647 308,2147483647 309,2147483647 310,2147483647 311,2147483647 312,2147483647 313,2147483647 314,2147483647 315,2147483647 316,2147483647 317,2147483647 318,2147483647 319,2147483647 320,2147483647 321,2147483647 322,2147483647 323,2147483647 324,2147483647 325,2147483647 326,2147483647 327,2147483647 328,2147483647 329,2147483647 330,2147483647 331,2147483647 332,2147483647 333,2147483647 334,2147483647 335,2147483647 336,2147483647 337,2147483647 338,2147483647 339,2147483647 340,2147483647 341,2147483647 342,2147483647 343,2147483647 344,2147483647 345,2147483647 346,2147483647 347,2147483647 348,2147483647 349,2147483647 350,2147483647 351,2147483647 352,2147483647 353,2147483647 354,2147483647 355,2147483647 356,2147483647 357,2147483647 358,2147483647 359,2147483647 360,2147483647 361,2147483647 362,2147483647 363,2147483647 364,2147483647 365,2147483647 366,2147483647 367,2147483647 368,2147483647 369,2147483647 370,2147483647 371,2147483647 372,2147483647 373,2147483647 374,2147483647 375,2147483647 376,2147483647 377,2147483647 378,2147483647 379,2147483647 380,2147483647 381,2147483647 382,2147483647 383,2147483647 384,2147483647 385,2147483647 386,2147483647 387,2147483647 388,2147483647 389,2147483647 390,2147483647 391,2147483647 392,2147483647 393,2147483647 394,2147483647 395,2147483647 396,2147483647 397,2147483647 398,2147483647 399,2147483647 " />
</svg>
