<?xml version="1.0" encoding="utf-8" standalone="no"?>
<svg xmlns="http://www.w3.org/2000/svg" xmlns:xlink="http://www.w3.org/1999/xlink" width="500" height="135">
	<!-- Created by: WeatherFlowTempestLogger Version 1.20240618.1 Built on: Jun 18 2024 at 07:05:16 -->
	<clipPath id="GraphRegion"><polygon points="54,14 470,14 470,121 54,121" /></clipPath>
	<style>
		text { font-family: sans-serif; font-size: 12px; fill: black; }
		line { stroke: black; }
		polygon { fill-opacity: 0.5; }
	</style>
	<rect style="fill-opacity:0;stroke:grey;stroke-width:2" width="500" height="135" />
	<text x="54" y="12">Tempest</text>
	<text style="text-anchor:end" x="470" y="12">2024-06-18 07:30:00</text>
	<text style="fill:blue;text-anchor:middle" x="12" y="50%" transform="rotate(270 12,67)">Temperature (53.0°F)</text>
	<text style="fill:green;text-anchor:middle" x="24" y="50%" transform="rotate(270 24,67)">Humidity (79.2%)</text>
	<!-- Humidity -->
	<polygon style="fill:lime;stroke:green;clip-path:url(#GraphRegion)" points="55,120 54,30 55,31 56,28 57,26 58,25 59,24 60,23 61,21 62,23 63,29 64,32 65,33 66,33 67,34 68,35 69,38 70,31 71,23 72,23 73,23 74,27 75,24 76,20 77,24 78,26 79,32 80,44 81,56 82,62 83,65 84,59 85,60 86,58 87,54 88,54 89,73 90,75 91,75 92,75 93,75 94,75 95,75 96,75 97,75 98,75 99,75 100,75 101,75 102,75 103,75 104,75 105,75 106,75 107,75 108,75 109,75 110,75 111,75 112,75 113,75 114,75 115,75 116,75 117,75 118,75 119,75 120,75 121,75 122,75 123,75 124,75 125,75 126,75 127,75 128,75 129,75 130,75 131,75 132,75 133,75 134,75 135,75 136,75 137,75 138,75 139,75 140,75 141,75 142,75 143,75 144,75 145,75 146,75 147,75 148,75 149,75 150,75 151,75 152,75 153,75 154,75 155,75 156,75 157,75 158,75 159,75 160,75 161,75 162,75 163,75 164,75 165,75 166,75 167,75 168,75 169,75 170,75 171,75 172,75 173,75 174,75 175,75 176,75 177,75 178,75 179,75 180,75 181,75 182,75 183,75 184,75 185,75 186,75 187,75 188,75 189,75 190,75 191,75 192,75 193,75 194,75 195,75 196,75 197,75 198,75 199,75 200,75 201,75 202,75 203,75 204,75 205,75 206,75 207,75 208,75 209,75 210,75 211,75 212,75 213,75 214,75 215,75 216,75 217,75 218,75 219,75 220,75 221,75 222,75 223,75 224,75 225,75 226,75 227,75 228,75 229,75 230,75 231,75 232,75 233,75 234,75 235,75 236,75 237,75 238,75 239,67 240,62 241,54 242,49 243,39 244,36 245,34 246,34 247,37 248,40 249,41 250,42 251,42 252,42 253,38 254,37 255,41 256,41 257,45 258,50 259,53 260,56 261,61 262,69 263,72 264,67 265,78 266,77 267,84 268,89 269,97 270,98 271,85 272,76 273,79 274,86 275,101 276,116 277,120 278,111 279,118 280,121 281,119 282,105 283,95 284,93 285,77 286,55 287,51 288,49 289,40 290,37 291,38 292,35 293,32 294,25 295,15 296,14 297,14 298,17 299,22 300,23 301,29 302,29 303,30 304,35 305,40 306,48 307,53 308,55 309,57 310,52 311,52 312,55 313,58 314,60 315,58 316,61 317,70 318,79 319,81 320,84 321,88 322,86 323,77 324,81 325,78 326,85 327,76 328,85 329,90 330,78 331,69 332,68 333,73 334,71 335,68 336,60 337,60 338,59 339,59 340,55 341,59 342,58 343,57 344,55 345,54 346,54 347,50 348,48 349,45 350,41 351,38 352,36 353,34 354,39 355,48 356,52 357,53 358,53 359,55 360,55 361,53 362,53 363,51 364,48 365,46 366,52 367,51 368,51 369,47 370,50 371,48 372,43 373,87 374,99 375,96 376,91 377,87 378,89 379,80 380,66 381,62 382,58 383,57 384,52 385,35 386,35 387,30 388,31 389,120" />
	<line x1="52" y1="14" x2="472" y2="14"/>
	<text style="fill:blue;text-anchor:end;dominant-baseline:middle" x="52" y="14">66.5</text>
	<text style="fill:green;dominant-baseline:middle" x="472" y="14">86.3</text>
	<line x1="52" y1="121" x2="472" y2="121"/>
	<text style="fill:blue;text-anchor:end;dominant-baseline:middle" x="52" y="121">47.8</text>
	<text style="fill:green;dominant-baseline:middle" x="472" y="121">40.8</text>
	<line x1="54" y1="14" x2="54" y2="121"/>
	<line x1="470" y1="14" x2="470" y2="121"/>
	<line style="stroke-dasharray:1" x1="52" y1="40" x2="472" y2="40" />
	<text style="fill:blue;text-anchor:end;dominant-baseline:middle" x="52" y="40">61.9</text>
	<text style="fill:green;dominant-baseline:middle" x="472" y="40">74.9</text>
	<line style="stroke-dasharray:1" x1="52" y1="66" x2="472" y2="66" />
	<text style="fill:blue;text-anchor:end;dominant-baseline:middle" x="52" y="66">57.2</text>
	<text style="fill:green;dominant-baseline:middle" x="472" y="66">63.6</text>
	<line style="stroke-dasharray:1" x1="52" y1="92" x2="472" y2="92" />
	<text style="fill:blue;text-anchor:end;dominant-baseline:middle" x="52" y="92">52.5</text>
	<text style="fill:green;dominant-baseline:middle" x="472" y="92">52.2</text>
	<line style="stroke-dasharray:1" x1="69" y1="14" x2="69" y2="123" />
	<text style="text-anchor:middle" x="93" y="133">Mon</text>
	<line style="stroke-dasharray:1" x1="117" y1="14" x2="117" y2="123" />
	<text style="text-anchor:middle" x="141" y="133">Sun</text>
	<line style="stroke:red" x1="165" y1="14" x2="165" y2="123" />
	<text style="text-anchor:middle" x="189" y="133">Sat</text>
	<line style="stroke-dasharray:1" x1="213" y1="14" x2="213" y2="123" />
	<text style="text-anchor:middle" x="237" y="133">Fri</text>
	<line style="stroke-dasharray:1" x1="261" y1="14" x2="261" y2="123" />
	<text style="text-anchor:middle" x="285" y="133">Thu</text>
	<line style="stroke-dasharray:1" x1="309" y1="14" x2="309" y2="123" />
	<text style="text-anchor:middle" x="333" y="133">Wed</text>
	<line style="stroke-dasharray:1" x1="357" y1="14" x2="357" y2="123" />
	<text style="text-anchor:middle" x="381" y="133">Tue</text>
	<polygon style="fill:red;stroke:red;fill-opacity:1;" points="51,121 57,118 57,124" />
	<!-- Temperature -->
	<polyline style="fill:none;stroke:blue;clip-path:url(#GraphRegion)" points="55,91 56,93 57,94 58,94 59,95 60,95 61,96 62,93 63,89 64,87 65,86 66,84 67,82 68,80 69,78 70,77 71,78 72,79 73,79 74,76 75,74 76,73 77,69 78,64 79,62 80,59 81,58 82,57 83,57 84,60 85,60 86,61 87,63 88,63 89,39 90,38 91,38 92,38 93,38 94,38 95,38 96,38 97,38 98,38 99,38 100,38 101,38 102,38 103,38 104,38 105,38 106,38 107,38 108,38 109,38 110,38 111,38 112,38 113,38 114,38 115,38 116,38 117,38 118,38 119,38 120,38 121,38 122,38 123,38 124,38 125,38 126,38 127,38 128,38 129,38 130,38 131,38 132,38 133,38 134,38 135,38 136,38 137,38 138,38 139,38 140,38 141,38 142,38 143,38 144,38 145,38 146,38 147,38 148,38 149,38 150,38 151,38 152,38 153,38 154,38 155,38 156,38 157,38 158,38 159,38 160,38 161,38 162,38 163,38 164,38 165,38 166,38 167,38 168,38 169,38 170,38 171,38 172,38 173,38 174,38 175,38 176,38 177,38 178,38 179,38 180,38 181,38 182,38 183,38 184,38 185,38 186,38 187,38 188,38 189,38 190,38 191,38 192,38 193,38 194,38 195,38 196,38 197,38 198,38 199,38 200,38 201,38 202,38 203,38 204,38 205,38 206,38 207,38 208,38 209,38 210,38 211,38 212,38 213,38 214,38 215,38 216,38 217,38 218,38 219,38 220,38 221,38 222,38 223,38 224,38 225,38 226,38 227,38 228,38 229,38 230,38 231,38 232,38 233,38 234,38 235,38 236,38 237,38 238,38 239,53 240,61 241,70 242,77 243,86 244,91 245,96 246,100 247,100 248,100 249,100 250,103 251,102 252,100 253,100 254,100 255,102 256,102 257,97 258,91 259,88 260,86 261,82 262,77 263,72 264,66 265,57 266,52 267,43 268,39 269,36 270,39 271,36 272,39 273,35 274,32 275,26 276,16 277,20 278,14 279,15 280,21 281,25 282,30 283,33 284,37 285,50 286,61 287,66 288,69 289,77 290,81 291,84 292,88 293,92 294,105 295,116 296,119 297,121 298,119 299,117 300,115 301,108 302,108 303,106 304,104 305,100 306,96 307,95 308,90 309,86 310,84 311,82 312,79 313,75 314,71 315,67 316,64 317,58 318,51 319,49 320,45 321,43 322,39 323,39 324,40 325,41 326,42 327,44 328,43 329,43 330,50 331,55 332,59 333,59 334,62 335,63 336,64 337,67 338,74 339,77 340,84 341,83 342,86 343,89 344,91 345,92 346,92 347,92 348,92 349,93 350,98 351,98 352,97 353,99 354,95 355,87 356,83 357,81 358,78 359,78 360,79 361,79 362,79 363,80 364,80 365,79 366,74 367,72 368,69 369,66 370,63 371,64 372,65 373,22 374,17 375,19 376,22 377,24 378,21 379,21 380,24 381,31 382,40 383,46 384,56 385,67 386,67 387,72 388,72 " />
</svg>
