<?xml version="1.0" encoding="utf-8" standalone="no"?>
<svg xmlns="http://www.w3.org/2000/svg" xmlns:xlink="http://www.w3.org/1999/xlink" width="500" height="135">
	<!-- Created by: WeatherFlowTempestLogger Version 1.20240618.2 Built on: Jun 18 2024 at 07:41:14 -->
	<clipPath id="GraphRegion"><polygon points="54,14 470,14 470,121 54,121" /></clipPath>
	<style>
		text { font-family: sans-serif; font-size: 12px; fill: black; }
		line { stroke: black; }
		polygon { fill-opacity: 0.5; }
	</style>
	<rect style="fill-opacity:0;stroke:grey;stroke-width:2" width="500" height="135" />
	<text x="54" y="12">Tempest Temperature</text>
	<text style="text-anchor:end" x="470" y="12">2024-06-18 23:04:37</text>
	<text style="fill:blue;text-anchor:middle" x="12" y="50%" transform="rotate(270 12,67)">Temperature (56.4°F)</text>
	<text style="fill:green;text-anchor:middle" x="24" y="50%" transform="rotate(270 24,67)">Humidity (80.2%)</text>
	<!-- Humidity -->
	<polygon style="fill:lime;stroke:green;clip-path:url(#GraphRegion)" points="55,120 54,30 55,35 56,36 57,41 58,44 59,49 60,55 61,58 62,57 63,56 64,61 65,64 66,69 67,70 68,75 69,82 70,80 71,86 72,92 73,99 74,102 75,105 76,106 77,106 78,110 79,109 80,109 81,108 82,109 83,109 84,109 85,112 86,114 87,114 88,113 89,115 90,117 91,118 92,121 93,120 94,119 95,113 96,111 97,111 98,107 99,110 100,115 101,119 102,118 103,117 104,111 105,110 106,114 107,111 108,114 109,118 110,108 111,112 112,120 113,107 114,104 115,103 116,108 117,115 118,108 119,96 120,98 121,104 122,108 123,110 124,110 125,112 126,107 127,108 128,117 129,115 130,115 131,116 132,114 133,117 134,120 135,120 136,115 137,116 138,107 139,100 140,101 141,99 142,92 143,81 144,84 145,87 146,97 147,110 148,116 149,106 150,79 151,81 152,84 153,87 154,84 155,89 156,95 157,96 158,97 159,93 160,93 161,90 162,87 163,83 164,82 165,80 166,81 167,85 168,83 169,83 170,86 171,88 172,84 173,84 174,92 175,90 176,87 177,91 178,94 179,89 180,80 181,75 182,75 183,81 184,78 185,71 186,72 187,67 188,70 189,71 190,78 191,76 192,71 193,73 194,71 195,63 196,64 197,64 198,68 199,77 200,68 201,66 202,69 203,66 204,67 205,66 206,55 207,52 208,51 209,45 210,41 211,41 212,38 213,36 214,38 215,35 216,33 217,31 218,30 219,25 220,25 221,23 222,19 223,19 224,22 225,22 226,34 227,46 228,46 229,44 230,43 231,43 232,43 233,41 234,39 235,38 236,38 237,37 238,36 239,37 240,35 241,32 242,31 243,33 244,35 245,36 246,36 247,35 248,35 249,35 250,34 251,32 252,32 253,31 254,30 255,30 256,31 257,28 258,26 259,27 260,26 261,27 262,27 263,26 264,26 265,26 266,25 267,24 268,24 269,24 270,24 271,23 272,22 273,24 274,24 275,22 276,22 277,22 278,22 279,20 280,22 281,22 282,20 283,19 284,19 285,17 286,15 287,15 288,16 289,20 290,22 291,24 292,23 293,26 294,29 295,31 296,31 297,33 298,34 299,35 300,37 301,37 302,37 303,37 304,37 305,38 306,37 307,38 308,38 309,38 310,38 311,38 312,38 313,39 314,38 315,38 316,39 317,38 318,40 319,40 320,40 321,41 322,40 323,40 324,42 325,42 326,41 327,42 328,41 329,41 330,42 331,46 332,46 333,49 334,48 335,47 336,47 337,42 338,38 339,30 340,27 341,25 342,25 343,24 344,18 345,19 346,19 347,21 348,21 349,22 350,22 351,22 352,23 353,22 354,21 355,21 356,20 357,20 358,22 359,23 360,25 361,27 362,28 363,30 364,31 365,31 366,31 367,28 368,24 369,21 370,18 371,14 372,14 373,15 374,16 375,18 376,18 377,21 378,21 379,25 380,24 381,25 382,24 383,23 384,21 385,21 386,23 387,26 388,30 389,33 390,34 391,34 392,34 393,36 394,38 395,46 396,55 397,55 398,57 399,52 400,59 401,63 402,74 403,74 404,77 405,81 406,78 407,81 408,81 409,82 410,88 411,89 412,90 413,91 414,92 415,93 416,94 417,96 418,93 419,91 420,89 421,81 422,81 423,81 424,80 425,79 426,82 427,86 428,85 429,85 430,83 431,81 432,78 433,78 434,79 435,81 436,82 437,82 438,77 439,70 440,71 441,73 442,71 443,81 444,78 445,73 446,72 447,73 448,72 449,74 450,99 451,110 452,110 453,110 454,110 455,110 456,110 457,110 458,110 459,110 460,110 461,110 462,110 463,110 464,110 465,110 466,110 467,110 468,110 469,110 469,120" />
	<line x1="52" y1="14" x2="472" y2="14"/>
	<text style="fill:blue;text-anchor:end;dominant-baseline:middle" x="52" y="14">64.5</text>
	<text style="fill:green;dominant-baseline:middle" x="472" y="14">84.2</text>
	<line x1="52" y1="121" x2="472" y2="121"/>
	<text style="fill:blue;text-anchor:end;dominant-baseline:middle" x="52" y="121">52.1</text>
	<text style="fill:green;dominant-baseline:middle" x="472" y="121">57.4</text>
	<line x1="54" y1="14" x2="54" y2="121"/>
	<line x1="470" y1="14" x2="470" y2="121"/>
	<line style="stroke-dasharray:1" x1="52" y1="40" x2="472" y2="40" />
	<text style="fill:blue;text-anchor:end;dominant-baseline:middle" x="52" y="40">61.4</text>
	<text style="fill:green;dominant-baseline:middle" x="472" y="40">77.5</text>
	<line style="stroke-dasharray:1" x1="52" y1="66" x2="472" y2="66" />
	<text style="fill:blue;text-anchor:end;dominant-baseline:middle" x="52" y="66">58.3</text>
	<text style="fill:green;dominant-baseline:middle" x="472" y="66">70.8</text>
	<line style="stroke-dasharray:1" x1="52" y1="92" x2="472" y2="92" />
	<text style="fill:blue;text-anchor:end;dominant-baseline:middle" x="52" y="92">55.2</text>
	<text style="fill:green;dominant-baseline:middle" x="472" y="92">64.1</text>
	<line style="stroke-dasharray:1" x1="66" y1="14" x2="66" y2="123" />
	<text style="text-anchor:middle" x="66" y="133">22</text>
	<line style="stroke-dasharray:1" x1="78" y1="14" x2="78" y2="123" />
	<line style="stroke-dasharray:1" x1="90" y1="14" x2="90" y2="123" />
	<text style="text-anchor:middle" x="90" y="133">20</text>
	<line style="stroke-dasharray:1" x1="102" y1="14" x2="102" y2="123" />
	<line style="stroke-dasharray:1" x1="114" y1="14" x2="114" y2="123" />
	<text style="text-anchor:middle" x="114" y="133">18</text>
	<line style="stroke-dasharray:1" x1="126" y1="14" x2="126" y2="123" />
	<line style="stroke-dasharray:1" x1="138" y1="14" x2="138" y2="123" />
	<text style="text-anchor:middle" x="138" y="133">16</text>
	<line style="stroke-dasharray:1" x1="150" y1="14" x2="150" y2="123" />
	<line style="stroke-dasharray:1" x1="162" y1="14" x2="162" y2="123" />
	<text style="text-anchor:middle" x="162" y="133">14</text>
	<line style="stroke-dasharray:1" x1="174" y1="14" x2="174" y2="123" />
	<line style="stroke-dasharray:1" x1="186" y1="14" x2="186" y2="123" />
	<text style="text-anchor:middle" x="186" y="133">12</text>
	<line style="stroke-dasharray:1" x1="198" y1="14" x2="198" y2="123" />
	<line style="stroke-dasharray:1" x1="210" y1="14" x2="210" y2="123" />
	<text style="text-anchor:middle" x="210" y="133">10</text>
	<line style="stroke-dasharray:1" x1="222" y1="14" x2="222" y2="123" />
	<line style="stroke-dasharray:1" x1="234" y1="14" x2="234" y2="123" />
	<text style="text-anchor:middle" x="234" y="133">8</text>
	<line style="stroke-dasharray:1" x1="246" y1="14" x2="246" y2="123" />
	<line style="stroke-dasharray:1" x1="258" y1="14" x2="258" y2="123" />
	<text style="text-anchor:middle" x="258" y="133">6</text>
	<line style="stroke-dasharray:1" x1="270" y1="14" x2="270" y2="123" />
	<line style="stroke-dasharray:1" x1="282" y1="14" x2="282" y2="123" />
	<text style="text-anchor:middle" x="282" y="133">4</text>
	<line style="stroke-dasharray:1" x1="294" y1="14" x2="294" y2="123" />
	<line style="stroke-dasharray:1" x1="306" y1="14" x2="306" y2="123" />
	<text style="text-anchor:middle" x="306" y="133">2</text>
	<line style="stroke-dasharray:1" x1="318" y1="14" x2="318" y2="123" />
	<line style="stroke:red" x1="330" y1="14" x2="330" y2="123" />
	<text style="text-anchor:middle" x="330" y="133">0</text>
	<line style="stroke-dasharray:1" x1="342" y1="14" x2="342" y2="123" />
	<line style="stroke-dasharray:1" x1="354" y1="14" x2="354" y2="123" />
	<text style="text-anchor:middle" x="354" y="133">22</text>
	<line style="stroke-dasharray:1" x1="366" y1="14" x2="366" y2="123" />
	<line style="stroke-dasharray:1" x1="378" y1="14" x2="378" y2="123" />
	<text style="text-anchor:middle" x="378" y="133">20</text>
	<line style="stroke-dasharray:1" x1="390" y1="14" x2="390" y2="123" />
	<line style="stroke-dasharray:1" x1="402" y1="14" x2="402" y2="123" />
	<text style="text-anchor:middle" x="402" y="133">18</text>
	<line style="stroke-dasharray:1" x1="414" y1="14" x2="414" y2="123" />
	<line style="stroke-dasharray:1" x1="426" y1="14" x2="426" y2="123" />
	<text style="text-anchor:middle" x="426" y="133">16</text>
	<line style="stroke-dasharray:1" x1="438" y1="14" x2="438" y2="123" />
	<line style="stroke-dasharray:1" x1="450" y1="14" x2="450" y2="123" />
	<text style="text-anchor:middle" x="450" y="133">14</text>
	<line style="stroke-dasharray:1" x1="462" y1="14" x2="462" y2="123" />
	<polygon style="fill:red;stroke:red;fill-opacity:1;" points="51,121 57,118 57,124" />
	<!-- Temperature -->
	<polyline style="fill:none;stroke:blue;clip-path:url(#GraphRegion)" points="55,82 56,81 57,79 58,78 59,77 60,76 61,75 62,75 63,73 64,71 65,69 66,67 67,65 68,62 69,61 70,59 71,56 72,52 73,49 74,47 75,44 76,43 77,41 78,39 79,38 80,37 81,35 82,34 83,32 84,28 85,24 86,21 87,21 88,23 89,23 90,22 91,19 92,18 93,16 94,16 95,19 96,19 97,19 98,18 99,16 100,14 101,14 102,16 103,19 104,21 105,20 106,19 107,19 108,17 109,17 110,18 111,15 112,15 113,18 114,18 115,16 116,16 117,17 118,21 119,21 120,21 121,20 122,19 123,16 124,16 125,18 126,19 127,19 128,17 129,16 130,15 131,16 132,18 133,17 134,18 135,18 136,19 137,21 138,24 139,24 140,25 141,28 142,29 143,30 144,29 145,25 146,22 147,21 148,25 149,32 150,36 151,35 152,35 153,36 154,37 155,34 156,36 157,36 158,38 159,36 160,38 161,41 162,43 163,46 164,48 165,49 166,49 167,49 168,50 169,50 170,50 171,51 172,52 173,49 174,45 175,48 176,51 177,50 178,51 179,60 180,68 181,70 182,65 183,63 184,68 185,71 186,71 187,73 188,69 189,66 190,63 191,67 192,71 193,70 194,73 195,79 196,78 197,77 198,71 199,71 200,74 201,73 202,73 203,75 204,75 205,79 206,87 207,89 208,90 209,93 210,95 211,98 212,98 213,99 214,99 215,101 216,103 217,104 218,105 219,106 220,106 221,108 222,108 223,107 224,106 225,105 226,103 227,103 228,104 229,105 230,104 231,105 232,106 233,107 234,108 235,109 236,110 237,111 238,111 239,112 240,112 241,113 242,113 243,112 244,111 245,111 246,111 247,112 248,112 249,113 250,113 251,114 252,114 253,115 254,115 255,115 256,116 257,116 258,116 259,116 260,117 261,117 262,117 263,117 264,117 265,117 266,117 267,117 268,118 269,118 270,118 271,118 272,118 273,118 274,118 275,118 276,118 277,119 278,119 279,119 280,119 281,119 282,119 283,120 284,120 285,121 286,120 287,119 288,118 289,116 290,115 291,115 292,114 293,112 294,111 295,110 296,109 297,108 298,108 299,108 300,107 301,107 302,107 303,106 304,106 305,106 306,106 307,106 308,105 309,105 310,105 311,104 312,104 313,103 314,103 315,102 316,102 317,101 318,100 319,100 320,99 321,99 322,98 323,97 324,97 325,96 326,96 327,95 328,95 329,95 330,94 331,93 332,92 333,92 334,91 335,91 336,91 337,90 338,91 339,91 340,91 341,92 342,92 343,93 344,94 345,94 346,94 347,94 348,94 349,94 350,94 351,94 352,93 353,94 354,94 355,94 356,94 357,94 358,93 359,93 360,92 361,91 362,90 363,89 364,88 365,87 366,87 367,86 368,86 369,86 370,86 371,86 372,86 373,86 374,85 375,85 376,84 377,82 378,81 379,81 380,79 381,78 382,77 383,75 384,75 385,74 386,73 387,72 388,71 389,70 390,70 391,70 392,70 393,68 394,67 395,66 396,67 397,68 398,66 399,64 400,62 401,60 402,59 403,60 404,62 405,63 406,64 407,64 408,63 409,63 410,62 411,61 412,61 413,60 414,61 415,61 416,60 417,60 418,62 419,64 420,66 421,66 422,66 423,65 424,65 425,67 426,67 427,66 428,66 429,66 430,66 431,67 432,68 433,68 434,66 435,66 436,66 437,67 438,69 439,71 440,71 441,70 442,70 443,71 444,73 445,76 446,77 447,74 448,67 449,51 450,36 451,32 452,32 453,32 454,32 455,32 456,32 457,32 458,32 459,32 460,32 461,32 462,32 463,32 464,32 465,32 466,32 467,32 468,32 469,32 " />
</svg>
