<?xml version="1.0" encoding="utf-8" standalone="no"?>
<svg xmlns="http://www.w3.org/2000/svg" xmlns:xlink="http://www.w3.org/1999/xlink" width="500" height="135">
	<!-- Created by: WeatherFlowTempestLogger Version 1.20240618.0 Built on: Jun 18 2024 at 06:53:33 -->
	<clipPath id="GraphRegion"><polygon points="70,14 486,14 486,121 70,121" /></clipPath>
	<style>
		text { font-family: sans-serif; font-size: 12px; fill: black; }
		line { stroke: black; }
		polygon { fill-opacity: 0.5; }
		.barometer-label { font-family: Georgia, serif; font-style: italic; font-size: 2147483647px; opacity: 0.5; clip-path: url(#GraphRegion); text-anchor: middle; dominant-baseline: middle; }
	</style>
	<rect style="fill-opacity:0;stroke:grey;stroke-width:2" width="500" height="135" />
	<text x="70" y="12">Tempest</text>
	<text style="text-anchor:end" x="486" y="12">2024-06-18 06:59:48</text>
	<text style="fill:blue;text-anchor:middle" x="12" y="50%" transform="rotate(270 12,67)">Wind Speed (1.2 kn)</text>
	<text style="fill:blue;text-anchor:middle" x="24" y="50%" transform="rotate(270 24,67)">Wind Gust (1.9 kn)</text>
	<text style="fill:green;text-anchor:middle" x="36" y="50%" transform="rotate(270 36,67)">Pressure (0.0 hPa)</text>
	<line x1="68" y1="14" x2="488" y2="14"/>
	<text style="fill:blue;text-anchor:end;dominant-baseline:middle" x="68" y="14">2.4</text>
	<line style="stroke-dasharray:1" x1="68" y1="40" x2="488" y2="40" />
	<text style="fill:blue;text-anchor:end;dominant-baseline:middle" x="68" y="40">1.8</text>
	<line style="stroke-dasharray:1" x1="68" y1="66" x2="488" y2="66" />
	<text style="fill:blue;text-anchor:end;dominant-baseline:middle" x="68" y="66">1.3</text>
	<line style="stroke-dasharray:1" x1="68" y1="92" x2="488" y2="92" />
	<text style="fill:blue;text-anchor:end;dominant-baseline:middle" x="68" y="92">0.7</text>
	<line x1="68" y1="121" x2="488" y2="121"/>
	<text style="fill:blue;text-anchor:end;dominant-baseline:middle" x="68" y="121">0.2</text>
	<line x1="70" y1="14" x2="70" y2="121"/>
	<line style="stroke-dasharray:1" x1="81" y1="14" x2="81" y2="123" />
	<text style="text-anchor:middle" x="81" y="133">6</text>
	<line style="stroke-dasharray:1" x1="93" y1="14" x2="93" y2="123" />
	<line style="stroke-dasharray:1" x1="105" y1="14" x2="105" y2="123" />
	<text style="text-anchor:middle" x="105" y="133">4</text>
	<line style="stroke-dasharray:1" x1="117" y1="14" x2="117" y2="123" />
	<line style="stroke-dasharray:1" x1="129" y1="14" x2="129" y2="123" />
	<text style="text-anchor:middle" x="129" y="133">2</text>
	<line style="stroke-dasharray:1" x1="141" y1="14" x2="141" y2="123" />
	<line style="stroke:red" x1="153" y1="14" x2="153" y2="123" />
	<text style="text-anchor:middle" x="153" y="133">0</text>
	<line style="stroke-dasharray:1" x1="165" y1="14" x2="165" y2="123" />
	<line style="stroke-dasharray:1" x1="177" y1="14" x2="177" y2="123" />
	<text style="text-anchor:middle" x="177" y="133">22</text>
	<line style="stroke-dasharray:1" x1="189" y1="14" x2="189" y2="123" />
	<line style="stroke-dasharray:1" x1="201" y1="14" x2="201" y2="123" />
	<text style="text-anchor:middle" x="201" y="133">20</text>
	<line style="stroke-dasharray:1" x1="213" y1="14" x2="213" y2="123" />
	<line style="stroke-dasharray:1" x1="225" y1="14" x2="225" y2="123" />
	<text style="text-anchor:middle" x="225" y="133">18</text>
	<line style="stroke-dasharray:1" x1="237" y1="14" x2="237" y2="123" />
	<line style="stroke-dasharray:1" x1="249" y1="14" x2="249" y2="123" />
	<text style="text-anchor:middle" x="249" y="133">16</text>
	<line style="stroke-dasharray:1" x1="261" y1="14" x2="261" y2="123" />
	<line style="stroke-dasharray:1" x1="273" y1="14" x2="273" y2="123" />
	<text style="text-anchor:middle" x="273" y="133">14</text>
	<line style="stroke-dasharray:1" x1="285" y1="14" x2="285" y2="123" />
	<line style="stroke-dasharray:1" x1="297" y1="14" x2="297" y2="123" />
	<text style="text-anchor:middle" x="297" y="133">12</text>
	<line style="stroke-dasharray:1" x1="309" y1="14" x2="309" y2="123" />
	<line style="stroke-dasharray:1" x1="321" y1="14" x2="321" y2="123" />
	<text style="text-anchor:middle" x="321" y="133">10</text>
	<line style="stroke-dasharray:1" x1="333" y1="14" x2="333" y2="123" />
	<line style="stroke-dasharray:1" x1="345" y1="14" x2="345" y2="123" />
	<text style="text-anchor:middle" x="345" y="133">8</text>
	<line style="stroke-dasharray:1" x1="357" y1="14" x2="357" y2="123" />
	<line style="stroke-dasharray:1" x1="369" y1="14" x2="369" y2="123" />
	<text style="text-anchor:middle" x="369" y="133">6</text>
	<line style="stroke-dasharray:1" x1="381" y1="14" x2="381" y2="123" />
	<line style="stroke-dasharray:1" x1="393" y1="14" x2="393" y2="123" />
	<text style="text-anchor:middle" x="393" y="133">4</text>
	<line style="stroke-dasharray:1" x1="405" y1="14" x2="405" y2="123" />
	<line style="stroke-dasharray:1" x1="417" y1="14" x2="417" y2="123" />
	<text style="text-anchor:middle" x="417" y="133">2</text>
	<line style="stroke-dasharray:1" x1="429" y1="14" x2="429" y2="123" />
	<line style="stroke:red" x1="441" y1="14" x2="441" y2="123" />
	<text style="text-anchor:middle" x="441" y="133">0</text>
	<line style="stroke-dasharray:1" x1="453" y1="14" x2="453" y2="123" />
	<line style="stroke-dasharray:1" x1="465" y1="14" x2="465" y2="123" />
	<text style="text-anchor:middle" x="465" y="133">22</text>
	<line style="stroke-dasharray:1" x1="477" y1="14" x2="477" y2="123" />
	<line x1="486" y1="14" x2="486" y2="121"/>
	<polygon style="fill:red;stroke:red;fill-opacity:1;" points="67,121 73,118 73,124" />
	<!-- ApparentWindSpeed -->
	<polyline style="fill:none;stroke:blue;clip-path:url(#GraphRegion)" points="71,71 72,82 73,77 74,78 75,85 76,93 77,74 78,94 79,79 80,67 81,74 82,70 83,81 84,76 85,73 86,69 87,76 88,80 89,89 90,79 91,83 92,63 93,67 94,71 95,84 96,64 97,54 98,74 99,71 100,54 101,52 102,65 103,52 104,56 105,55 106,57 107,59 108,62 109,54 110,38 111,34 112,45 113,51 114,41 115,29 116,23 117,39 118,65 119,72 120,68 121,61 122,61 123,47 124,50 125,61 126,63 127,57 128,53 129,77 130,56 131,62 132,59 133,60 134,62 135,64 136,64 137,74 138,70 139,69 140,84 141,43 142,56 143,62 144,60 145,66 146,75 147,65 148,67 149,96 150,80 151,92 152,91 153,97 154,83 155,82 156,46 157,67 158,86 159,75 160,78 161,76 162,100 163,95 164,86 165,80 166,95 167,80 168,74 169,82 170,106 171,98 172,92 173,110 174,108 175,97 176,100 177,98 178,103 179,86 180,84 181,100 182,101 183,94 184,99 185,105 186,83 187,92 188,90 189,102 190,94 191,85 192,107 193,89 194,111 195,94 196,109 197,89 198,110 199,115 200,107 201,116 202,107 203,102 204,113 205,105 206,102 207,116 208,113 209,109 210,119 211,100 212,104 213,98 214,90 215,85 216,72 217,110 218,106 219,103 220,107 221,96 222,121 223,114 224,108 225,93 226,89 227,90 228,81 229,87 230,65 231,59 232,65 233,60 234,67 235,64 236,50 237,60 238,43 239,53 240,59 241,64 242,63 243,53 244,51 245,66 246,42 247,42 248,34 249,33 250,23 251,36 252,25 253,36 254,44 255,22 256,26 257,14 258,22 259,25 260,26 261,50 262,49 263,43 264,49 265,57 266,56 267,77 268,76 269,63 270,51 271,59 272,67 273,62 274,89 275,89 276,89 277,89 278,89 279,89 280,89 281,89 282,89 283,89 284,89 285,89 286,89 287,89 288,89 289,89 290,89 291,89 292,89 293,89 294,89 295,89 296,89 297,89 298,89 299,89 300,89 301,89 302,89 303,89 304,89 305,89 306,89 307,89 308,89 309,89 310,89 311,89 312,89 313,89 314,89 315,89 316,89 317,89 318,89 319,89 320,89 321,89 322,89 323,89 324,89 325,89 326,89 327,89 328,89 329,89 330,89 331,89 332,89 333,89 334,89 335,89 336,89 337,89 338,89 339,89 340,89 341,89 342,89 343,89 344,89 345,89 346,89 347,89 348,89 349,89 350,89 351,89 352,89 353,89 354,89 355,89 356,89 357,89 358,89 359,89 360,89 361,89 362,89 363,89 364,89 365,89 366,89 367,89 368,89 369,89 370,89 371,89 372,89 373,89 374,89 375,89 376,89 377,89 378,89 379,89 380,89 381,89 382,89 383,89 384,89 385,89 386,89 387,89 388,89 389,89 390,89 391,89 392,89 393,89 394,89 395,89 396,89 397,89 398,89 399,89 400,89 401,89 402,89 403,89 404,89 405,89 406,89 407,89 408,89 409,89 410,89 411,89 412,89 413,89 414,89 415,89 416,89 417,89 418,89 419,89 420,89 421,89 422,89 423,89 424,89 425,89 426,89 427,89 428,89 429,89 430,89 431,89 432,89 433,89 434,89 435,89 436,89 437,89 438,89 439,89 440,89 441,89 442,89 443,89 444,89 445,89 446,89 447,89 448,89 449,89 450,89 451,89 452,89 453,89 454,89 455,89 456,89 457,89 458,89 459,89 460,89 461,89 462,89 463,89 464,89 465,89 466,89 467,89 468,89 469,89 470,89 471,89 472,89 473,89 474,89 475,89 476,89 477,89 478,89 479,89 480,89 481,89 482,89 483,89 484,89 485,89 " />
</svg>
