<?xml version="1.0" encoding="utf-8" standalone="no"?>
<svg xmlns="http://www.w3.org/2000/svg" xmlns:xlink="http://www.w3.org/1999/xlink" width="500" height="135">
	<!-- Created by: WeatherFlowTempestLogger Version 1.20240722.0 Built on: Jul 22 2024 at 17:05:23 -->
	<clipPath id="GraphRegion"><polygon points="66,14 470,14 470,121 66,121" /></clipPath>
	<style>
		text { font-family: sans-serif; font-size: 12px; fill: black; }
		line { stroke: black; }
		polygon { fill-opacity: 0.5; }
		.barometer-label { font-family: Georgia, serif; font-style: italic; font-size: 56px; opacity: 0.5; clip-path: url(#GraphRegion); text-anchor: middle; dominant-baseline: middle; }
	</style>
	<rect style="fill-opacity:0;stroke:grey;stroke-width:2" width="500" height="135" />
	<text x="66" y="12">Tempest Wind &amp; Pressure</text>
	<text style="text-anchor:end" x="470" y="12">2024-09-08 10:00:00</text>
	<text style="fill:blue;text-anchor:middle" x="12" y="50%" transform="rotate(270 12,67)">Wind Speed (4.3 kn)</text>
	<text style="fill:blue;text-anchor:middle" x="24" y="50%" transform="rotate(270 24,67)">Wind Gust (9.5 kn)</text>
	<text style="fill:green;text-anchor:middle" x="36" y="50%" transform="rotate(270 36,67)">Pressure (1011.8 hPa)</text>
	<line x1="64" y1="14" x2="472" y2="14"/>
	<text style="fill:blue;text-anchor:end;dominant-baseline:middle" x="64" y="14">17.2</text>
	<text style="fill:green;dominant-baseline:middle" x="472" y="14">1025.6</text>
	<line style="stroke-dasharray:1" x1="64" y1="40" x2="472" y2="40" />
	<text style="fill:blue;text-anchor:end;dominant-baseline:middle" x="64" y="40">12.9</text>
	<text style="fill:green;dominant-baseline:middle" x="472" y="40">1020.8</text>
	<line style="stroke-dasharray:1" x1="64" y1="66" x2="472" y2="66" />
	<text style="fill:blue;text-anchor:end;dominant-baseline:middle" x="64" y="66">8.6</text>
	<text style="fill:green;dominant-baseline:middle" x="472" y="66">1016.1</text>
	<line style="stroke-dasharray:1" x1="64" y1="92" x2="472" y2="92" />
	<text style="fill:blue;text-anchor:end;dominant-baseline:middle" x="64" y="92">4.3</text>
	<text style="fill:green;dominant-baseline:middle" x="472" y="92">1011.3</text>
	<line x1="64" y1="121" x2="472" y2="121"/>
	<text style="fill:blue;text-anchor:end;dominant-baseline:middle" x="64" y="121">0.0</text>
	<text style="fill:green;dominant-baseline:middle" x="472" y="121">1006.6</text>
	<line x1="66" y1="14" x2="66" y2="121"/>
	<line style="stroke-dasharray:1" x1="71" y1="14" x2="71" y2="123" />
	<text style="text-anchor:middle" x="113" y="133">Week 36</text>
	<line style="stroke:red" x1="155" y1="14" x2="155" y2="123" />
	<line style="stroke-dasharray:1" x1="155" y1="14" x2="155" y2="123" />
	<text style="text-anchor:middle" x="197" y="133">Week 35</text>
	<line style="stroke-dasharray:1" x1="239" y1="14" x2="239" y2="123" />
	<text style="text-anchor:middle" x="281" y="133">Week 34</text>
	<line style="stroke-dasharray:1" x1="323" y1="14" x2="323" y2="123" />
	<text style="text-anchor:middle" x="365" y="133">Week 33</text>
	<line style="stroke-dasharray:1" x1="407" y1="14" x2="407" y2="123" />
	<text style="text-anchor:middle" x="449" y="133">Week 32</text>
	<line x1="470" y1="14" x2="470" y2="121"/>
	<polygon style="fill:red;stroke:red;fill-opacity:1;" points="63,121 69,118 69,124" />
	<!-- OutsidePressure MinMax -->
	<polygon style="fill:green;stroke:green;clip-path:url(#GraphRegion)" points="67,92 68,97 69,99 70,99 71,101 72,102 73,103 74,98 75,93 76,89 77,88 78,87 79,86 80,84 81,79 82,77 83,82 84,87 85,90 86,83 87,75 88,68 89,66 90,68 91,69 92,70 93,69 94,69 95,71 96,71 97,72 98,66 99,58 100,52 101,48 102,46 103,47 104,46 105,45 106,44 107,44 108,46 109,50 110,46 111,38 112,33 113,32 114,33 115,35 116,38 117,37 118,37 119,38 120,41 121,42 122,38 123,33 124,32 125,32 126,37 127,42 128,47 129,49 130,55 131,57 132,62 133,69 134,75 135,76 136,77 137,77 138,78 139,82 140,85 141,86 142,86 143,86 144,91 145,98 146,101 147,95 148,91 149,87 150,85 151,86 152,86 153,87 154,87 155,86 156,85 157,84 158,79 159,71 160,66 161,61 162,60 163,61 164,62 165,62 166,63 167,62 168,62 169,65 170,62 171,56 172,51 173,49 174,49 175,51 176,58 177,59 178,58 179,59 180,59 181,60 182,57 183,48 184,43 185,37 186,34 187,35 188,38 189,39 190,36 191,36 192,36 193,35 194,30 195,25 196,19 197,14 198,14 199,15 200,16 201,18 202,18 203,21 204,26 205,29 206,32 207,34 208,34 209,33 210,35 211,40 212,46 213,50 214,53 215,59 216,60 217,55 218,50 219,45 220,42 221,38 222,36 223,36 224,34 225,33 226,32 227,31 228,31 229,31 230,27 231,25 232,21 233,21 234,21 235,26 236,30 237,32 238,36 239,40 240,44 241,51 242,55 243,59 244,64 245,72 246,81 247,88 248,95 249,97 250,101 251,100 252,102 253,103 254,103 255,103 256,104 257,108 258,111 259,112 260,108 261,102 262,93 263,97 264,99 265,99 266,94 267,90 268,86 269,85 270,86 271,87 272,84 273,81 274,80 275,80 276,78 277,74 278,69 279,64 280,61 281,59 282,60 283,59 284,58 285,58 286,57 287,55 288,54 289,57 290,54 291,50 292,47 293,47 294,50 295,52 296,55 297,47 298,46 299,46 300,46 301,51 302,57 303,57 304,56 305,55 306,55 307,57 308,58 309,57 310,57 311,55 312,54 313,57 314,61 315,71 316,68 317,68 318,71 319,76 320,82 321,84 322,89 323,82 324,82 325,114 326,112 327,103 328,93 329,84 330,79 331,78 332,79 333,78 334,73 335,70 336,69 337,70 338,64 339,59 340,56 341,54 342,54 343,54 344,58 345,57 346,55 347,53 348,53 349,55 350,55 351,48 352,44 353,41 354,41 355,41 356,46 357,49 358,50 359,49 360,50 361,54 362,51 363,46 364,42 365,41 366,41 367,41 368,45 369,47 370,48 371,48 372,49 373,53 374,54 375,54 376,55 377,56 378,57 379,61 380,64 381,66 382,69 383,69 384,70 385,73 386,76 387,70 388,69 389,68 390,67 391,68 392,72 393,73 394,72 395,72 396,71 397,69 398,64 399,59 400,56 401,54 402,53 403,54 404,57 405,58 406,60 407,61 408,66 409,70 410,66 411,60 412,55 413,54 414,54 415,55 416,59 417,64 418,69 419,72 420,76 421,80 422,79 423,72 424,69 425,68 426,68 427,70 428,73 429,75 430,75 431,77 432,80 433,84 434,80 435,72 436,66 437,62 438,62 439,61 440,61 441,59 442,58 443,58 444,59 445,57 446,48 447,38 448,31 449,27 450,25 451,25 452,27 453,29 454,28 455,29 456,33 457,36 458,31 459,27 460,26 461,27 462,31 463,35 464,41 465,48 466,50 467,53 468,58 469,67 469,69 468,67 467,58 466,53 465,50 464,47 463,41 462,35 461,31 460,28 459,31 458,36 457,38 456,37 455,33 454,29 453,30 452,29 451,28 450,27 449,31 448,38 447,47 446,57 445,61 444,62 443,59 442,59 441,61 440,62 439,63 438,62 437,66 436,72 435,80 434,85 433,86 432,85 431,81 430,77 429,77 428,76 427,74 426,70 425,69 424,72 423,79 422,83 421,83 420,80 419,76 418,72 417,69 416,64 415,59 414,55 413,56 412,60 411,66 410,70 409,72 408,71 407,66 406,62 405,60 404,59 403,57 402,55 401,56 400,60 399,64 398,69 397,71 396,72 395,73 394,74 393,74 392,73 391,72 390,68 389,70 388,70 387,76 386,77 385,77 384,74 383,70 382,70 381,70 380,66 379,64 378,61 377,58 376,57 375,55 374,55 373,55 372,53 371,49 370,49 369,49 368,48 367,45 366,42 365,42 364,45 363,50 362,54 361,54 360,54 359,51 358,51 357,51 356,49 355,46 354,42 353,44 352,48 351,55 350,59 349,59 348,55 347,56 346,57 345,59 344,59 343,58 342,55 341,56 340,59 339,64 338,70 337,71 336,71 335,73 334,78 333,80 332,81 331,80 330,85 329,93 328,104 327,112 326,114 325,121 324,115 323,107 322,95 321,89 320,84 319,82 318,76 317,71 316,71 315,74 314,74 313,62 312,57 311,57 310,60 309,60 308,60 307,60 306,57 305,56 304,58 303,59 302,59 301,58 300,51 299,47 298,49 297,58 296,58 295,56 294,52 293,50 292,50 291,54 290,57 289,58 288,58 287,57 286,59 285,60 284,60 283,60 282,61 281,61 280,65 279,70 278,74 277,78 276,80 275,81 274,81 273,84 272,89 271,89 270,88 269,87 268,91 267,94 266,99 265,103 264,104 263,108 262,108 261,109 260,113 259,114 258,113 257,112 256,108 255,104 254,104 253,105 252,105 251,103 250,104 249,102 248,98 247,95 246,88 245,81 244,72 243,64 242,59 241,55 240,51 239,44 238,40 237,36 236,32 235,30 234,26 233,22 232,25 231,27 230,32 229,33 228,33 227,33 226,34 225,34 224,36 223,38 222,38 221,45 220,48 219,50 218,55 217,61 216,62 215,62 214,60 213,55 212,50 211,46 210,40 209,35 208,36 207,35 206,35 205,32 204,29 203,26 202,21 201,19 200,18 199,17 198,15 197,19 196,25 195,30 194,35 193,37 192,37 191,38 190,40 189,41 188,40 187,38 186,37 185,43 184,49 183,57 182,60 181,63 180,63 179,60 178,60 177,60 176,59 175,58 174,51 173,51 172,56 171,62 170,65 169,66 168,65 167,63 166,63 165,63 164,64 163,63 162,61 161,66 160,71 159,80 158,84 157,87 156,86 155,89 154,89 153,88 152,87 151,88 150,88 149,91 148,96 147,102 146,104 145,104 144,98 143,92 142,91 141,87 140,88 139,88 138,82 137,79 136,78 135,78 134,77 133,75 132,69 131,62 130,57 129,55 128,50 127,47 126,42 125,37 124,34 123,38 122,42 121,45 120,45 119,41 118,38 117,38 116,39 115,38 114,35 113,33 112,38 111,46 110,50 109,51 108,50 107,46 106,45 105,46 104,49 103,49 102,49 101,52 100,58 99,66 98,72 97,74 96,73 95,72 94,71 93,71 92,72 91,72 90,70 89,69 88,75 87,83 86,90 85,91 84,91 83,87 82,82 81,85 80,88 79,89 78,89 77,91 76,93 75,100 74,105 73,106 72,108 71,105 70,102 69,100 68,99 67,97 " />
	<!-- ApparentWindSpeed MinMax -->
	<polygon style="fill:blue;stroke:blue;clip-path:url(#GraphRegion)" points="67,73 68,86 69,105 70,96 71,96 72,88 73,84 74,95 75,89 76,87 77,76 78,96 79,94 80,89 81,97 82,100 83,109 84,98 85,54 86,56 87,71 88,74 89,84 90,86 91,98 92,103 93,105 94,103 95,104 96,94 97,61 98,73 99,79 100,73 101,69 102,92 103,95 104,98 105,100 106,94 107,90 108,70 109,68 110,72 111,79 112,74 113,81 114,84 115,91 116,86 117,74 118,75 119,88 120,99 121,87 122,80 123,87 124,82 125,96 126,103 127,98 128,84 129,79 130,83 131,82 132,81 133,72 134,66 135,59 136,81 137,73 138,63 139,62 140,75 141,71 142,53 143,55 144,69 145,96 146,82 147,86 148,76 149,81 150,86 151,102 152,109 153,108 154,102 155,105 156,99 157,76 158,64 159,69 160,74 161,70 162,73 163,104 164,106 165,95 166,100 167,101 168,79 169,75 170,64 171,66 172,71 173,71 174,79 175,105 176,83 177,112 178,103 179,91 180,86 181,65 182,60 183,67 184,59 185,71 186,76 187,71 188,71 189,75 190,80 191,67 192,76 193,65 194,58 195,58 196,63 197,64 198,88 199,98 200,97 201,109 202,103 203,100 204,79 205,63 206,60 207,80 208,60 209,74 210,75 211,95 212,83 213,70 214,49 215,51 216,63 217,92 218,87 219,100 220,95 221,88 222,100 223,113 224,112 225,109 226,99 227,87 228,69 229,82 230,94 231,89 232,88 233,80 234,82 235,98 236,85 237,95 238,82 239,73 240,64 241,73 242,63 243,69 244,66 245,65 246,55 247,60 248,63 249,62 250,56 251,65 252,65 253,62 254,65 255,71 256,70 257,92 258,99 259,99 260,104 261,86 262,72 263,73 264,87 265,80 266,90 267,85 268,93 269,91 270,94 271,109 272,108 273,97 274,89 275,91 276,90 277,85 278,65 279,64 280,64 281,57 282,64 283,87 284,94 285,86 286,88 287,79 288,88 289,71 290,66 291,48 292,64 293,64 294,68 295,74 296,67 297,71 298,56 299,59 300,60 301,60 302,69 303,58 304,57 305,71 306,74 307,87 308,98 309,110 310,88 311,92 312,70 313,65 314,14 315,64 316,56 317,69 318,58 319,79 320,81 321,95 322,88 323,52 324,42 325,75 326,50 327,47 328,48 329,57 330,71 331,78 332,90 333,82 334,74 335,78 336,59 337,72 338,85 339,92 340,88 341,80 342,75 343,103 344,97 345,99 346,93 347,87 348,83 349,71 350,64 351,88 352,97 353,96 354,99 355,105 356,108 357,112 358,91 359,81 360,68 361,84 362,79 363,84 364,91 365,82 366,86 367,101 368,104 369,108 370,108 371,93 372,93 373,98 374,92 375,91 376,74 377,74 378,78 379,82 380,96 381,106 382,105 383,84 384,67 385,72 386,58 387,63 388,59 389,63 390,65 391,47 392,74 393,79 394,79 395,88 396,96 397,91 398,81 399,65 400,66 401,68 402,73 403,71 404,78 405,68 406,75 407,72 408,103 409,99 410,87 411,78 412,59 413,61 414,65 415,69 416,74 417,87 418,94 419,94 420,84 421,79 422,87 423,97 424,92 425,100 426,96 427,105 428,106 429,106 430,94 431,88 432,95 433,76 434,62 435,49 436,66 437,78 438,88 439,91 440,108 441,97 442,89 443,91 444,84 445,85 446,70 447,73 448,77 449,79 450,88 451,88 452,108 453,93 454,88 455,72 456,101 457,101 458,96 459,84 460,71 461,72 462,72 463,70 464,74 465,76 466,79 467,99 468,81 469,87 469,106 468,104 467,115 466,107 465,100 464,98 463,97 462,97 461,94 460,97 459,108 458,114 457,116 456,117 455,97 454,107 453,114 452,120 451,109 450,106 449,104 448,102 447,101 446,98 445,108 444,111 443,113 442,116 441,112 440,119 439,118 438,108 437,103 436,99 435,85 434,91 433,101 432,116 431,114 430,116 429,117 428,118 427,118 426,114 425,114 424,115 423,115 422,111 421,103 420,107 419,116 418,116 417,110 416,102 415,95 414,95 413,92 412,95 411,103 410,111 409,115 408,117 407,102 406,99 405,95 404,101 403,101 402,100 401,94 400,95 399,95 398,101 397,108 396,115 395,109 394,104 393,108 392,107 391,97 390,93 389,90 388,91 387,96 386,94 385,98 384,97 383,111 382,117 381,119 380,114 379,105 378,101 377,100 376,100 375,110 374,109 373,112 372,110 371,112 370,118 369,119 368,117 367,115 366,112 365,105 364,110 363,110 362,105 361,103 360,95 359,105 358,118 357,120 356,119 355,118 354,115 353,112 352,114 351,107 350,94 349,95 348,111 347,109 346,111 345,114 344,113 343,117 342,106 341,100 340,110 339,111 338,109 337,101 336,91 335,101 334,102 333,103 332,111 331,102 330,100 329,90 328,85 327,82 326,86 325,106 324,94 323,100 322,111 321,113 320,110 319,101 318,95 317,93 316,91 315,96 314,92 313,96 312,102 311,111 310,110 309,120 308,119 307,115 306,109 305,99 304,94 303,92 302,94 301,100 300,104 299,93 298,99 297,104 296,101 295,104 294,99 293,95 292,95 291,94 290,95 289,96 288,106 287,103 286,106 285,110 284,111 283,106 282,96 281,94 280,93 279,95 278,99 277,109 276,112 275,110 274,114 273,117 272,120 271,119 270,115 269,112 268,111 267,105 266,108 265,107 264,110 263,108 262,107 261,113 260,118 259,117 258,117 257,113 256,99 255,95 254,90 253,93 252,91 251,93 250,91 249,93 248,90 247,88 246,88 245,92 244,92 243,96 242,95 241,102 240,99 239,98 238,105 237,112 236,111 235,111 234,105 233,103 232,108 231,113 230,112 229,113 228,97 227,106 226,116 225,119 224,120 223,120 222,115 221,113 220,115 219,116 218,112 217,115 216,92 215,90 214,96 213,106 212,111 211,111 210,109 209,104 208,99 207,105 206,95 205,94 204,110 203,114 202,118 201,120 200,118 199,118 198,113 197,99 196,94 195,90 194,87 193,94 192,102 191,102 190,108 189,100 188,107 187,102 186,103 185,98 184,92 183,93 182,96 181,96 180,112 179,112 178,118 177,120 176,119 175,120 174,114 173,97 172,99 171,94 170,92 169,102 168,109 167,115 166,112 165,116 164,118 163,120 162,104 161,94 160,98 159,95 158,93 157,102 156,114 155,117 154,115 153,120 152,119 151,117 150,112 149,105 148,102 147,108 146,107 145,112 144,107 143,93 142,86 141,97 140,99 139,95 138,95 137,103 136,104 135,95 134,94 133,97 132,102 131,105 130,105 129,101 128,102 127,112 126,114 125,112 124,105 123,106 122,104 121,107 120,116 119,113 118,102 117,100 116,110 115,111 114,107 113,103 112,99 111,100 110,98 109,93 108,95 107,112 106,113 105,119 104,116 103,115 102,113 101,99 100,99 99,105 98,99 97,91 96,115 95,117 94,117 93,118 92,118 91,119 90,109 89,108 88,99 87,98 86,88 85,97 84,117 83,120 82,119 81,117 80,114 79,113 78,115 77,103 76,112 75,108 74,113 73,115 72,111 71,117 70,117 69,118 68,108 67,100 " />
	<!-- OutsidePressure -->
	<polyline style="fill:none;stroke:green;clip-path:url(#GraphRegion)" points="67,94 68,98 69,100 70,100 71,103 72,105 73,104 74,102 75,96 76,91 77,89 78,88 79,87 80,86 81,82 82,79 83,85 84,89 85,90 86,87 87,78 88,71 89,67 90,69 91,70 92,71 93,70 94,70 95,72 96,72 97,73 98,69 99,62 100,55 101,50 102,48 103,48 104,47 105,45 106,45 107,45 108,48 109,50 110,48 111,42 112,35 113,33 114,34 115,37 116,38 117,38 118,38 119,40 120,43 121,43 122,40 123,35 124,33 125,34 126,39 127,45 128,48 129,52 130,56 131,60 132,66 133,73 134,76 135,77 136,77 137,78 138,79 139,84 140,86 141,86 142,88 143,88 144,94 145,103 146,103 147,98 148,94 149,88 150,87 151,87 152,87 153,87 154,88 155,87 156,86 157,86 158,82 159,75 160,69 161,63 162,61 163,62 164,63 165,63 166,63 167,62 168,63 169,65 170,64 171,59 172,54 173,50 174,50 175,55 176,59 177,60 178,59 179,60 180,61 181,62 182,59 183,53 184,46 185,40 186,36 187,36 188,39 189,40 190,38 191,37 192,36 193,36 194,33 195,27 196,22 197,16 198,14 199,16 200,17 201,18 202,19 203,24 204,27 205,30 206,34 207,35 208,35 209,34 210,38 211,44 212,48 213,53 214,57 215,60 216,61 217,59 218,53 219,48 220,45 221,41 222,37 223,37 224,35 225,34 226,33 227,32 228,32 229,33 230,30 231,26 232,23 233,21 234,24 235,28 236,31 237,34 238,38 239,42 240,47 241,53 242,57 243,61 244,68 245,77 246,85 247,92 248,96 249,99 250,103 251,101 252,103 253,104 254,104 255,104 256,106 257,110 258,112 259,113 260,110 261,105 262,100 263,102 264,101 265,100 266,96 267,92 268,88 269,86 270,87 271,88 272,86 273,82 274,81 275,80 276,79 277,76 278,72 279,67 280,63 281,60 282,60 283,59 284,59 285,59 286,58 287,56 288,56 289,58 290,55 291,52 292,48 293,49 294,51 295,54 296,57 297,54 298,47 299,46 300,48 301,55 302,59 303,58 304,57 305,56 306,56 307,58 308,59 309,58 310,58 311,56 312,55 313,60 314,67 315,73 316,70 317,69 318,73 319,79 320,83 321,86 322,92 323,91 324,95 325,117 326,113 327,108 328,99 329,89 330,82 331,79 332,80 333,78 334,75 335,71 336,70 337,70 338,67 339,61 340,57 341,55 342,54 343,56 344,59 345,59 346,56 347,54 348,54 349,57 350,57 351,52 352,46 353,42 354,41 355,43 356,48 357,50 358,50 359,50 360,52 361,54 362,52 363,48 364,44 365,41 366,41 367,43 368,47 369,48 370,48 371,49 372,50 373,54 374,54 375,55 376,56 377,57 378,59 379,62 380,65 381,68 382,69 383,69 384,71 385,76 386,77 387,72 388,70 389,68 390,68 391,70 392,73 393,74 394,73 395,72 396,71 397,71 398,67 399,62 400,58 401,55 402,54 403,55 404,58 405,59 406,61 407,64 408,69 409,71 410,69 411,63 412,57 413,54 414,55 415,57 416,62 417,67 418,70 419,74 420,78 421,82 422,81 423,76 424,70 425,68 426,69 427,72 428,75 429,76 430,76 431,79 432,83 433,85 434,83 435,76 436,69 437,64 438,62 439,62 440,61 441,60 442,59 443,59 444,61 445,59 446,53 447,43 448,34 449,28 450,26 451,26 452,28 453,29 454,29 455,31 456,35 457,37 458,33 459,29 460,27 461,29 462,32 463,38 464,44 465,49 466,52 467,55 468,63 469,68 " />
	<!-- ApparentWindSpeed -->
	<polyline style="fill:none;stroke:blue;clip-path:url(#GraphRegion)" points="67,100 68,108 69,118 70,117 71,117 72,111 73,115 74,113 75,108 76,112 77,103 78,115 79,113 80,114 81,117 82,119 83,120 84,117 85,97 86,88 87,98 88,99 89,108 90,109 91,119 92,118 93,118 94,117 95,117 96,115 97,91 98,99 99,105 100,99 101,99 102,113 103,115 104,116 105,119 106,113 107,112 108,95 109,93 110,98 111,100 112,99 113,103 114,107 115,111 116,110 117,100 118,102 119,113 120,116 121,107 122,104 123,106 124,105 125,112 126,114 127,112 128,102 129,101 130,105 131,105 132,102 133,97 134,94 135,95 136,104 137,103 138,95 139,95 140,99 141,97 142,86 143,93 144,107 145,112 146,107 147,108 148,102 149,105 150,112 151,117 152,119 153,120 154,115 155,117 156,114 157,102 158,93 159,95 160,98 161,94 162,104 163,120 164,118 165,116 166,112 167,115 168,109 169,102 170,92 171,94 172,99 173,97 174,114 175,120 176,119 177,120 178,118 179,112 180,112 181,96 182,96 183,93 184,92 185,98 186,103 187,102 188,107 189,100 190,108 191,102 192,102 193,94 194,87 195,90 196,94 197,99 198,113 199,118 200,118 201,120 202,118 203,114 204,110 205,94 206,95 207,105 208,99 209,104 210,109 211,111 212,111 213,106 214,96 215,90 216,92 217,115 218,112 219,116 220,115 221,113 222,115 223,120 224,120 225,119 226,116 227,106 228,97 229,113 230,112 231,113 232,108 233,103 234,105 235,111 236,111 237,112 238,105 239,98 240,99 241,102 242,95 243,96 244,92 245,92 246,88 247,88 248,90 249,93 250,91 251,93 252,91 253,93 254,90 255,95 256,99 257,113 258,117 259,117 260,118 261,113 262,107 263,108 264,110 265,107 266,108 267,105 268,111 269,112 270,115 271,119 272,120 273,117 274,114 275,110 276,112 277,109 278,99 279,95 280,93 281,94 282,96 283,106 284,111 285,110 286,106 287,103 288,106 289,96 290,95 291,94 292,95 293,95 294,99 295,104 296,101 297,104 298,99 299,93 300,104 301,100 302,94 303,92 304,94 305,99 306,109 307,115 308,119 309,120 310,110 311,111 312,102 313,96 314,92 315,96 316,91 317,93 318,95 319,101 320,110 321,113 322,111 323,100 324,94 325,106 326,86 327,82 328,85 329,90 330,100 331,102 332,111 333,103 334,102 335,101 336,91 337,101 338,109 339,111 340,110 341,100 342,106 343,117 344,113 345,114 346,111 347,109 348,111 349,95 350,94 351,107 352,114 353,112 354,115 355,118 356,119 357,120 358,118 359,105 360,95 361,103 362,105 363,110 364,110 365,105 366,112 367,115 368,117 369,119 370,118 371,112 372,110 373,112 374,109 375,110 376,100 377,100 378,101 379,105 380,114 381,119 382,117 383,111 384,97 385,98 386,94 387,96 388,91 389,90 390,93 391,97 392,107 393,108 394,104 395,109 396,115 397,108 398,101 399,95 400,95 401,94 402,100 403,101 404,101 405,95 406,99 407,102 408,117 409,115 410,111 411,103 412,95 413,92 414,95 415,95 416,102 417,110 418,116 419,116 420,107 421,103 422,111 423,115 424,115 425,114 426,114 427,118 428,118 429,117 430,116 431,114 432,116 433,101 434,91 435,85 436,99 437,103 438,108 439,118 440,119 441,112 442,116 443,113 444,111 445,108 446,98 447,101 448,102 449,104 450,106 451,109 452,120 453,114 454,107 455,97 456,117 457,116 458,114 459,108 460,97 461,94 462,97 463,97 464,98 465,100 466,107 467,115 468,104 469,106 " />
	<text class="barometer-label" x="50%" y="303">Rain</text>
	<text class="barometer-label" x="50%" y="163">Change</text>
	<text class="barometer-label" x="50%" y="23">Fair</text>
</svg>
