<?xml version="1.0" encoding="utf-8" standalone="no"?>
<svg xmlns="http://www.w3.org/2000/svg" xmlns:xlink="http://www.w3.org/1999/xlink" width="500" height="135">
	<!-- Created by: WeatherFlowTempestLogger Version 1.20240618.2 Built on: Jun 18 2024 at 07:41:14 -->
	<clipPath id="GraphRegion"><polygon points="54,14 470,14 470,121 54,121" /></clipPath>
	<style>
		text { font-family: sans-serif; font-size: 12px; fill: black; }
		line { stroke: black; }
		polygon { fill-opacity: 0.5; }
	</style>
	<rect style="fill-opacity:0;stroke:grey;stroke-width:2" width="500" height="135" />
	<text x="54" y="12">Tempest Temperature</text>
	<text style="text-anchor:end" x="470" y="12">2024-06-18 23:00:00</text>
	<text style="fill:blue;text-anchor:middle" x="12" y="50%" transform="rotate(270 12,67)">Temperature (56.7°F)</text>
	<text style="fill:green;text-anchor:middle" x="24" y="50%" transform="rotate(270 24,67)">Humidity (77.8%)</text>
	<!-- Humidity -->
	<polygon style="fill:lime;stroke:green;clip-path:url(#GraphRegion)" points="55,120 54,33 55,45 56,56 57,71 58,75 59,77 60,80 61,77 62,77 63,77 64,73 65,73 66,77 67,79 68,67 69,69 70,60 71,66 72,59 73,60 74,64 75,56 76,53 77,50 78,51 79,43 80,33 81,27 82,26 83,36 84,33 85,30 86,31 87,28 88,26 89,25 90,24 91,23 92,21 93,23 94,29 95,32 96,33 97,33 98,34 99,35 100,38 101,31 102,23 103,23 104,23 105,27 106,24 107,20 108,24 109,26 110,32 111,44 112,56 113,62 114,65 115,59 116,60 117,58 118,54 119,54 120,73 121,75 122,75 123,75 124,75 125,75 126,75 127,75 128,75 129,75 130,75 131,75 132,75 133,75 134,75 135,75 136,75 137,75 138,75 139,75 140,75 141,75 142,75 143,75 144,75 145,75 146,75 147,75 148,75 149,75 150,75 151,75 152,75 153,75 154,75 155,75 156,75 157,75 158,75 159,75 160,75 161,75 162,75 163,75 164,75 165,75 166,75 167,75 168,75 169,75 170,75 171,75 172,75 173,75 174,75 175,75 176,75 177,75 178,75 179,75 180,75 181,75 182,75 183,75 184,75 185,75 186,75 187,75 188,75 189,75 190,75 191,75 192,75 193,75 194,75 195,75 196,75 197,75 198,75 199,75 200,75 201,75 202,75 203,75 204,75 205,75 206,75 207,75 208,75 209,75 210,75 211,75 212,75 213,75 214,75 215,75 216,75 217,75 218,75 219,75 220,75 221,75 222,75 223,75 224,75 225,75 226,75 227,75 228,75 229,75 230,75 231,75 232,75 233,75 234,75 235,75 236,75 237,75 238,75 239,75 240,75 241,75 242,75 243,75 244,75 245,75 246,75 247,75 248,75 249,75 250,75 251,75 252,75 253,75 254,75 255,75 256,75 257,75 258,75 259,75 260,75 261,75 262,75 263,75 264,75 265,75 266,75 267,75 268,75 269,75 270,67 271,62 272,54 273,49 274,39 275,36 276,34 277,34 278,37 279,40 280,41 281,42 282,42 283,42 284,38 285,37 286,41 287,41 288,45 289,50 290,53 291,56 292,61 293,69 294,72 295,67 296,78 297,77 298,84 299,89 300,97 301,98 302,85 303,76 304,79 305,86 306,101 307,116 308,120 309,111 310,118 311,121 312,119 313,105 314,95 315,93 316,77 317,55 318,51 319,49 320,40 321,37 322,38 323,35 324,32 325,25 326,15 327,14 328,14 329,17 330,22 331,23 332,29 333,29 334,30 335,35 336,40 337,48 338,53 339,55 340,57 341,52 342,52 343,55 344,58 345,60 346,58 347,61 348,70 349,79 350,81 351,84 352,88 353,86 354,77 355,81 356,78 357,85 358,76 359,85 360,90 361,78 362,69 363,68 364,73 365,71 366,68 367,60 368,60 369,59 370,59 371,55 372,59 373,58 374,57 375,55 376,54 377,54 378,50 379,48 380,45 381,41 382,38 383,36 384,34 385,39 386,48 387,52 388,53 389,53 390,55 391,55 392,53 393,53 394,51 395,48 396,46 397,52 398,51 399,51 400,47 401,50 402,48 403,43 404,87 405,99 406,96 407,91 408,87 409,89 410,80 411,66 412,62 413,58 414,57 415,52 416,35 417,35 418,30 419,31 420,120" />
	<line x1="52" y1="14" x2="472" y2="14"/>
	<text style="fill:blue;text-anchor:end;dominant-baseline:middle" x="52" y="14">66.5</text>
	<text style="fill:green;dominant-baseline:middle" x="472" y="14">86.3</text>
	<line x1="52" y1="121" x2="472" y2="121"/>
	<text style="fill:blue;text-anchor:end;dominant-baseline:middle" x="52" y="121">47.8</text>
	<text style="fill:green;dominant-baseline:middle" x="472" y="121">40.8</text>
	<line x1="54" y1="14" x2="54" y2="121"/>
	<line x1="470" y1="14" x2="470" y2="121"/>
	<line style="stroke-dasharray:1" x1="52" y1="40" x2="472" y2="40" />
	<text style="fill:blue;text-anchor:end;dominant-baseline:middle" x="52" y="40">61.9</text>
	<text style="fill:green;dominant-baseline:middle" x="472" y="40">74.9</text>
	<line style="stroke-dasharray:1" x1="52" y1="66" x2="472" y2="66" />
	<text style="fill:blue;text-anchor:end;dominant-baseline:middle" x="52" y="66">57.2</text>
	<text style="fill:green;dominant-baseline:middle" x="472" y="66">63.6</text>
	<line style="stroke-dasharray:1" x1="52" y1="92" x2="472" y2="92" />
	<text style="fill:blue;text-anchor:end;dominant-baseline:middle" x="52" y="92">52.5</text>
	<text style="fill:green;dominant-baseline:middle" x="472" y="92">52.2</text>
	<text style="text-anchor:middle" x="76" y="133">Tue</text>
	<line style="stroke-dasharray:1" x1="100" y1="14" x2="100" y2="123" />
	<text style="text-anchor:middle" x="124" y="133">Mon</text>
	<line style="stroke-dasharray:1" x1="148" y1="14" x2="148" y2="123" />
	<text style="text-anchor:middle" x="172" y="133">Sun</text>
	<line style="stroke:red" x1="196" y1="14" x2="196" y2="123" />
	<text style="text-anchor:middle" x="220" y="133">Sat</text>
	<line style="stroke-dasharray:1" x1="244" y1="14" x2="244" y2="123" />
	<text style="text-anchor:middle" x="268" y="133">Fri</text>
	<line style="stroke-dasharray:1" x1="292" y1="14" x2="292" y2="123" />
	<text style="text-anchor:middle" x="316" y="133">Thu</text>
	<line style="stroke-dasharray:1" x1="340" y1="14" x2="340" y2="123" />
	<text style="text-anchor:middle" x="364" y="133">Wed</text>
	<line style="stroke-dasharray:1" x1="388" y1="14" x2="388" y2="123" />
	<text style="text-anchor:middle" x="412" y="133">Tue</text>
	<polygon style="fill:red;stroke:red;fill-opacity:1;" points="51,121 57,118 57,124" />
	<!-- Temperature -->
	<polyline style="fill:none;stroke:blue;clip-path:url(#GraphRegion)" points="55,65 56,57 57,47 58,40 59,32 60,29 61,28 62,29 63,27 64,28 65,29 66,28 67,29 68,34 69,34 70,40 71,41 72,48 73,50 74,50 75,61 76,62 77,66 78,65 79,73 80,82 81,86 82,86 83,86 84,90 85,91 86,91 87,93 88,94 89,94 90,95 91,95 92,96 93,93 94,89 95,87 96,86 97,84 98,82 99,80 100,78 101,77 102,78 103,79 104,79 105,76 106,74 107,73 108,69 109,64 110,62 111,59 112,58 113,57 114,57 115,60 116,60 117,61 118,63 119,63 120,39 121,38 122,38 123,38 124,38 125,38 126,38 127,38 128,38 129,38 130,38 131,38 132,38 133,38 134,38 135,38 136,38 137,38 138,38 139,38 140,38 141,38 142,38 143,38 144,38 145,38 146,38 147,38 148,38 149,38 150,38 151,38 152,38 153,38 154,38 155,38 156,38 157,38 158,38 159,38 160,38 161,38 162,38 163,38 164,38 165,38 166,38 167,38 168,38 169,38 170,38 171,38 172,38 173,38 174,38 175,38 176,38 177,38 178,38 179,38 180,38 181,38 182,38 183,38 184,38 185,38 186,38 187,38 188,38 189,38 190,38 191,38 192,38 193,38 194,38 195,38 196,38 197,38 198,38 199,38 200,38 201,38 202,38 203,38 204,38 205,38 206,38 207,38 208,38 209,38 210,38 211,38 212,38 213,38 214,38 215,38 216,38 217,38 218,38 219,38 220,38 221,38 222,38 223,38 224,38 225,38 226,38 227,38 228,38 229,38 230,38 231,38 232,38 233,38 234,38 235,38 236,38 237,38 238,38 239,38 240,38 241,38 242,38 243,38 244,38 245,38 246,38 247,38 248,38 249,38 250,38 251,38 252,38 253,38 254,38 255,38 256,38 257,38 258,38 259,38 260,38 261,38 262,38 263,38 264,38 265,38 266,38 267,38 268,38 269,38 270,53 271,61 272,70 273,77 274,86 275,91 276,96 277,100 278,100 279,100 280,100 281,103 282,102 283,100 284,100 285,100 286,102 287,102 288,97 289,91 290,88 291,86 292,82 293,77 294,72 295,66 296,57 297,52 298,43 299,39 300,36 301,39 302,36 303,39 304,35 305,32 306,26 307,16 308,20 309,14 310,15 311,21 312,25 313,30 314,33 315,37 316,50 317,61 318,66 319,69 320,77 321,81 322,84 323,88 324,92 325,105 326,116 327,119 328,121 329,119 330,117 331,115 332,108 333,108 334,106 335,104 336,100 337,96 338,95 339,90 340,86 341,84 342,82 343,79 344,75 345,71 346,67 347,64 348,58 349,51 350,49 351,45 352,43 353,39 354,39 355,40 356,41 357,42 358,44 359,43 360,43 361,50 362,55 363,59 364,59 365,62 366,63 367,64 368,67 369,74 370,77 371,84 372,83 373,86 374,89 375,91 376,92 377,92 378,92 379,92 380,93 381,98 382,98 383,97 384,99 385,95 386,87 387,83 388,81 389,78 390,78 391,79 392,79 393,79 394,80 395,80 396,79 397,74 398,72 399,69 400,66 401,63 402,64 403,65 404,22 405,17 406,19 407,22 408,24 409,21 410,21 411,24 412,31 413,40 414,46 415,56 416,67 417,67 418,72 419,72 " />
</svg>
