<?xml version="1.0" encoding="utf-8" standalone="no"?>
<svg xmlns="http://www.w3.org/2000/svg" xmlns:xlink="http://www.w3.org/1999/xlink" width="500" height="135">
	<!-- Created by: WeatherFlowTempestLogger Version 1.20240618.2 Built on: Jun 18 2024 at 07:41:14 -->
	<clipPath id="GraphRegion"><polygon points="66,14 470,14 470,121 66,121" /></clipPath>
	<style>
		text { font-family: sans-serif; font-size: 12px; fill: black; }
		line { stroke: black; }
		polygon { fill-opacity: 0.5; }
		.barometer-label { font-family: Georgia, serif; font-style: italic; font-size: 116px; opacity: 0.5; clip-path: url(#GraphRegion); text-anchor: middle; dominant-baseline: middle; }
	</style>
	<rect style="fill-opacity:0;stroke:grey;stroke-width:2" width="500" height="135" />
	<text x="66" y="12">Tempest Wind</text>
	<text style="text-anchor:end" x="470" y="12">2024-06-18 23:00:00</text>
	<text style="fill:blue;text-anchor:middle" x="12" y="50%" transform="rotate(270 12,67)">Wind Speed (2.3 kn)</text>
	<text style="fill:blue;text-anchor:middle" x="24" y="50%" transform="rotate(270 24,67)">Wind Gust (4.7 kn)</text>
	<text style="fill:green;text-anchor:middle" x="36" y="50%" transform="rotate(270 36,67)">Pressure (1017.2 hPa)</text>
	<line x1="64" y1="14" x2="472" y2="14"/>
	<text style="fill:blue;text-anchor:end;dominant-baseline:middle" x="64" y="14">5.6</text>
	<text style="fill:green;dominant-baseline:middle" x="472" y="14">1025.4</text>
	<line style="stroke-dasharray:1" x1="64" y1="40" x2="472" y2="40" />
	<text style="fill:blue;text-anchor:end;dominant-baseline:middle" x="64" y="40">4.2</text>
	<text style="fill:green;dominant-baseline:middle" x="472" y="40">1023.1</text>
	<line style="stroke-dasharray:1" x1="64" y1="66" x2="472" y2="66" />
	<text style="fill:blue;text-anchor:end;dominant-baseline:middle" x="64" y="66">2.8</text>
	<text style="fill:green;dominant-baseline:middle" x="472" y="66">1020.8</text>
	<line style="stroke-dasharray:1" x1="64" y1="92" x2="472" y2="92" />
	<text style="fill:blue;text-anchor:end;dominant-baseline:middle" x="64" y="92">1.4</text>
	<text style="fill:green;dominant-baseline:middle" x="472" y="92">1018.5</text>
	<line x1="64" y1="121" x2="472" y2="121"/>
	<text style="fill:blue;text-anchor:end;dominant-baseline:middle" x="64" y="121">0.0</text>
	<text style="fill:green;dominant-baseline:middle" x="472" y="121">1016.2</text>
	<line x1="66" y1="14" x2="66" y2="121"/>
	<text style="text-anchor:middle" x="88" y="133">Tue</text>
	<line style="stroke-dasharray:1" x1="112" y1="14" x2="112" y2="123" />
	<text style="text-anchor:middle" x="136" y="133">Mon</text>
	<line style="stroke-dasharray:1" x1="160" y1="14" x2="160" y2="123" />
	<text style="text-anchor:middle" x="184" y="133">Sun</text>
	<line style="stroke:red" x1="208" y1="14" x2="208" y2="123" />
	<text style="text-anchor:middle" x="232" y="133">Sat</text>
	<line style="stroke-dasharray:1" x1="256" y1="14" x2="256" y2="123" />
	<text style="text-anchor:middle" x="280" y="133">Fri</text>
	<line style="stroke-dasharray:1" x1="304" y1="14" x2="304" y2="123" />
	<text style="text-anchor:middle" x="328" y="133">Thu</text>
	<line style="stroke-dasharray:1" x1="352" y1="14" x2="352" y2="123" />
	<text style="text-anchor:middle" x="376" y="133">Wed</text>
	<line style="stroke-dasharray:1" x1="400" y1="14" x2="400" y2="123" />
	<text style="text-anchor:middle" x="424" y="133">Tue</text>
	<line x1="470" y1="14" x2="470" y2="121"/>
	<polygon style="fill:red;stroke:red;fill-opacity:1;" points="63,121 69,118 69,124" />
	<!-- OutsidePressure -->
	<polyline style="fill:none;stroke:green;clip-path:url(#GraphRegion)" points="67,110 68,111 69,114 70,116 71,117 72,118 73,118 74,119 75,118 76,117 77,116 78,113 79,109 80,106 81,104 82,101 83,98 84,95 85,92 86,90 87,87 88,85 89,83 90,79 91,76 92,77 93,79 94,78 95,77 96,79 97,79 98,81 99,82 100,82 101,83 102,85 103,86 104,86 105,87 106,86 107,86 108,86 109,86 110,86 111,85 112,84 113,85 114,86 115,86 116,87 117,89 118,90 119,91 120,93 121,93 122,95 123,98 124,99 125,100 126,98 127,95 128,95 129,97 130,97 131,97 132,96 133,96 134,96 135,96 136,96 137,96 138,96 139,96 140,96 141,96 142,96 143,96 144,96 145,96 146,96 147,96 148,96 149,96 150,96 151,96 152,96 153,96 154,96 155,96 156,96 157,96 158,96 159,96 160,96 161,96 162,96 163,96 164,96 165,96 166,96 167,96 168,96 169,96 170,96 171,96 172,96 173,96 174,96 175,96 176,96 177,96 178,96 179,96 180,96 181,96 182,96 183,96 184,96 185,96 186,96 187,96 188,96 189,96 190,96 191,96 192,96 193,96 194,96 195,96 196,96 197,96 198,96 199,96 200,96 201,96 202,96 203,96 204,96 205,96 206,96 207,96 208,96 209,96 210,96 211,96 212,96 213,96 214,96 215,96 216,96 217,96 218,96 219,96 220,96 221,96 222,96 223,96 224,96 225,96 226,96 227,96 228,96 229,96 230,96 231,96 232,96 233,96 234,96 235,96 236,96 237,96 238,96 239,96 240,96 241,96 242,96 243,96 244,96 245,96 246,96 247,96 248,96 249,96 250,96 251,96 252,96 253,96 254,96 255,96 256,96 257,96 258,96 259,96 260,96 261,96 262,96 263,96 264,96 265,96 266,96 267,96 268,96 269,96 270,96 271,96 272,96 273,96 274,96 275,96 276,96 277,96 278,96 279,96 280,96 281,96 282,64 283,59 284,59 285,57 286,54 287,54 288,55 289,57 290,58 291,60 292,62 293,63 294,66 295,65 296,67 297,69 298,71 299,72 300,75 301,77 302,78 303,81 304,85 305,87 306,93 307,94 308,100 309,104 310,105 311,105 312,104 313,103 314,102 315,101 316,102 317,103 318,103 319,105 320,103 321,103 322,101 323,97 324,93 325,90 326,88 327,85 328,82 329,80 330,78 331,75 332,73 333,73 334,72 335,70 336,68 337,70 338,69 339,70 340,69 341,69 342,71 343,69 344,66 345,66 346,64 347,62 348,60 349,61 350,58 351,56 352,55 353,54 354,54 355,54 356,53 357,53 358,52 359,48 360,46 361,45 362,41 363,38 364,35 365,33 366,29 367,27 368,26 369,25 370,22 371,21 372,19 373,18 374,16 375,15 376,15 377,14 378,14 379,15 380,15 381,17 382,18 383,19 384,22 385,24 386,28 387,32 388,34 389,37 390,39 391,40 392,40 393,41 394,40 395,39 396,38 397,39 398,39 399,41 400,41 401,41 402,41 403,43 404,45 405,49 406,53 407,55 408,56 409,58 410,61 411,65 412,68 413,70 414,69 415,71 416,80 417,84 418,85 419,88 420,90 421,95 422,101 423,105 424,110 425,111 426,113 427,117 428,117 429,117 430,121 431,120 " />
	<!-- ApparentWindSpeed -->
	<polyline style="fill:none;stroke:blue;clip-path:url(#GraphRegion)" points="67,64 68,69 69,83 70,76 71,85 72,83 73,83 74,82 75,85 76,91 77,89 78,91 79,85 80,91 81,93 82,98 83,94 84,98 85,100 86,109 87,112 88,109 89,106 90,109 91,108 92,106 93,102 94,102 95,111 96,114 97,110 98,101 99,102 100,99 101,101 102,97 103,93 104,91 105,84 106,94 107,92 108,94 109,98 110,94 111,102 112,100 113,104 114,104 115,110 116,108 117,107 118,109 119,111 120,113 121,114 122,107 123,113 124,103 125,94 126,92 127,89 128,82 129,78 130,90 131,96 132,102 133,105 134,105 135,105 136,105 137,105 138,105 139,105 140,105 141,105 142,105 143,105 144,105 145,105 146,105 147,105 148,105 149,105 150,105 151,105 152,105 153,105 154,105 155,105 156,105 157,105 158,105 159,105 160,105 161,105 162,105 163,105 164,105 165,105 166,105 167,105 168,105 169,105 170,105 171,105 172,105 173,105 174,105 175,105 176,105 177,105 178,105 179,105 180,105 181,105 182,105 183,105 184,105 185,105 186,105 187,105 188,105 189,105 190,105 191,105 192,105 193,105 194,105 195,105 196,105 197,105 198,105 199,105 200,105 201,105 202,105 203,105 204,105 205,105 206,105 207,105 208,105 209,105 210,105 211,105 212,105 213,105 214,105 215,105 216,105 217,105 218,105 219,105 220,105 221,105 222,105 223,105 224,105 225,105 226,105 227,105 228,105 229,105 230,105 231,105 232,105 233,105 234,105 235,105 236,105 237,105 238,105 239,105 240,105 241,105 242,105 243,105 244,105 245,105 246,105 247,105 248,105 249,105 250,105 251,105 252,105 253,105 254,105 255,105 256,105 257,105 258,105 259,105 260,105 261,105 262,105 263,105 264,105 265,105 266,105 267,105 268,105 269,105 270,105 271,105 272,105 273,105 274,105 275,105 276,105 277,105 278,105 279,105 280,105 281,105 282,63 283,70 284,73 285,76 286,79 287,83 288,87 289,84 290,83 291,93 292,92 293,98 294,103 295,105 296,113 297,114 298,119 299,119 300,118 301,111 302,113 303,107 304,115 305,116 306,107 307,112 308,100 309,78 310,98 311,84 312,73 313,63 314,61 315,67 316,64 317,59 318,63 319,66 320,83 321,95 322,94 323,79 324,75 325,80 326,82 327,76 328,82 329,87 330,84 331,83 332,86 333,87 334,85 335,89 336,103 337,115 338,119 339,121 340,120 341,120 342,118 343,119 344,115 345,111 346,114 347,114 348,118 349,116 350,119 351,117 352,92 353,75 354,68 355,63 356,67 357,70 358,60 359,52 360,46 361,48 362,61 363,60 364,64 365,58 366,64 367,61 368,63 369,61 370,68 371,73 372,77 373,77 374,76 375,78 376,82 377,79 378,85 379,101 380,101 381,95 382,93 383,88 384,91 385,99 386,109 387,96 388,99 389,96 390,100 391,99 392,94 393,109 394,109 395,120 396,119 397,118 398,115 399,115 400,115 401,116 402,112 403,106 404,86 405,77 406,68 407,56 408,52 409,48 410,45 411,46 412,55 413,53 414,59 415,53 416,62 417,53 418,58 419,45 420,34 421,47 422,40 423,41 424,34 425,14 426,20 427,19 428,26 429,26 430,35 431,53 " />
	<text class="barometer-label" x="50%" y="614">Rain</text>
	<text class="barometer-label" x="50%" y="322">Change</text>
	<text class="barometer-label" x="50%" y="30">Fair</text>
</svg>
