<?xml version="1.0" encoding="utf-8" standalone="no"?>
<svg xmlns="http://www.w3.org/2000/svg" xmlns:xlink="http://www.w3.org/1999/xlink" width="500" height="135">
	<!-- Created by: WeatherFlowTempestLogger Version 1.20240618.2 Built on: Jun 18 2024 at 07:41:14 -->
	<clipPath id="GraphRegion"><polygon points="54,14 470,14 470,121 54,121" /></clipPath>
	<style>
		text { font-family: sans-serif; font-size: 12px; fill: black; }
		line { stroke: black; }
		polygon { fill-opacity: 0.5; }
	</style>
	<rect style="fill-opacity:0;stroke:grey;stroke-width:2" width="500" height="135" />
	<text x="54" y="12">Tempest Temperature</text>
	<text style="text-anchor:end" x="470" y="12">2024-06-18 22:00:00</text>
	<text style="fill:blue;text-anchor:middle" x="12" y="50%" transform="rotate(270 12,67)">Temperature (61.2°F)</text>
	<text style="fill:green;text-anchor:middle" x="24" y="50%" transform="rotate(270 24,67)">Humidity (62.5%)</text>
	<!-- Humidity -->
	<polygon style="fill:lime;stroke:green;clip-path:url(#GraphRegion)" points="55,120 54,69 55,77 56,75 57,64 58,58 59,47 60,26 61,26 62,20 63,22 64,30 65,24 66,19 67,27 68,59 69,54 70,74 71,75 72,75 73,75 74,75 75,75 76,75 77,75 78,75 79,75 80,75 81,75 82,75 83,75 84,75 85,75 86,75 87,75 88,75 89,75 90,75 91,75 92,75 93,75 94,75 95,75 96,75 97,75 98,75 99,75 100,75 101,75 102,75 103,75 104,75 105,75 106,75 107,65 108,41 109,33 110,38 111,36 112,49 113,66 114,82 115,89 116,97 117,121 118,105 119,56 120,34 121,16 122,14 123,26 124,46 125,52 126,57 127,78 128,83 129,81 130,76 131,67 132,56 133,55 134,49 135,36 136,40 137,52 138,48 139,47 140,44 141,94 142,81 143,56 144,29 145,120" />
	<line x1="52" y1="14" x2="472" y2="14"/>
	<text style="fill:blue;text-anchor:end;dominant-baseline:middle" x="52" y="14">65.9</text>
	<text style="fill:green;dominant-baseline:middle" x="472" y="14">84.0</text>
	<line x1="52" y1="121" x2="472" y2="121"/>
	<text style="fill:blue;text-anchor:end;dominant-baseline:middle" x="52" y="121">48.3</text>
	<text style="fill:green;dominant-baseline:middle" x="472" y="121">42.2</text>
	<line x1="54" y1="14" x2="54" y2="121"/>
	<line x1="470" y1="14" x2="470" y2="121"/>
	<line style="stroke-dasharray:1" x1="52" y1="40" x2="472" y2="40" />
	<text style="fill:blue;text-anchor:end;dominant-baseline:middle" x="52" y="40">61.5</text>
	<text style="fill:green;dominant-baseline:middle" x="472" y="40">73.5</text>
	<line style="stroke-dasharray:1" x1="52" y1="66" x2="472" y2="66" />
	<text style="fill:blue;text-anchor:end;dominant-baseline:middle" x="52" y="66">57.1</text>
	<text style="fill:green;dominant-baseline:middle" x="472" y="66">63.1</text>
	<line style="stroke-dasharray:1" x1="52" y1="92" x2="472" y2="92" />
	<text style="fill:blue;text-anchor:end;dominant-baseline:middle" x="52" y="92">52.7</text>
	<text style="fill:green;dominant-baseline:middle" x="472" y="92">52.6</text>
	<line style="stroke-dasharray:1" x1="89" y1="14" x2="89" y2="123" />
	<text style="text-anchor:middle" x="131" y="133">Week 24</text>
	<polygon style="fill:red;stroke:red;fill-opacity:1;" points="51,121 57,118 57,124" />
	<!-- Temperature -->
	<polyline style="fill:none;stroke:blue;clip-path:url(#GraphRegion)" points="55,25 56,25 57,35 58,51 59,66 60,86 61,92 62,96 63,92 64,84 65,78 66,75 67,63 68,57 69,61 70,36 71,36 72,36 73,36 74,36 75,36 76,36 77,36 78,36 79,36 80,36 81,36 82,36 83,36 84,36 85,36 86,36 87,36 88,36 89,36 90,36 91,36 92,36 93,36 94,36 95,36 96,36 97,36 98,36 99,36 100,36 101,36 102,36 103,36 104,36 105,36 106,36 107,52 108,81 109,100 110,103 111,103 112,91 113,74 114,46 115,35 116,24 117,14 118,28 119,61 120,83 121,110 122,121 123,109 124,96 125,83 126,69 127,49 128,38 129,40 130,50 131,61 132,76 133,88 134,93 135,98 136,92 137,79 138,80 139,73 140,64 141,16 142,19 143,41 144,69 " />
</svg>
