<?xml version="1.0" encoding="utf-8" standalone="no"?>
<svg xmlns="http://www.w3.org/2000/svg" xmlns:xlink="http://www.w3.org/1999/xlink" width="500" height="135">
	<!-- Created by: WeatherFlowTempestLogger Version 1.20240722.0 Built on: Jul 22 2024 at 17:05:23 -->
	<clipPath id="GraphRegion"><polygon points="54,14 470,14 470,121 54,121" /></clipPath>
	<style>
		text { font-family: sans-serif; font-size: 12px; fill: black; }
		line { stroke: black; }
		polygon { fill-opacity: 0.5; }
	</style>
	<rect style="fill-opacity:0;stroke:grey;stroke-width:2" width="500" height="135" />
	<text x="54" y="12">Tempest Temperature &amp; Humidity</text>
	<text style="text-anchor:end" x="470" y="12">2024-09-08 10:00:00</text>
	<text style="fill:blue;text-anchor:middle" x="12" y="50%" transform="rotate(270 12,67)">Temperature (60.1°F)</text>
	<text style="fill:green;text-anchor:middle" x="24" y="50%" transform="rotate(270 24,67)">Humidity (95.6%)</text>
	<!-- Humidity -->
	<polygon style="fill:lime;stroke:green;clip-path:url(#GraphRegion)" points="55,120 54,21 55,20 56,23 57,18 58,28 59,31 60,42 61,47 62,61 63,67 64,63 65,60 66,35 67,26 68,34 69,32 70,33 71,39 72,53 73,83 74,98 75,92 76,86 77,52 78,33 79,14 80,16 81,17 82,22 83,36 84,54 85,89 86,100 87,85 88,78 89,58 90,27 91,14 92,14 93,24 94,39 95,44 96,58 97,73 98,78 99,70 100,56 101,36 102,15 103,14 104,16 105,21 106,25 107,31 108,35 109,55 110,64 111,58 112,53 113,46 114,36 115,39 116,39 117,40 118,39 119,42 120,51 121,55 122,60 123,67 124,56 125,50 126,39 127,41 128,37 129,36 130,42 131,47 132,61 133,86 134,99 135,87 136,81 137,70 138,42 139,22 140,22 141,25 142,29 143,36 144,55 145,88 146,99 147,89 148,81 149,60 150,38 151,19 152,25 153,31 154,33 155,41 156,65 157,87 158,102 159,96 160,77 161,65 162,44 163,21 164,24 165,23 166,29 167,39 168,57 169,78 170,83 171,82 172,72 173,66 174,56 175,48 176,53 177,68 178,67 179,77 180,63 181,71 182,78 183,74 184,72 185,60 186,47 187,29 188,28 189,33 190,45 191,55 192,70 193,75 194,88 195,68 196,78 197,77 198,51 199,36 200,30 201,30 202,28 203,49 204,66 205,50 206,57 207,39 208,51 209,50 210,35 211,17 212,19 213,26 214,34 215,45 216,70 217,92 218,92 219,80 220,73 221,60 222,41 223,30 224,31 225,32 226,33 227,37 228,38 229,40 230,46 231,35 232,30 233,29 234,27 235,26 236,29 237,31 238,28 239,26 240,29 241,24 242,30 243,23 244,20 245,18 246,19 247,18 248,19 249,20 250,25 251,38 252,45 253,58 254,63 255,57 256,55 257,39 258,31 259,23 260,28 261,39 262,54 263,65 264,63 265,62 266,80 267,81 268,70 269,57 270,45 271,36 272,37 273,33 274,38 275,49 276,53 277,69 278,79 279,73 280,57 281,55 282,40 283,34 284,49 285,61 286,50 287,56 288,68 289,87 290,121 291,114 292,111 293,89 294,54 295,25 296,26 297,29 298,56 299,64 300,71 301,79 302,102 303,119 304,96 305,68 306,48 307,30 308,26 309,24 310,24 311,27 312,47 313,80 314,81 315,73 316,72 317,65 318,52 319,41 320,38 321,40 322,43 323,52 324,64 325,75 326,85 327,78 328,69 329,63 330,59 331,43 332,41 333,44 334,60 335,60 336,57 337,78 338,91 339,83 340,74 341,56 342,36 343,26 344,26 345,33 346,38 347,43 348,65 349,100 350,87 351,78 352,72 353,58 354,47 355,35 356,35 357,35 358,39 359,43 360,49 361,54 362,62 363,73 364,79 365,67 366,53 367,50 368,49 369,42 370,43 371,45 372,58 373,104 374,108 375,104 376,101 377,89 378,66 379,46 380,44 381,48 382,53 383,53 384,56 385,64 386,65 387,60 388,56 389,48 390,36 391,31 392,35 393,37 394,39 395,48 396,51 397,70 398,87 399,81 400,62 401,43 402,31 403,26 404,28 405,40 406,42 407,46 408,70 409,92 410,91 411,73 412,68 413,57 414,48 415,25 416,31 417,35 418,42 419,45 420,67 421,89 422,96 423,92 424,79 425,60 426,37 427,23 428,25 429,33 430,42 431,48 432,67 433,85 434,84 435,73 436,53 437,36 438,28 439,27 440,26 441,28 442,31 443,41 444,57 445,83 446,84 447,74 448,66 449,58 450,56 451,52 452,48 453,39 454,39 455,38 456,53 457,74 458,69 459,88 460,80 461,61 462,43 463,36 464,29 465,36 466,37 467,48 468,72 469,89 469,120" />
	<line x1="52" y1="14" x2="472" y2="14"/>
	<text style="fill:blue;text-anchor:end;dominant-baseline:middle" x="52" y="14">80.9</text>
	<text style="fill:green;dominant-baseline:middle" x="472" y="14">99.2</text>
	<line x1="52" y1="121" x2="472" y2="121"/>
	<text style="fill:blue;text-anchor:end;dominant-baseline:middle" x="52" y="121">50.9</text>
	<text style="fill:green;dominant-baseline:middle" x="472" y="121">44.3</text>
	<line x1="54" y1="14" x2="54" y2="121"/>
	<line x1="470" y1="14" x2="470" y2="121"/>
	<line style="stroke-dasharray:1" x1="52" y1="40" x2="472" y2="40" />
	<text style="fill:blue;text-anchor:end;dominant-baseline:middle" x="52" y="40">73.4</text>
	<text style="fill:green;dominant-baseline:middle" x="472" y="40">85.5</text>
	<line style="stroke-dasharray:1" x1="52" y1="66" x2="472" y2="66" />
	<text style="fill:blue;text-anchor:end;dominant-baseline:middle" x="52" y="66">65.9</text>
	<text style="fill:green;dominant-baseline:middle" x="472" y="66">71.8</text>
	<line style="stroke-dasharray:1" x1="52" y1="92" x2="472" y2="92" />
	<text style="fill:blue;text-anchor:end;dominant-baseline:middle" x="52" y="92">58.4</text>
	<text style="fill:green;dominant-baseline:middle" x="472" y="92">58.0</text>
	<line style="stroke-dasharray:1" x1="59" y1="14" x2="59" y2="123" />
	<text style="text-anchor:middle" x="101" y="133">Week 36</text>
	<line style="stroke:red" x1="143" y1="14" x2="143" y2="123" />
	<line style="stroke-dasharray:1" x1="143" y1="14" x2="143" y2="123" />
	<text style="text-anchor:middle" x="185" y="133">Week 35</text>
	<line style="stroke-dasharray:1" x1="227" y1="14" x2="227" y2="123" />
	<text style="text-anchor:middle" x="269" y="133">Week 34</text>
	<line style="stroke-dasharray:1" x1="311" y1="14" x2="311" y2="123" />
	<text style="text-anchor:middle" x="353" y="133">Week 33</text>
	<line style="stroke-dasharray:1" x1="395" y1="14" x2="395" y2="123" />
	<text style="text-anchor:middle" x="437" y="133">Week 32</text>
	<polygon style="fill:red;stroke:red;fill-opacity:1;" points="51,121 57,118 57,124" />
	<!-- Temperature -->
	<polyline style="fill:none;stroke:blue;clip-path:url(#GraphRegion)" points="55,87 56,85 57,93 58,82 59,78 60,70 61,65 62,56 63,49 64,56 65,60 66,80 67,89 68,85 69,83 70,81 71,76 72,65 73,38 74,23 75,25 76,33 77,62 78,76 79,95 80,90 81,91 82,84 83,71 84,58 85,27 86,14 87,32 88,39 89,57 90,84 91,95 92,94 93,91 94,79 95,74 96,65 97,50 98,43 99,52 100,66 101,84 102,99 103,102 104,101 105,98 106,94 107,88 108,84 109,70 110,64 111,67 112,71 113,77 114,85 115,84 116,85 117,84 118,86 119,80 120,70 121,64 122,62 123,60 124,68 125,72 126,80 127,82 128,83 129,82 130,78 131,74 132,61 133,42 134,27 135,39 136,41 137,56 138,78 139,94 140,94 141,90 142,86 143,79 144,65 145,36 146,28 147,34 148,44 149,63 150,80 151,102 152,96 153,88 154,85 155,78 156,59 157,40 158,32 159,38 160,50 161,63 162,82 163,105 164,103 165,105 166,97 167,87 168,75 169,59 170,54 171,60 172,70 173,79 174,87 175,99 176,99 177,94 178,94 179,88 180,88 181,80 182,75 183,79 184,83 185,92 186,103 187,121 188,117 189,112 190,109 191,105 192,94 193,85 194,75 195,80 196,79 197,84 198,99 199,104 200,103 201,98 202,88 203,77 204,65 205,74 206,64 207,82 208,77 209,81 210,93 211,110 212,108 213,102 214,97 215,89 216,72 217,51 218,51 219,58 220,65 221,73 222,86 223,94 224,92 225,91 226,91 227,87 228,85 229,81 230,79 231,88 232,94 233,98 234,101 235,101 236,100 237,98 238,98 239,99 240,98 241,99 242,95 243,97 244,97 245,96 246,96 247,96 248,98 249,96 250,93 251,86 252,82 253,72 254,68 255,70 256,71 257,85 258,92 259,98 260,96 261,87 262,79 263,74 264,74 265,72 266,59 267,58 268,65 269,74 270,80 271,87 272,87 273,88 274,84 275,77 276,74 277,61 278,55 279,59 280,71 281,72 282,82 283,86 284,81 285,76 286,80 287,77 288,73 289,59 290,35 291,38 292,41 293,54 294,77 295,99 296,99 297,95 298,80 299,76 300,68 301,58 302,44 303,29 304,39 305,53 306,66 307,78 308,76 309,77 310,76 311,71 312,65 313,48 314,47 315,55 316,59 317,71 318,84 319,94 320,96 321,93 322,89 323,84 324,75 325,61 326,54 327,60 328,73 329,80 330,82 331,90 332,90 333,86 334,74 335,70 336,69 337,47 338,36 339,43 340,58 341,73 342,86 343,95 344,96 345,93 346,89 347,83 348,68 349,40 350,47 351,52 352,59 353,70 354,79 355,88 356,89 357,89 358,87 359,84 360,79 361,76 362,73 363,65 364,64 365,74 366,83 367,86 368,87 369,89 370,87 371,86 372,80 373,51 374,46 375,53 376,61 377,69 378,82 379,95 380,95 381,90 382,84 383,80 384,74 385,66 386,65 387,69 388,74 389,79 390,87 391,89 392,85 393,83 394,79 395,72 396,68 397,50 398,36 399,43 400,63 401,80 402,87 403,90 404,88 405,78 406,78 407,76 408,55 409,31 410,32 411,51 412,57 413,68 414,77 415,96 416,91 417,87 418,78 419,74 420,55 421,32 422,25 423,30 424,49 425,72 426,89 427,100 428,99 429,93 430,88 431,81 432,62 433,44 434,47 435,60 436,78 437,93 438,99 439,101 440,103 441,100 442,97 443,91 444,78 445,59 446,60 447,70 448,78 449,84 450,89 451,91 452,91 453,94 454,92 455,89 456,76 457,55 458,56 459,46 460,55 461,73 462,87 463,91 464,93 465,87 466,86 467,78 468,61 469,38 " />
</svg>
