<?xml version="1.0" encoding="utf-8" standalone="no"?>
<svg xmlns="http://www.w3.org/2000/svg" xmlns:xlink="http://www.w3.org/1999/xlink" width="500" height="135">
	<!-- Created by: WeatherFlowTempestLogger Version 1.20240722.0 Built on: Jul 22 2024 at 17:05:23 -->
	<clipPath id="GraphRegion"><polygon points="66,14 470,14 470,121 66,121" /></clipPath>
	<style>
		text { font-family: sans-serif; font-size: 12px; fill: black; }
		line { stroke: black; }
		polygon { fill-opacity: 0.5; }
		.barometer-label { font-family: Georgia, serif; font-style: italic; font-size: 79px; opacity: 0.5; clip-path: url(#GraphRegion); text-anchor: middle; dominant-baseline: middle; }
	</style>
	<rect style="fill-opacity:0;stroke:grey;stroke-width:2" width="500" height="135" />
	<text x="66" y="12">Tempest Wind &amp; Pressure</text>
	<text style="text-anchor:end" x="470" y="12">2024-09-08 11:30:00</text>
	<text style="fill:blue;text-anchor:middle" x="12" y="50%" transform="rotate(270 12,67)">Wind Speed (3.8 kn)</text>
	<text style="fill:blue;text-anchor:middle" x="24" y="50%" transform="rotate(270 24,67)">Wind Gust (7.9 kn)</text>
	<text style="fill:green;text-anchor:middle" x="36" y="50%" transform="rotate(270 36,67)">Pressure (1012.1 hPa)</text>
	<line x1="64" y1="14" x2="472" y2="14"/>
	<text style="fill:blue;text-anchor:end;dominant-baseline:middle" x="64" y="14">10.9</text>
	<text style="fill:green;dominant-baseline:middle" x="472" y="14">1022.3</text>
	<line style="stroke-dasharray:1" x1="64" y1="40" x2="472" y2="40" />
	<text style="fill:blue;text-anchor:end;dominant-baseline:middle" x="64" y="40">8.1</text>
	<text style="fill:green;dominant-baseline:middle" x="472" y="40">1018.9</text>
	<line style="stroke-dasharray:1" x1="64" y1="66" x2="472" y2="66" />
	<text style="fill:blue;text-anchor:end;dominant-baseline:middle" x="64" y="66">5.4</text>
	<text style="fill:green;dominant-baseline:middle" x="472" y="66">1015.5</text>
	<line style="stroke-dasharray:1" x1="64" y1="92" x2="472" y2="92" />
	<text style="fill:blue;text-anchor:end;dominant-baseline:middle" x="64" y="92">2.7</text>
	<text style="fill:green;dominant-baseline:middle" x="472" y="92">1012.2</text>
	<line x1="64" y1="121" x2="472" y2="121"/>
	<text style="fill:blue;text-anchor:end;dominant-baseline:middle" x="64" y="121">0.0</text>
	<text style="fill:green;dominant-baseline:middle" x="472" y="121">1008.8</text>
	<line x1="66" y1="14" x2="66" y2="121"/>
	<line style="stroke:red" x1="89" y1="14" x2="89" y2="123" />
	<text style="text-anchor:middle" x="113" y="133">Sat</text>
	<line style="stroke-dasharray:1" x1="137" y1="14" x2="137" y2="123" />
	<text style="text-anchor:middle" x="161" y="133">Fri</text>
	<line style="stroke-dasharray:1" x1="185" y1="14" x2="185" y2="123" />
	<text style="text-anchor:middle" x="209" y="133">Thu</text>
	<line style="stroke-dasharray:1" x1="233" y1="14" x2="233" y2="123" />
	<text style="text-anchor:middle" x="257" y="133">Wed</text>
	<line style="stroke-dasharray:1" x1="281" y1="14" x2="281" y2="123" />
	<text style="text-anchor:middle" x="305" y="133">Tue</text>
	<line style="stroke-dasharray:1" x1="329" y1="14" x2="329" y2="123" />
	<text style="text-anchor:middle" x="353" y="133">Mon</text>
	<line style="stroke-dasharray:1" x1="377" y1="14" x2="377" y2="123" />
	<text style="text-anchor:middle" x="401" y="133">Sun</text>
	<line style="stroke:red" x1="425" y1="14" x2="425" y2="123" />
	<text style="text-anchor:middle" x="449" y="133">Sat</text>
	<line x1="470" y1="14" x2="470" y2="121"/>
	<polygon style="fill:red;stroke:red;fill-opacity:1;" points="63,121 69,118 69,124" />
	<!-- OutsidePressure MinMax -->
	<polygon style="fill:green;stroke:green;clip-path:url(#GraphRegion)" points="67,94 68,95 69,95 70,96 71,96 72,97 73,97 74,98 75,102 76,103 77,105 78,107 79,106 80,107 81,108 82,108 83,108 84,108 85,108 86,107 87,108 88,108 89,111 90,111 91,113 92,113 93,114 94,112 95,113 96,114 97,113 98,115 99,113 100,113 101,113 102,110 103,109 104,107 105,105 106,102 107,100 108,99 109,98 110,95 111,94 112,94 113,93 114,95 115,93 116,92 117,91 118,91 119,92 120,90 121,91 122,90 123,90 124,91 125,90 126,88 127,90 128,87 129,85 130,82 131,82 132,79 133,77 134,79 135,79 136,79 137,84 138,87 139,87 140,90 141,91 142,92 143,93 144,94 145,96 146,96 147,95 148,95 149,94 150,91 151,87 152,85 153,81 154,78 155,75 156,74 157,70 158,68 159,65 160,65 161,62 162,62 163,63 164,64 165,64 166,65 167,66 168,65 169,65 170,65 171,66 172,68 173,69 174,68 175,68 176,67 177,67 178,66 179,65 180,66 181,65 182,65 183,66 184,67 185,68 186,69 187,69 188,69 189,69 190,69 191,69 192,70 193,71 194,71 195,71 196,70 197,67 198,66 199,65 200,61 201,57 202,55 203,53 204,51 205,48 206,46 207,44 208,41 209,40 210,38 211,37 212,36 213,36 214,36 215,34 216,34 217,34 218,34 219,35 220,36 221,36 222,35 223,34 224,34 225,32 226,32 227,32 228,32 229,32 230,31 231,31 232,31 233,31 234,31 235,32 236,33 237,34 238,34 239,35 240,37 241,39 242,39 243,39 244,38 245,38 246,36 247,35 248,34 249,31 250,28 251,25 252,22 253,19 254,18 255,16 256,14 257,14 258,14 259,14 260,14 261,15 262,15 263,16 264,17 265,18 266,19 267,20 268,21 269,22 270,23 271,22 272,21 273,20 274,21 275,22 276,21 277,21 278,20 279,20 280,21 281,22 282,24 283,25 284,25 285,26 286,27 287,29 288,30 289,30 290,30 291,29 292,28 293,27 294,25 295,23 296,22 297,20 298,18 299,17 300,15 301,14 302,15 303,14 304,14 305,14 306,14 307,15 308,19 309,20 310,22 311,24 312,26 313,28 314,30 315,31 316,33 317,35 318,35 319,36 320,37 321,38 322,40 323,41 324,45 325,46 326,47 327,47 328,48 329,49 330,50 331,52 332,54 333,56 334,58 335,61 336,64 337,66 338,69 339,71 340,72 341,74 342,74 343,75 344,76 345,76 346,77 347,76 348,76 349,76 350,76 351,76 352,77 353,77 354,77 355,77 356,78 357,78 358,78 359,78 360,81 361,84 362,84 363,87 364,90 365,91 366,88 367,88 368,88 369,89 370,90 371,90 372,89 373,90 374,91 375,92 376,94 377,92 378,90 379,90 380,90 381,96 382,96 383,100 384,103 385,107 386,112 387,114 388,114 389,114 390,113 391,112 392,111 393,110 394,107 395,104 396,102 397,102 398,101 399,99 400,97 401,94 402,92 403,90 404,91 405,90 406,90 407,88 408,89 409,89 410,89 411,91 412,89 413,90 414,90 415,89 416,89 417,91 418,90 419,90 420,90 421,91 422,92 423,93 424,93 425,92 426,91 427,90 428,90 429,89 430,89 431,89 432,89 433,90 434,89 435,88 436,86 437,85 438,84 439,81 440,80 441,78 442,74 443,72 444,69 445,67 446,65 447,63 448,61 449,58 450,57 451,55 452,55 453,54 454,54 455,53 456,53 457,54 458,54 459,55 460,56 461,57 462,57 463,56 464,56 465,56 466,56 467,56 468,57 469,57 469,58 468,58 467,57 466,57 465,57 464,57 463,57 462,58 461,58 460,57 459,56 458,55 457,55 456,54 455,53 454,55 453,55 452,56 451,57 450,58 449,61 448,62 447,66 446,67 445,69 444,72 443,74 442,77 441,80 440,81 439,84 438,85 437,86 436,88 435,90 434,90 433,90 432,90 431,89 430,90 429,90 428,90 427,91 426,92 425,93 424,94 423,93 422,93 421,92 420,91 419,91 418,91 417,92 416,91 415,91 414,90 413,91 412,92 411,93 410,91 409,90 408,90 407,90 406,92 405,92 404,92 403,92 402,94 401,97 400,99 399,101 398,102 397,103 396,104 395,107 394,110 393,111 392,112 391,113 390,114 389,115 388,114 387,115 386,114 385,111 384,107 383,103 382,100 381,99 380,98 379,91 378,92 377,94 376,96 375,95 374,93 373,91 372,91 371,91 370,91 369,90 368,90 367,90 366,91 365,92 364,92 363,90 362,86 361,84 360,84 359,81 358,81 357,82 356,80 355,79 354,79 353,78 352,79 351,78 350,77 349,77 348,77 347,78 346,78 345,77 344,76 343,76 342,75 341,74 340,74 339,72 338,72 337,69 336,66 335,64 334,61 333,58 332,56 331,54 330,52 329,51 328,49 327,48 326,48 325,47 324,46 323,45 322,41 321,40 320,38 319,37 318,36 317,35 316,35 315,33 314,31 313,30 312,28 311,26 310,24 309,22 308,20 307,18 306,15 305,14 304,15 303,15 302,16 301,15 300,17 299,18 298,20 297,22 296,23 295,25 294,27 293,28 292,29 291,30 290,30 289,31 288,31 287,30 286,29 285,27 284,26 283,25 282,25 281,24 280,22 279,21 278,21 277,22 276,23 275,22 274,22 273,22 272,23 271,23 270,24 269,23 268,22 267,22 266,20 265,19 264,18 263,18 262,17 261,16 260,15 259,14 258,14 257,15 256,16 255,18 254,19 253,22 252,25 251,28 250,31 249,33 248,35 247,36 246,37 245,39 244,40 243,40 242,40 241,40 240,39 239,37 238,36 237,35 236,34 235,33 234,32 233,32 232,31 231,31 230,32 229,32 228,32 227,32 226,33 225,34 224,34 223,35 222,36 221,37 220,37 219,36 218,35 217,35 216,35 215,36 214,37 213,37 212,38 211,39 210,40 209,41 208,44 207,46 206,48 205,51 204,52 203,55 202,57 201,61 200,65 199,66 198,67 197,70 196,71 195,73 194,72 193,72 192,71 191,70 190,70 189,69 188,69 187,70 186,70 185,69 184,68 183,67 182,67 181,66 180,66 179,66 178,68 177,68 176,68 175,69 174,70 173,70 172,70 171,68 170,66 169,66 168,66 167,66 166,66 165,65 164,65 163,64 162,63 161,65 160,66 159,68 158,70 157,73 156,75 155,78 154,81 153,85 152,87 151,91 150,94 149,95 148,96 147,97 146,97 145,96 144,96 143,95 142,93 141,92 140,91 139,90 138,89 137,88 136,84 135,81 134,81 133,80 132,83 131,85 130,85 129,88 128,90 127,91 126,90 125,92 124,92 123,92 122,93 121,93 120,92 119,93 118,93 117,92 116,94 115,95 114,97 113,96 112,96 111,95 110,99 109,100 108,101 107,104 106,106 105,108 104,112 103,113 102,113 101,117 100,117 99,116 98,118 97,117 96,118 95,121 94,120 93,118 92,116 91,114 90,114 89,112 88,111 87,109 86,108 85,109 84,109 83,110 82,109 81,108 80,108 79,107 78,107 77,107 76,105 75,104 74,102 73,98 72,98 71,97 70,97 69,96 68,96 67,95 " />
	<!-- ApparentWindSpeed MinMax -->
	<polygon style="fill:blue;stroke:blue;clip-path:url(#GraphRegion)" points="67,44 68,35 69,31 70,27 71,37 72,35 73,58 74,51 75,56 76,45 77,67 78,72 79,73 80,95 81,96 82,105 83,105 84,97 85,98 86,98 87,82 88,101 89,98 90,82 91,88 92,95 93,80 94,77 95,69 96,79 97,88 98,93 99,90 100,62 101,94 102,81 103,80 104,80 105,82 106,77 107,71 108,75 109,67 110,83 111,89 112,85 113,66 114,50 115,62 116,74 117,92 118,84 119,88 120,81 121,82 122,78 123,96 124,94 125,71 126,93 127,89 128,80 129,91 130,83 131,84 132,103 133,88 134,103 135,104 136,104 137,109 138,103 139,102 140,110 141,107 142,103 143,92 144,84 145,94 146,29 147,19 148,15 149,19 150,19 151,40 152,37 153,41 154,46 155,51 156,53 157,50 158,55 159,55 160,47 161,62 162,86 163,77 164,66 165,75 166,76 167,80 168,67 169,85 170,105 171,103 172,111 173,98 174,93 175,105 176,99 177,98 178,100 179,96 180,100 181,94 182,96 183,101 184,93 185,98 186,94 187,101 188,99 189,99 190,101 191,92 192,78 193,45 194,26 195,26 196,41 197,45 198,55 199,59 200,49 201,71 202,67 203,69 204,55 205,53 206,54 207,57 208,45 209,39 210,43 211,52 212,60 213,76 214,84 215,83 216,95 217,80 218,90 219,94 220,84 221,85 222,94 223,97 224,92 225,104 226,104 227,113 228,88 229,79 230,95 231,87 232,83 233,72 234,88 235,83 236,74 237,58 238,48 239,40 240,45 241,57 242,52 243,42 244,37 245,44 246,43 247,64 248,64 249,63 250,58 251,55 252,54 253,55 254,52 255,48 256,48 257,58 258,61 259,60 260,60 261,63 262,69 263,80 264,69 265,80 266,74 267,85 268,89 269,95 270,82 271,84 272,66 273,47 274,58 275,51 276,55 277,49 278,56 279,53 280,69 281,82 282,69 283,102 284,94 285,98 286,108 287,86 288,87 289,88 290,80 291,67 292,72 293,64 294,71 295,56 296,67 297,67 298,73 299,81 300,77 301,62 302,72 303,68 304,60 305,81 306,88 307,87 308,89 309,92 310,97 311,99 312,97 313,88 314,95 315,99 316,85 317,75 318,63 319,67 320,65 321,61 322,67 323,67 324,55 325,60 326,74 327,70 328,64 329,60 330,73 331,76 332,64 333,67 334,59 335,57 336,57 337,54 338,54 339,50 340,44 341,41 342,34 343,43 344,41 345,48 346,46 347,23 348,40 349,58 350,62 351,69 352,73 353,51 354,61 355,45 356,56 357,63 358,37 359,29 360,36 361,27 362,44 363,47 364,45 365,67 366,55 367,54 368,48 369,54 370,56 371,49 372,41 373,21 374,26 375,14 376,23 377,39 378,52 379,16 380,19 381,38 382,40 383,66 384,81 385,92 386,82 387,81 388,87 389,79 390,80 391,60 392,67 393,71 394,66 395,83 396,75 397,54 398,56 399,51 400,54 401,57 402,69 403,73 404,60 405,66 406,81 407,84 408,99 409,98 410,90 411,93 412,97 413,102 414,106 415,102 416,105 417,106 418,101 419,103 420,110 421,98 422,92 423,91 424,93 425,97 426,105 427,97 428,95 429,86 430,90 431,97 432,90 433,58 434,60 435,50 436,56 437,58 438,44 439,43 440,31 441,39 442,48 443,50 444,54 445,47 446,52 447,50 448,47 449,47 450,42 451,50 452,41 453,46 454,45 455,62 456,80 457,95 458,112 459,112 460,105 461,108 462,100 463,101 464,98 465,95 466,91 467,79 468,89 469,89 469,110 468,112 467,113 466,113 465,112 464,116 463,114 462,118 461,120 460,120 459,120 458,120 457,117 456,110 455,100 454,86 453,81 452,77 451,79 450,76 449,82 448,83 447,86 446,87 445,81 444,84 443,82 442,83 441,74 440,68 439,72 438,80 437,90 436,90 435,89 434,88 433,97 432,113 431,115 430,108 429,103 428,112 427,117 426,119 425,113 424,109 423,109 422,110 421,116 420,120 419,120 418,117 417,120 416,118 415,118 414,119 413,118 412,117 411,111 410,115 409,118 408,112 407,110 406,104 405,101 404,99 403,102 402,92 401,90 400,88 399,89 398,89 397,97 396,108 395,106 394,91 393,99 392,96 391,98 390,104 389,100 388,112 387,106 386,104 385,106 384,109 383,109 382,95 381,85 380,63 379,78 378,92 377,71 376,59 375,68 374,66 373,69 372,80 371,88 370,84 369,84 368,83 367,85 366,90 365,89 364,88 363,78 362,80 361,75 360,73 359,73 358,85 357,91 356,95 355,89 354,93 353,92 352,97 351,101 350,95 349,86 348,82 347,79 346,78 345,85 344,78 343,81 342,76 341,79 340,79 339,84 338,84 337,84 336,88 335,88 334,91 333,94 332,96 331,98 330,100 329,90 328,97 327,96 326,101 325,93 324,90 323,92 322,90 321,88 320,93 319,91 318,88 317,93 316,100 315,112 314,112 313,104 312,110 311,114 310,108 309,106 308,108 307,111 306,107 305,102 304,97 303,98 302,97 301,96 300,100 299,100 298,97 297,95 296,93 295,94 294,95 293,96 292,98 291,95 290,100 289,106 288,105 287,111 286,120 285,116 284,114 283,118 282,99 281,107 280,100 279,87 278,89 277,87 276,86 275,83 274,89 273,91 272,96 271,107 270,107 269,108 268,106 267,106 266,105 265,106 264,103 263,103 262,100 261,89 260,87 259,91 258,99 257,96 256,94 255,80 254,85 253,84 252,86 251,90 250,86 249,90 248,91 247,90 246,83 245,76 244,75 243,75 242,80 241,81 240,78 239,76 238,80 237,88 236,102 235,108 234,109 233,109 232,103 231,112 230,116 229,106 228,113 227,120 226,120 225,119 224,112 223,116 222,118 221,107 220,105 219,116 218,113 217,113 216,115 215,109 214,106 213,103 212,94 211,85 210,80 209,88 208,87 207,85 206,86 205,88 204,92 203,99 202,95 201,97 200,89 199,92 198,88 197,78 196,76 195,68 194,67 193,82 192,105 191,114 190,118 189,112 188,114 187,116 186,112 185,115 184,113 183,116 182,117 181,116 180,119 179,117 178,115 177,117 176,117 175,118 174,112 173,117 172,120 171,118 170,119 169,112 168,102 167,107 166,100 165,98 164,96 163,105 162,109 161,91 160,87 159,90 158,87 157,83 156,87 155,86 154,84 153,81 152,76 151,70 150,67 149,62 148,64 147,68 146,92 145,112 144,104 143,116 142,118 141,120 140,120 139,119 138,119 137,120 136,119 135,119 134,117 133,114 132,118 131,112 130,113 129,115 128,111 127,115 126,111 125,104 124,114 123,113 122,102 121,107 120,114 119,111 118,109 117,112 116,97 115,96 114,82 113,96 112,106 111,110 110,112 109,98 108,99 107,98 106,100 105,106 104,108 103,108 102,105 101,112 100,108 99,113 98,112 97,114 96,109 95,101 94,107 93,103 92,113 91,113 90,114 89,117 88,115 87,112 86,115 85,116 84,112 83,118 82,119 81,115 80,118 79,94 78,98 77,92 76,88 75,88 74,91 73,87 72,83 71,76 70,75 69,81 68,75 67,78 " />
	<!-- OutsidePressure -->
	<polyline style="fill:none;stroke:green;clip-path:url(#GraphRegion)" points="67,94 68,95 69,96 70,97 71,97 72,97 73,98 74,100 75,103 76,104 77,106 78,107 79,107 80,108 81,108 82,109 83,109 84,109 85,109 86,108 87,108 88,109 89,111 90,112 91,114 92,114 93,115 94,115 95,117 96,117 97,115 98,116 99,114 100,115 101,115 102,112 103,110 104,109 105,107 106,104 107,103 108,100 109,99 110,98 111,95 112,95 113,95 114,96 115,94 116,93 117,92 118,92 119,92 120,92 121,92 122,91 123,91 124,91 125,91 126,89 127,90 128,88 129,86 130,84 131,84 132,81 133,78 134,80 135,80 136,81 137,86 138,88 139,88 140,91 141,91 142,93 143,94 144,95 145,96 146,96 147,96 148,95 149,95 150,92 151,89 152,86 153,83 154,79 155,76 156,74 157,72 158,69 159,66 160,65 161,63 162,62 163,63 164,64 165,65 166,66 167,66 168,66 169,66 170,66 171,67 172,68 173,69 174,69 175,68 176,68 177,67 178,67 179,66 180,66 181,65 182,66 183,67 184,67 185,68 186,70 187,69 188,69 189,69 190,69 191,70 192,71 193,72 194,72 195,72 196,70 197,68 198,67 199,66 200,63 201,60 202,56 203,54 204,51 205,49 206,47 207,45 208,43 209,40 210,39 211,38 212,37 213,37 214,36 215,35 216,34 217,35 218,35 219,35 220,37 221,37 222,36 223,34 224,34 225,33 226,32 227,32 228,32 229,32 230,31 231,31 232,31 233,31 234,32 235,32 236,33 237,34 238,35 239,36 240,38 241,39 242,40 243,39 244,39 245,38 246,37 247,35 248,34 249,32 250,29 251,27 252,23 253,21 254,18 255,17 256,15 257,14 258,14 259,14 260,15 261,15 262,16 263,17 264,18 265,19 266,20 267,21 268,22 269,22 270,23 271,22 272,22 273,21 274,21 275,22 276,22 277,22 278,21 279,21 280,22 281,23 282,24 283,25 284,26 285,26 286,28 287,29 288,31 289,30 290,30 291,29 292,29 293,27 294,26 295,24 296,23 297,21 298,19 299,17 300,16 301,15 302,15 303,15 304,14 305,14 306,15 307,16 308,19 309,21 310,23 311,25 312,27 313,28 314,31 315,32 316,34 317,35 318,35 319,36 320,38 321,39 322,41 323,43 324,45 325,46 326,47 327,48 328,48 329,50 330,51 331,53 332,55 333,56 334,60 335,63 336,65 337,67 338,70 339,72 340,73 341,74 342,75 343,75 344,76 345,77 346,77 347,77 348,77 349,76 350,77 351,77 352,78 353,78 354,78 355,78 356,79 357,79 358,79 359,80 360,82 361,84 362,86 363,89 364,91 365,91 366,90 367,89 368,89 369,89 370,91 371,90 372,90 373,91 374,92 375,93 376,95 377,93 378,91 379,90 380,94 381,97 382,98 383,101 384,105 385,109 386,113 387,114 388,114 389,114 390,114 391,113 392,111 393,111 394,109 395,106 396,103 397,102 398,101 399,100 400,98 401,96 402,93 403,91 404,91 405,91 406,91 407,89 408,89 409,90 410,90 411,92 412,91 413,90 414,90 415,90 416,90 417,92 418,91 419,91 420,91 421,91 422,92 423,93 424,93 425,92 426,91 427,90 428,90 429,90 430,89 431,89 432,89 433,90 434,90 435,89 436,87 437,86 438,84 439,83 440,81 441,79 442,76 443,73 444,70 445,68 446,66 447,64 448,62 449,59 450,58 451,56 452,56 453,55 454,54 455,53 456,54 457,54 458,54 459,55 460,57 461,58 462,58 463,57 464,56 465,57 466,57 467,56 468,57 469,57 " />
	<!-- ApparentWindSpeed -->
	<polyline style="fill:none;stroke:blue;clip-path:url(#GraphRegion)" points="67,78 68,75 69,81 70,75 71,76 72,83 73,87 74,91 75,88 76,88 77,92 78,98 79,94 80,118 81,115 82,119 83,118 84,112 85,116 86,115 87,112 88,115 89,117 90,114 91,113 92,113 93,103 94,107 95,101 96,109 97,114 98,112 99,113 100,108 101,112 102,105 103,108 104,108 105,106 106,100 107,98 108,99 109,98 110,112 111,110 112,106 113,96 114,82 115,96 116,97 117,112 118,109 119,111 120,114 121,107 122,102 123,113 124,114 125,104 126,111 127,115 128,111 129,115 130,113 131,112 132,118 133,114 134,117 135,119 136,119 137,120 138,119 139,119 140,120 141,120 142,118 143,116 144,104 145,112 146,92 147,68 148,64 149,62 150,67 151,70 152,76 153,81 154,84 155,86 156,87 157,83 158,87 159,90 160,87 161,91 162,109 163,105 164,96 165,98 166,100 167,107 168,102 169,112 170,119 171,118 172,120 173,117 174,112 175,118 176,117 177,117 178,115 179,117 180,119 181,116 182,117 183,116 184,113 185,115 186,112 187,116 188,114 189,112 190,118 191,114 192,105 193,82 194,67 195,68 196,76 197,78 198,88 199,92 200,89 201,97 202,95 203,99 204,92 205,88 206,86 207,85 208,87 209,88 210,80 211,85 212,94 213,103 214,106 215,109 216,115 217,113 218,113 219,116 220,105 221,107 222,118 223,116 224,112 225,119 226,120 227,120 228,113 229,106 230,116 231,112 232,103 233,109 234,109 235,108 236,102 237,88 238,80 239,76 240,78 241,81 242,80 243,75 244,75 245,76 246,83 247,90 248,91 249,90 250,86 251,90 252,86 253,84 254,85 255,80 256,94 257,96 258,99 259,91 260,87 261,89 262,100 263,103 264,103 265,106 266,105 267,106 268,106 269,108 270,107 271,107 272,96 273,91 274,89 275,83 276,86 277,87 278,89 279,87 280,100 281,107 282,99 283,118 284,114 285,116 286,120 287,111 288,105 289,106 290,100 291,95 292,98 293,96 294,95 295,94 296,93 297,95 298,97 299,100 300,100 301,96 302,97 303,98 304,97 305,102 306,107 307,111 308,108 309,106 310,108 311,114 312,110 313,104 314,112 315,112 316,100 317,93 318,88 319,91 320,93 321,88 322,90 323,92 324,90 325,93 326,101 327,96 328,97 329,90 330,100 331,98 332,96 333,94 334,91 335,88 336,88 337,84 338,84 339,84 340,79 341,79 342,76 343,81 344,78 345,85 346,78 347,79 348,82 349,86 350,95 351,101 352,97 353,92 354,93 355,89 356,95 357,91 358,85 359,73 360,73 361,75 362,80 363,78 364,88 365,89 366,90 367,85 368,83 369,84 370,84 371,88 372,80 373,69 374,66 375,68 376,59 377,71 378,92 379,78 380,63 381,85 382,95 383,109 384,109 385,106 386,104 387,106 388,112 389,100 390,104 391,98 392,96 393,99 394,91 395,106 396,108 397,97 398,89 399,89 400,88 401,90 402,92 403,102 404,99 405,101 406,104 407,110 408,112 409,118 410,115 411,111 412,117 413,118 414,119 415,118 416,118 417,120 418,117 419,120 420,120 421,116 422,110 423,109 424,109 425,113 426,119 427,117 428,112 429,103 430,108 431,115 432,113 433,97 434,88 435,89 436,90 437,90 438,80 439,72 440,68 441,74 442,83 443,82 444,84 445,81 446,87 447,86 448,83 449,82 450,76 451,79 452,77 453,81 454,86 455,100 456,110 457,117 458,120 459,120 460,120 461,120 462,118 463,114 464,116 465,112 466,113 467,113 468,112 469,110 " />
	<text class="barometer-label" x="50%" y="395">Rain</text>
	<text class="barometer-label" x="50%" y="198">Change</text>
	<text class="barometer-label" x="50%" y="0">Fair</text>
</svg>
