<?xml version="1.0" encoding="utf-8" standalone="no"?>
<svg xmlns="http://www.w3.org/2000/svg" xmlns:xlink="http://www.w3.org/1999/xlink" width="500" height="135">
	<!-- Created by: WeatherFlowTempestLogger Version 1.20240617.3 Built on: Jun 17 2024 at 22:43:41 -->
	<clipPath id="GraphRegion"><polygon points="54,14 470,14 470,121 54,121" /></clipPath>
	<style>
		text { font-family: sans-serif; font-size: 12px; fill: black; }
		line { stroke: black; }
		polygon { fill-opacity: 0.5; }
	</style>
	<rect style="fill-opacity:0;stroke:grey;stroke-width:2" width="500" height="135" />
	<text x="54" y="12">Tempest</text>
	<text style="text-anchor:end" x="470" y="12">2024-06-18 04:00:00</text>
	<text style="fill:blue;text-anchor:middle" x="12" y="50%" transform="rotate(270 12,67)">Temperature (53.0°F)</text>
	<text style="fill:green;text-anchor:middle" x="24" y="50%" transform="rotate(270 24,67)">Humidity (80.8%)</text>
	<!-- Humidity -->
	<polygon style="fill:lime;stroke:green;clip-path:url(#GraphRegion)" points="55,120 54,22 55,30 56,24 57,19 58,27 59,59 60,54 61,74 62,75 63,75 64,75 65,75 66,75 67,75 68,75 69,75 70,75 71,75 72,75 73,75 74,75 75,75 76,75 77,75 78,75 79,75 80,75 81,75 82,75 83,75 84,75 85,75 86,75 87,75 88,75 89,75 90,75 91,75 92,75 93,75 94,75 95,75 96,75 97,75 98,65 99,41 100,33 101,38 102,36 103,49 104,66 105,82 106,89 107,97 108,121 109,105 110,56 111,34 112,16 113,14 114,26 115,46 116,52 117,57 118,78 119,83 120,81 121,76 122,67 123,56 124,55 125,49 126,36 127,40 128,52 129,48 130,47 131,44 132,94 133,81 134,56 135,29 136,120" />
	<line x1="52" y1="14" x2="472" y2="14"/>
	<text style="fill:blue;text-anchor:end;dominant-baseline:middle" x="52" y="14">65.9</text>
	<text style="fill:green;dominant-baseline:middle" x="472" y="14">84.0</text>
	<line x1="52" y1="121" x2="472" y2="121"/>
	<text style="fill:blue;text-anchor:end;dominant-baseline:middle" x="52" y="121">48.3</text>
	<text style="fill:green;dominant-baseline:middle" x="472" y="121">42.2</text>
	<line x1="54" y1="14" x2="54" y2="121"/>
	<line x1="470" y1="14" x2="470" y2="121"/>
	<line style="stroke-dasharray:1" x1="52" y1="40" x2="472" y2="40" />
	<text style="fill:blue;text-anchor:end;dominant-baseline:middle" x="52" y="40">61.5</text>
	<text style="fill:green;dominant-baseline:middle" x="472" y="40">73.5</text>
	<line style="stroke-dasharray:1" x1="52" y1="66" x2="472" y2="66" />
	<text style="fill:blue;text-anchor:end;dominant-baseline:middle" x="52" y="66">57.1</text>
	<text style="fill:green;dominant-baseline:middle" x="472" y="66">63.1</text>
	<line style="stroke-dasharray:1" x1="52" y1="92" x2="472" y2="92" />
	<text style="fill:blue;text-anchor:end;dominant-baseline:middle" x="52" y="92">52.7</text>
	<text style="fill:green;dominant-baseline:middle" x="472" y="92">52.6</text>
	<line style="stroke-dasharray:1" x1="80" y1="14" x2="80" y2="123" />
	<text style="text-anchor:middle" x="122" y="133">Week 24</text>
	<polygon style="fill:red;stroke:red;fill-opacity:1;" points="51,121 57,118 57,124" />
	<!-- Temperature -->
	<polyline style="fill:none;stroke:blue;clip-path:url(#GraphRegion)" points="55,84 56,78 57,75 58,63 59,57 60,61 61,36 62,36 63,36 64,36 65,36 66,36 67,36 68,36 69,36 70,36 71,36 72,36 73,36 74,36 75,36 76,36 77,36 78,36 79,36 80,36 81,36 82,36 83,36 84,36 85,36 86,36 87,36 88,36 89,36 90,36 91,36 92,36 93,36 94,36 95,36 96,36 97,36 98,52 99,81 100,100 101,103 102,103 103,91 104,74 105,46 106,35 107,24 108,14 109,28 110,61 111,83 112,110 113,121 114,109 115,96 116,83 117,69 118,49 119,38 120,40 121,50 122,61 123,76 124,88 125,93 126,98 127,92 128,79 129,80 130,73 131,64 132,16 133,19 134,41 135,69 " />
</svg>
