<?xml version="1.0" encoding="utf-8" standalone="no"?>
<svg xmlns="http://www.w3.org/2000/svg" xmlns:xlink="http://www.w3.org/1999/xlink" width="500" height="135">
	<!-- Created by: WeatherFlowTempestLogger Version 1.20240722.0 Built on: Jul 22 2024 at 17:05:23 -->
	<clipPath id="GraphRegion"><polygon points="66,14 470,14 470,121 66,121" /></clipPath>
	<style>
		text { font-family: sans-serif; font-size: 12px; fill: black; }
		line { stroke: black; }
		polygon { fill-opacity: 0.5; }
		.barometer-label { font-family: Georgia, serif; font-style: italic; font-size: 193px; opacity: 0.5; clip-path: url(#GraphRegion); text-anchor: middle; dominant-baseline: middle; }
	</style>
	<rect style="fill-opacity:0;stroke:grey;stroke-width:2" width="500" height="135" />
	<text x="66" y="12">Tempest Wind &amp; Pressure</text>
	<text style="text-anchor:end" x="470" y="12">2024-09-08 11:49:47</text>
	<text style="fill:blue;text-anchor:middle" x="12" y="50%" transform="rotate(270 12,67)">Wind Speed (3.5 kn)</text>
	<text style="fill:blue;text-anchor:middle" x="24" y="50%" transform="rotate(270 24,67)">Wind Gust (7.6 kn)</text>
	<text style="fill:green;text-anchor:middle" x="36" y="50%" transform="rotate(270 36,67)">Pressure (1011.9 hPa)</text>
	<line x1="64" y1="14" x2="472" y2="14"/>
	<text style="fill:blue;text-anchor:end;dominant-baseline:middle" x="64" y="14">9.5</text>
	<text style="fill:green;dominant-baseline:middle" x="472" y="14">1014.3</text>
	<line style="stroke-dasharray:1" x1="64" y1="40" x2="472" y2="40" />
	<text style="fill:blue;text-anchor:end;dominant-baseline:middle" x="64" y="40">7.1</text>
	<text style="fill:green;dominant-baseline:middle" x="472" y="40">1012.9</text>
	<line style="stroke-dasharray:1" x1="64" y1="66" x2="472" y2="66" />
	<text style="fill:blue;text-anchor:end;dominant-baseline:middle" x="64" y="66">4.8</text>
	<text style="fill:green;dominant-baseline:middle" x="472" y="66">1011.5</text>
	<line style="stroke-dasharray:1" x1="64" y1="92" x2="472" y2="92" />
	<text style="fill:blue;text-anchor:end;dominant-baseline:middle" x="64" y="92">2.4</text>
	<text style="fill:green;dominant-baseline:middle" x="472" y="92">1010.1</text>
	<line x1="64" y1="121" x2="472" y2="121"/>
	<text style="fill:blue;text-anchor:end;dominant-baseline:middle" x="64" y="121">0.0</text>
	<text style="fill:green;dominant-baseline:middle" x="472" y="121">1008.8</text>
	<line x1="66" y1="14" x2="66" y2="121"/>
	<line style="stroke-dasharray:1" x1="75" y1="14" x2="75" y2="123" />
	<line style="stroke-dasharray:1" x1="87" y1="14" x2="87" y2="123" />
	<text style="text-anchor:middle" x="87" y="133">10</text>
	<line style="stroke-dasharray:1" x1="99" y1="14" x2="99" y2="123" />
	<line style="stroke-dasharray:1" x1="111" y1="14" x2="111" y2="123" />
	<text style="text-anchor:middle" x="111" y="133">8</text>
	<line style="stroke-dasharray:1" x1="123" y1="14" x2="123" y2="123" />
	<line style="stroke-dasharray:1" x1="135" y1="14" x2="135" y2="123" />
	<text style="text-anchor:middle" x="135" y="133">6</text>
	<line style="stroke-dasharray:1" x1="147" y1="14" x2="147" y2="123" />
	<line style="stroke-dasharray:1" x1="159" y1="14" x2="159" y2="123" />
	<text style="text-anchor:middle" x="159" y="133">4</text>
	<line style="stroke-dasharray:1" x1="171" y1="14" x2="171" y2="123" />
	<line style="stroke-dasharray:1" x1="183" y1="14" x2="183" y2="123" />
	<text style="text-anchor:middle" x="183" y="133">2</text>
	<line style="stroke-dasharray:1" x1="195" y1="14" x2="195" y2="123" />
	<line style="stroke:red" x1="207" y1="14" x2="207" y2="123" />
	<text style="text-anchor:middle" x="207" y="133">0</text>
	<line style="stroke-dasharray:1" x1="219" y1="14" x2="219" y2="123" />
	<line style="stroke-dasharray:1" x1="231" y1="14" x2="231" y2="123" />
	<text style="text-anchor:middle" x="231" y="133">22</text>
	<line style="stroke-dasharray:1" x1="243" y1="14" x2="243" y2="123" />
	<line style="stroke-dasharray:1" x1="255" y1="14" x2="255" y2="123" />
	<text style="text-anchor:middle" x="255" y="133">20</text>
	<line style="stroke-dasharray:1" x1="267" y1="14" x2="267" y2="123" />
	<line style="stroke-dasharray:1" x1="279" y1="14" x2="279" y2="123" />
	<text style="text-anchor:middle" x="279" y="133">18</text>
	<line style="stroke-dasharray:1" x1="291" y1="14" x2="291" y2="123" />
	<line style="stroke-dasharray:1" x1="303" y1="14" x2="303" y2="123" />
	<text style="text-anchor:middle" x="303" y="133">16</text>
	<line style="stroke-dasharray:1" x1="315" y1="14" x2="315" y2="123" />
	<line style="stroke-dasharray:1" x1="327" y1="14" x2="327" y2="123" />
	<text style="text-anchor:middle" x="327" y="133">14</text>
	<line style="stroke-dasharray:1" x1="339" y1="14" x2="339" y2="123" />
	<line style="stroke-dasharray:1" x1="351" y1="14" x2="351" y2="123" />
	<text style="text-anchor:middle" x="351" y="133">12</text>
	<line style="stroke-dasharray:1" x1="363" y1="14" x2="363" y2="123" />
	<line style="stroke-dasharray:1" x1="375" y1="14" x2="375" y2="123" />
	<text style="text-anchor:middle" x="375" y="133">10</text>
	<line style="stroke-dasharray:1" x1="387" y1="14" x2="387" y2="123" />
	<line style="stroke-dasharray:1" x1="399" y1="14" x2="399" y2="123" />
	<text style="text-anchor:middle" x="399" y="133">8</text>
	<line style="stroke-dasharray:1" x1="411" y1="14" x2="411" y2="123" />
	<line style="stroke-dasharray:1" x1="423" y1="14" x2="423" y2="123" />
	<text style="text-anchor:middle" x="423" y="133">6</text>
	<line style="stroke-dasharray:1" x1="435" y1="14" x2="435" y2="123" />
	<line style="stroke-dasharray:1" x1="447" y1="14" x2="447" y2="123" />
	<text style="text-anchor:middle" x="447" y="133">4</text>
	<line style="stroke-dasharray:1" x1="459" y1="14" x2="459" y2="123" />
	<line x1="470" y1="14" x2="470" y2="121"/>
	<polygon style="fill:red;stroke:red;fill-opacity:1;" points="63,121 69,118 69,124" />
	<!-- OutsidePressure MinMax -->
	<polygon style="fill:green;stroke:green;clip-path:url(#GraphRegion)" points="67,58 68,58 69,58 70,57 71,56 72,56 73,56 74,56 75,55 76,55 77,55 78,56 79,56 80,57 81,58 82,59 83,60 84,59 85,58 86,58 87,58 88,59 89,59 90,59 91,60 92,60 93,60 94,61 95,62 96,63 97,63 98,62 99,61 100,62 101,63 102,62 103,62 104,63 105,63 106,63 107,63 108,63 109,64 110,64 111,64 112,64 113,64 114,64 115,64 116,65 117,66 118,66 119,68 120,70 121,71 122,74 123,74 124,76 125,77 126,78 127,78 128,77 129,78 130,80 131,80 132,81 133,81 134,82 135,82 136,84 137,84 138,84 139,84 140,86 141,86 142,87 143,88 144,88 145,87 146,86 147,87 148,86 149,86 150,86 151,86 152,86 153,87 154,88 155,89 156,89 157,89 158,90 159,90 160,90 161,90 162,90 163,89 164,89 165,90 166,92 167,91 168,91 169,91 170,91 171,91 172,91 173,92 174,93 175,93 176,92 177,93 178,91 179,91 180,91 181,90 182,90 183,90 184,91 185,91 186,91 187,92 188,91 189,90 190,90 191,89 192,88 193,89 194,89 195,89 196,89 197,91 198,91 199,91 200,90 201,90 202,90 203,91 204,93 205,95 206,96 207,97 208,96 209,97 210,97 211,96 212,96 213,97 214,98 215,98 216,99 217,100 218,103 219,103 220,102 221,102 222,103 223,103 224,102 225,103 226,101 227,102 228,103 229,104 230,107 231,107 232,107 233,105 234,104 235,107 236,111 237,114 238,108 239,101 240,100 241,101 242,104 243,103 244,109 245,118 246,113 247,112 248,106 249,105 250,111 251,113 252,114 253,111 254,110 255,110 256,104 257,103 258,104 259,107 260,108 261,109 262,111 263,108 264,111 265,110 266,109 267,109 268,105 269,104 270,104 271,103 272,102 273,102 274,106 275,102 276,102 277,103 278,111 279,109 280,108 281,104 282,105 283,103 284,103 285,100 286,100 287,101 288,97 289,95 290,100 291,97 292,92 293,93 294,91 295,92 296,99 297,98 298,95 299,90 300,88 301,86 302,90 303,87 304,84 305,82 306,83 307,86 308,87 309,82 310,80 311,81 312,82 313,77 314,75 315,76 316,78 317,79 318,77 319,74 320,70 321,68 322,68 323,70 324,70 325,69 326,69 327,68 328,66 329,66 330,65 331,66 332,66 333,64 334,64 335,67 336,66 337,63 338,59 339,58 340,58 341,57 342,56 343,56 344,56 345,57 346,60 347,58 348,58 349,56 350,55 351,57 352,54 353,53 354,56 355,58 356,59 357,60 358,61 359,59 360,60 361,62 362,59 363,57 364,56 365,56 366,53 367,52 368,52 369,53 370,52 371,52 372,52 373,52 374,50 375,49 376,50 377,50 378,50 379,50 380,49 381,49 382,50 383,50 384,51 385,51 386,52 387,51 388,52 389,51 390,50 391,51 392,51 393,51 394,50 395,49 396,49 397,47 398,47 399,48 400,48 401,50 402,51 403,52 404,49 405,46 406,45 407,46 408,50 409,51 410,50 411,50 412,49 413,48 414,47 415,47 416,47 417,47 418,47 419,47 420,49 421,49 422,51 423,48 424,48 425,49 426,48 427,48 428,47 429,45 430,44 431,43 432,42 433,41 434,42 435,45 436,47 437,46 438,46 439,45 440,45 441,45 442,45 443,43 444,39 445,38 446,38 447,39 448,37 449,36 450,36 451,35 452,34 453,34 454,34 455,31 456,27 457,26 458,26 459,31 460,30 461,27 462,27 463,32 464,29 465,27 466,25 467,23 468,20 469,20 469,20 468,22 467,24 466,27 465,29 464,32 463,33 462,31 461,30 460,32 459,32 458,30 457,27 456,31 455,33 454,35 453,34 452,35 451,36 450,36 449,37 448,39 447,40 446,39 445,39 444,42 443,44 442,45 441,45 440,45 439,46 438,46 437,47 436,48 435,47 434,44 433,41 432,43 431,44 430,44 429,46 428,48 427,48 426,50 425,50 424,48 423,50 422,51 421,50 420,49 419,48 418,48 417,47 416,48 415,48 414,48 413,49 412,51 411,51 410,51 409,52 408,51 407,49 406,46 405,48 404,52 403,53 402,53 401,51 400,49 399,49 398,48 397,50 396,50 395,50 394,51 393,52 392,52 391,52 390,51 389,54 388,54 387,52 386,53 385,52 384,51 383,50 382,51 381,50 380,50 379,50 378,51 377,51 376,50 375,50 374,51 373,52 372,52 371,53 370,53 369,55 368,54 367,53 366,55 365,56 364,57 363,59 362,61 361,63 360,62 359,60 358,62 357,62 356,60 355,59 354,58 353,56 352,56 351,57 350,56 349,58 348,58 347,60 346,61 345,59 344,57 343,57 342,57 341,58 340,59 339,59 338,62 337,65 336,67 335,68 334,67 333,66 332,67 331,67 330,66 329,66 328,68 327,69 326,70 325,71 324,71 323,71 322,72 321,70 320,72 319,77 318,79 317,81 316,81 315,78 314,76 313,81 312,83 311,82 310,81 309,86 308,91 307,90 306,86 305,83 304,86 303,90 302,91 301,89 300,92 299,94 298,97 297,99 296,101 295,98 294,95 293,96 292,96 291,101 290,101 289,100 288,101 287,102 286,101 285,103 284,105 283,108 282,108 281,107 280,109 279,111 278,113 277,109 276,106 275,108 274,107 273,106 272,103 271,107 270,107 269,106 268,108 267,109 266,109 265,110 264,113 263,110 262,115 261,112 260,109 259,107 258,107 257,103 256,108 255,113 254,111 253,113 252,115 251,114 250,113 249,110 248,113 247,114 246,120 245,121 244,117 243,106 242,107 241,103 240,104 239,107 238,117 237,120 236,113 235,114 234,105 233,107 232,109 231,108 230,109 229,106 228,106 227,103 226,103 225,105 224,103 223,105 222,105 221,104 220,105 219,104 218,104 217,103 216,100 215,99 214,99 213,99 212,98 211,98 210,98 209,97 208,97 207,99 206,98 205,96 204,95 203,93 202,92 201,90 200,91 199,92 198,92 197,92 196,90 195,90 194,90 193,90 192,88 191,90 190,90 189,90 188,91 187,92 186,92 185,91 184,92 183,91 182,91 181,91 180,91 179,91 178,93 177,93 176,93 175,94 174,93 173,93 172,91 171,91 170,91 169,91 168,91 167,92 166,92 165,92 164,90 163,89 162,90 161,90 160,90 159,90 158,90 157,90 156,90 155,91 154,89 153,88 152,87 151,86 150,86 149,87 148,87 147,87 146,87 145,88 144,88 143,88 142,88 141,87 140,86 139,86 138,84 137,85 136,85 135,83 134,82 133,82 132,81 131,81 130,81 129,80 128,78 127,79 126,79 125,79 124,77 123,75 122,74 121,73 120,71 119,70 118,68 117,67 116,66 115,65 114,64 113,64 112,64 111,64 110,64 109,64 108,64 107,63 106,63 105,63 104,63 103,63 102,63 101,63 100,63 99,62 98,63 97,63 96,63 95,63 94,62 93,61 92,61 91,60 90,60 89,59 88,59 87,58 86,58 85,59 84,60 83,60 82,60 81,58 80,58 79,58 78,56 77,56 76,56 75,56 74,56 73,56 72,56 71,57 70,57 69,59 68,59 67,59 " />
	<!-- ApparentWindSpeed MinMax -->
	<polygon style="fill:blue;stroke:blue;clip-path:url(#GraphRegion)" points="67,39 68,61 69,58 70,58 71,42 72,45 73,32 74,38 75,35 76,44 77,41 78,50 79,33 80,37 81,23 82,31 83,23 84,47 85,40 86,36 87,46 88,39 89,46 90,50 91,18 92,45 93,40 94,49 95,30 96,38 97,14 98,26 99,33 100,36 101,49 102,25 103,40 104,32 105,23 106,26 107,34 108,71 109,47 110,52 111,50 112,74 113,56 114,56 115,49 116,61 117,41 118,59 119,65 120,73 121,68 122,68 123,67 124,64 125,62 126,54 127,47 128,57 129,51 130,58 131,34 132,63 133,70 134,67 135,59 136,61 137,69 138,67 139,68 140,71 141,65 142,86 143,81 144,74 145,78 146,80 147,66 148,70 149,70 150,75 151,70 152,73 153,91 154,98 155,103 156,105 157,120 158,116 159,107 160,93 161,99 162,102 163,120 164,105 165,103 166,110 167,109 168,108 169,114 170,104 171,105 172,104 173,103 174,109 175,104 176,105 177,106 178,93 179,98 180,99 181,102 182,96 183,94 184,103 185,106 186,103 187,104 188,109 189,101 190,95 191,99 192,106 193,98 194,104 195,99 196,99 197,78 198,77 199,89 200,102 201,102 202,99 203,98 204,98 205,106 206,99 207,106 208,95 209,102 210,103 211,103 212,97 213,91 214,77 215,107 216,93 217,96 218,109 219,101 220,83 221,94 222,106 223,97 224,92 225,98 226,112 227,97 228,92 229,91 230,99 231,92 232,84 233,77 234,80 235,81 236,74 237,70 238,87 239,81 240,99 241,88 242,102 243,61 244,69 245,91 246,84 247,72 248,74 249,73 250,109 251,97 252,74 253,85 254,103 255,84 256,99 257,107 258,94 259,108 260,104 261,99 262,93 263,89 264,101 265,100 266,107 267,101 268,95 269,100 270,103 271,101 272,86 273,85 274,101 275,87 276,81 277,54 278,107 279,97 280,99 281,91 282,94 283,96 284,97 285,96 286,84 287,94 288,80 289,76 290,80 291,85 292,97 293,95 294,82 295,95 296,75 297,98 298,97 299,75 300,84 301,75 302,91 303,91 304,91 305,85 306,77 307,88 308,77 309,78 310,82 311,78 312,76 313,75 314,71 315,77 316,65 317,64 318,78 319,83 320,84 321,84 322,81 323,82 324,71 325,73 326,69 327,65 328,59 329,82 330,85 331,82 332,73 333,78 334,89 335,99 336,99 337,107 338,85 339,103 340,95 341,106 342,87 343,86 344,84 345,80 346,87 347,88 348,93 349,87 350,90 351,80 352,86 353,78 354,65 355,61 356,59 357,52 358,40 359,44 360,46 361,42 362,44 363,55 364,54 365,77 366,70 367,70 368,79 369,79 370,68 371,71 372,69 373,75 374,78 375,92 376,93 377,90 378,87 379,97 380,100 381,82 382,89 383,82 384,79 385,79 386,88 387,96 388,91 389,87 390,83 391,88 392,98 393,96 394,103 395,108 396,106 397,110 398,76 399,87 400,76 401,83 402,91 403,100 404,109 405,99 406,81 407,79 408,72 409,88 410,75 411,92 412,94 413,95 414,105 415,93 416,101 417,99 418,101 419,109 420,114 421,96 422,90 423,79 424,86 425,83 426,78 427,64 428,94 429,99 430,89 431,89 432,100 433,95 434,96 435,98 436,108 437,105 438,85 439,99 440,92 441,100 442,113 443,95 444,96 445,93 446,75 447,91 448,105 449,105 450,101 451,98 452,87 453,99 454,113 455,94 456,102 457,82 458,77 459,98 460,96 461,90 462,79 463,105 464,112 465,116 466,108 467,113 468,109 469,100 469,113 468,119 467,120 466,118 465,120 464,120 463,119 462,95 461,110 460,107 459,113 458,101 457,109 456,116 455,111 454,120 453,112 452,108 451,117 450,113 449,119 448,118 447,110 446,101 445,103 444,106 443,112 442,120 441,117 440,110 439,114 438,111 437,119 436,118 435,114 434,114 433,115 432,109 431,105 430,106 429,110 428,109 427,102 426,94 425,97 424,106 423,99 422,106 421,112 420,120 419,119 418,113 417,111 416,113 415,112 414,118 413,111 412,108 411,107 410,100 409,102 408,89 407,95 406,94 405,115 404,120 403,116 402,111 401,94 400,90 399,102 398,95 397,120 396,118 395,118 394,117 393,112 392,113 391,114 390,105 389,103 388,106 387,118 386,106 385,107 384,108 383,107 382,108 381,107 380,117 379,113 378,107 377,111 376,108 375,110 374,96 373,93 372,91 371,89 370,99 369,95 368,98 367,98 366,91 365,97 364,89 363,80 362,75 361,74 360,80 359,79 358,71 357,79 356,82 355,85 354,91 353,97 352,100 351,98 350,105 349,105 348,107 347,106 346,102 345,95 344,99 343,103 342,108 341,119 340,108 339,116 338,103 337,117 336,118 335,113 334,112 333,100 332,97 331,96 330,102 329,97 328,88 327,89 326,95 325,93 324,93 323,99 322,97 321,102 320,104 319,96 318,99 317,89 316,87 315,95 314,98 313,92 312,99 311,95 310,102 309,97 308,92 307,111 306,102 305,111 304,104 303,104 302,107 301,93 300,113 299,96 298,114 297,116 296,94 295,109 294,104 293,112 292,113 291,108 290,100 289,99 288,99 287,107 286,100 285,114 284,110 283,110 282,112 281,105 280,113 279,113 278,119 277,85 276,106 275,106 274,117 273,105 272,105 271,114 270,117 269,110 268,106 267,117 266,116 265,113 264,114 263,101 262,108 261,111 260,113 259,119 258,113 257,119 256,114 255,100 254,113 253,105 252,92 251,115 250,119 249,102 248,96 247,95 246,99 245,107 244,103 243,87 242,117 241,102 240,113 239,105 238,98 237,94 236,94 235,102 234,96 233,98 232,108 231,104 230,114 229,109 228,107 227,114 226,120 225,110 224,110 223,115 222,118 221,107 220,104 219,115 218,119 217,113 216,111 215,119 214,107 213,108 212,111 211,119 210,118 209,119 208,111 207,119 206,118 205,120 204,115 203,112 202,110 201,115 200,116 199,109 198,108 197,105 196,112 195,115 194,117 193,113 192,118 191,107 190,114 189,112 188,120 187,118 186,115 185,118 184,116 183,104 182,104 181,113 180,108 179,110 178,109 177,120 176,118 175,116 174,118 173,116 172,120 171,119 170,118 169,120 168,119 167,119 166,119 165,118 164,117 163,120 162,115 161,109 160,109 159,118 158,120 157,120 156,119 155,118 154,113 153,112 152,97 151,89 150,89 149,91 148,89 147,88 146,94 145,98 144,93 143,96 142,102 141,88 140,93 139,88 138,87 137,87 136,86 135,83 134,86 133,86 132,84 131,82 130,84 129,78 128,82 127,79 126,77 125,85 124,88 123,87 122,89 121,93 120,90 119,87 118,80 117,78 116,84 115,72 114,81 113,82 112,91 111,80 110,77 109,78 108,88 107,78 106,70 105,76 104,66 103,67 102,74 101,76 100,71 99,61 98,60 97,57 96,77 95,74 94,72 93,68 92,72 91,72 90,75 89,84 88,73 87,75 86,66 85,75 84,74 83,64 82,66 81,66 80,67 79,75 78,80 77,76 76,71 75,62 74,68 73,72 72,76 71,75 70,86 69,89 68,83 67,88 " />
	<!-- OutsidePressure -->
	<polyline style="fill:none;stroke:green;clip-path:url(#GraphRegion)" points="67,59 68,59 69,58 70,57 71,56 72,56 73,56 74,56 75,55 76,55 77,56 78,56 79,57 80,57 81,58 82,59 83,60 84,60 85,58 86,58 87,58 88,59 89,59 90,59 91,60 92,60 93,61 94,62 95,63 96,63 97,63 98,63 99,62 100,62 101,63 102,63 103,63 104,63 105,63 106,63 107,63 108,63 109,64 110,64 111,64 112,64 113,64 114,64 115,65 116,66 117,67 118,67 119,69 120,70 121,72 122,74 123,75 124,77 125,78 126,79 127,78 128,78 129,79 130,80 131,81 132,81 133,82 134,82 135,83 136,84 137,84 138,84 139,85 140,86 141,87 142,88 143,88 144,88 145,87 146,86 147,87 148,86 149,86 150,86 151,86 152,87 153,87 154,88 155,90 156,90 157,90 158,90 159,90 160,90 161,90 162,90 163,89 164,89 165,91 166,92 167,91 168,91 169,91 170,91 171,91 172,91 173,92 174,93 175,93 176,92 177,93 178,92 179,91 180,91 181,90 182,90 183,91 184,91 185,91 186,91 187,92 188,91 189,90 190,90 191,89 192,88 193,89 194,89 195,90 196,90 197,92 198,92 199,92 200,90 201,90 202,92 203,92 204,94 205,96 206,97 207,98 208,97 209,97 210,98 211,97 212,97 213,98 214,99 215,98 216,100 217,102 218,104 219,104 220,104 221,103 222,104 223,104 224,103 225,105 226,102 227,102 228,104 229,105 230,108 231,107 232,108 233,106 234,105 235,111 236,112 237,118 238,112 239,104 240,102 241,102 242,106 243,104 244,113 245,119 246,117 247,113 248,109 249,108 250,112 251,114 252,115 253,112 254,111 255,112 256,107 257,103 258,106 259,107 260,108 261,110 262,113 263,109 264,112 265,110 266,109 267,109 268,106 269,105 270,105 271,105 272,103 273,104 274,107 275,105 276,105 277,105 278,112 279,110 280,109 281,105 282,107 283,105 284,104 285,101 286,101 287,101 288,100 289,97 290,101 291,99 292,94 293,95 294,93 295,94 296,100 297,99 298,96 299,91 300,91 301,87 302,91 303,88 304,86 305,82 306,85 307,88 308,89 309,84 310,81 311,81 312,82 313,79 314,76 315,77 316,80 317,80 318,78 319,76 320,71 321,69 322,70 323,71 324,71 325,70 326,69 327,69 328,67 329,66 330,65 331,66 332,67 333,65 334,65 335,68 336,67 337,64 338,60 339,59 340,58 341,57 342,56 343,56 344,56 345,58 346,60 347,59 348,58 349,57 350,56 351,57 352,55 353,54 354,57 355,58 356,59 357,61 358,62 359,60 360,61 361,62 362,60 363,58 364,56 365,56 366,55 367,52 368,53 369,54 370,52 371,53 372,52 373,52 374,51 375,50 376,50 377,51 378,50 379,50 380,50 381,50 382,50 383,50 384,51 385,51 386,53 387,51 388,53 389,53 390,51 391,52 392,52 393,51 394,50 395,50 396,50 397,49 398,47 399,49 400,48 401,50 402,52 403,53 404,51 405,47 406,46 407,48 408,51 409,52 410,50 411,50 412,50 413,48 414,47 415,47 416,47 417,47 418,48 419,48 420,49 421,50 422,51 423,49 424,48 425,50 426,49 427,48 428,47 429,46 430,44 431,44 432,42 433,41 434,43 435,46 436,48 437,46 438,46 439,46 440,45 441,45 442,45 443,44 444,40 445,39 446,38 447,39 448,38 449,37 450,36 451,36 452,35 453,34 454,34 455,32 456,29 457,26 458,28 459,32 460,31 461,28 462,29 463,33 464,31 465,28 466,26 467,24 468,21 469,20 " />
	<!-- ApparentWindSpeed -->
	<polyline style="fill:none;stroke:blue;clip-path:url(#GraphRegion)" points="67,88 68,83 69,89 70,86 71,75 72,76 73,72 74,68 75,62 76,71 77,76 78,80 79,75 80,67 81,66 82,66 83,64 84,74 85,75 86,66 87,75 88,73 89,84 90,75 91,72 92,72 93,68 94,72 95,74 96,77 97,57 98,60 99,61 100,71 101,76 102,74 103,67 104,66 105,76 106,70 107,78 108,88 109,78 110,77 111,80 112,91 113,82 114,81 115,72 116,84 117,78 118,80 119,87 120,90 121,93 122,89 123,87 124,88 125,85 126,77 127,79 128,82 129,78 130,84 131,82 132,84 133,86 134,86 135,83 136,86 137,87 138,87 139,88 140,93 141,88 142,102 143,96 144,93 145,98 146,94 147,88 148,89 149,91 150,89 151,89 152,97 153,112 154,113 155,118 156,119 157,120 158,120 159,118 160,109 161,109 162,115 163,120 164,117 165,118 166,119 167,119 168,119 169,120 170,118 171,119 172,120 173,116 174,118 175,116 176,118 177,120 178,109 179,110 180,108 181,113 182,104 183,104 184,116 185,118 186,115 187,118 188,120 189,112 190,114 191,107 192,118 193,113 194,117 195,115 196,112 197,105 198,108 199,109 200,116 201,115 202,110 203,112 204,115 205,120 206,118 207,119 208,111 209,119 210,118 211,119 212,111 213,108 214,107 215,119 216,111 217,113 218,119 219,115 220,104 221,107 222,118 223,115 224,110 225,110 226,120 227,114 228,107 229,109 230,114 231,104 232,108 233,98 234,96 235,102 236,94 237,94 238,98 239,105 240,113 241,102 242,117 243,87 244,103 245,107 246,99 247,95 248,96 249,102 250,119 251,115 252,92 253,105 254,113 255,100 256,114 257,119 258,113 259,119 260,113 261,111 262,108 263,101 264,114 265,113 266,116 267,117 268,106 269,110 270,117 271,114 272,105 273,105 274,117 275,106 276,106 277,85 278,119 279,113 280,113 281,105 282,112 283,110 284,110 285,114 286,100 287,107 288,99 289,99 290,100 291,108 292,113 293,112 294,104 295,109 296,94 297,116 298,114 299,96 300,113 301,93 302,107 303,104 304,104 305,111 306,102 307,111 308,92 309,97 310,102 311,95 312,99 313,92 314,98 315,95 316,87 317,89 318,99 319,96 320,104 321,102 322,97 323,99 324,93 325,93 326,95 327,89 328,88 329,97 330,102 331,96 332,97 333,100 334,112 335,113 336,118 337,117 338,103 339,116 340,108 341,119 342,108 343,103 344,99 345,95 346,102 347,106 348,107 349,105 350,105 351,98 352,100 353,97 354,91 355,85 356,82 357,79 358,71 359,79 360,80 361,74 362,75 363,80 364,89 365,97 366,91 367,98 368,98 369,95 370,99 371,89 372,91 373,93 374,96 375,110 376,108 377,111 378,107 379,113 380,117 381,107 382,108 383,107 384,108 385,107 386,106 387,118 388,106 389,103 390,105 391,114 392,113 393,112 394,117 395,118 396,118 397,120 398,95 399,102 400,90 401,94 402,111 403,116 404,120 405,115 406,94 407,95 408,89 409,102 410,100 411,107 412,108 413,111 414,118 415,112 416,113 417,111 418,113 419,119 420,120 421,112 422,106 423,99 424,106 425,97 426,94 427,102 428,109 429,110 430,106 431,105 432,109 433,115 434,114 435,114 436,118 437,119 438,111 439,114 440,110 441,117 442,120 443,112 444,106 445,103 446,101 447,110 448,118 449,119 450,113 451,117 452,108 453,112 454,120 455,111 456,116 457,109 458,101 459,113 460,107 461,110 462,95 463,119 464,120 465,120 466,118 467,120 468,119 469,113 " />
</svg>
