<?xml version="1.0" encoding="utf-8" standalone="no"?>
<svg xmlns="http://www.w3.org/2000/svg" xmlns:xlink="http://www.w3.org/1999/xlink" width="500" height="135">
	<!-- Created by: WeatherFlowTempestLogger Version 1.20240722.0 Built on: Jul 22 2024 at 17:05:23 -->
	<clipPath id="GraphRegion"><polygon points="54,14 470,14 470,121 54,121" /></clipPath>
	<style>
		text { font-family: sans-serif; font-size: 12px; fill: black; }
		line { stroke: black; }
		polygon { fill-opacity: 0.5; }
	</style>
	<rect style="fill-opacity:0;stroke:grey;stroke-width:2" width="500" height="135" />
	<text x="54" y="12">Tempest Temperature &amp; Humidity</text>
	<text style="text-anchor:end" x="470" y="12">2024-09-08 11:49:47</text>
	<text style="fill:blue;text-anchor:middle" x="12" y="50%" transform="rotate(270 12,67)">Temperature (63.5°F)</text>
	<text style="fill:green;text-anchor:middle" x="24" y="50%" transform="rotate(270 24,67)">Humidity (86.5%)</text>
	<!-- Humidity -->
	<polygon style="fill:lime;stroke:green;clip-path:url(#GraphRegion)" points="55,120 54,52 55,51 56,48 57,46 58,44 59,43 60,41 61,38 62,36 63,34 64,33 65,33 66,33 67,32 68,34 69,33 70,32 71,32 72,31 73,30 74,29 75,29 76,28 77,27 78,26 79,25 80,23 81,23 82,22 83,22 84,21 85,21 86,21 87,22 88,22 89,21 90,21 91,20 92,20 93,20 94,20 95,21 96,21 97,21 98,22 99,22 100,22 101,22 102,22 103,22 104,22 105,22 106,22 107,22 108,22 109,23 110,24 111,24 112,24 113,24 114,24 115,23 116,23 117,22 118,21 119,21 120,20 121,20 122,20 123,20 124,22 125,24 126,25 127,26 128,28 129,29 130,30 131,31 132,33 133,33 134,34 135,35 136,36 137,35 138,36 139,36 140,28 141,19 142,17 143,15 144,16 145,15 146,15 147,16 148,16 149,14 150,14 151,14 152,14 153,14 154,14 155,15 156,15 157,17 158,17 159,17 160,18 161,18 162,19 163,20 164,20 165,22 166,23 167,24 168,24 169,24 170,25 171,24 172,25 173,26 174,27 175,28 176,29 177,30 178,33 179,35 180,39 181,41 182,42 183,47 184,55 185,56 186,36 187,34 188,34 189,35 190,35 191,34 192,35 193,37 194,38 195,37 196,37 197,36 198,36 199,36 200,36 201,39 202,41 203,42 204,41 205,42 206,44 207,43 208,42 209,39 210,40 211,40 212,40 213,39 214,39 215,40 216,41 217,41 218,43 219,42 220,44 221,51 222,64 223,62 224,58 225,58 226,58 227,58 228,57 229,55 230,55 231,58 232,67 233,71 234,78 235,74 236,68 237,54 238,52 239,51 240,49 241,47 242,48 243,49 244,51 245,55 246,58 247,63 248,65 249,64 250,66 251,65 252,67 253,67 254,68 255,69 256,70 257,74 258,74 259,70 260,67 261,73 262,74 263,74 264,76 265,72 266,68 267,66 268,67 269,67 270,73 271,75 272,72 273,67 274,67 275,73 276,89 277,121 278,120 279,114 280,116 281,115 282,111 283,110 284,99 285,87 286,81 287,87 288,85 289,90 290,96 291,102 292,109 293,112 294,110 295,104 296,102 297,102 298,102 299,102 300,101 301,102 302,102 303,101 304,96 305,91 306,90 307,91 308,95 309,98 310,94 311,94 312,94 313,94 314,95 315,97 316,100 317,101 318,102 319,104 320,109 321,107 322,92 323,79 324,77 325,75 326,77 327,78 328,78 329,78 330,79 331,80 332,86 333,91 334,104 335,103 336,103 337,106 338,108 339,107 340,113 341,117 342,115 343,113 344,110 345,107 346,105 347,105 348,103 349,99 350,97 351,94 352,83 353,69 354,67 355,67 356,64 357,62 358,59 359,57 360,56 361,57 362,57 363,56 364,56 365,55 366,57 367,59 368,53 369,51 370,48 371,47 372,46 373,45 374,47 375,45 376,42 377,43 378,45 379,46 380,44 381,43 382,41 383,37 384,36 385,35 386,35 387,35 388,34 389,31 390,28 391,29 392,30 393,31 394,32 395,33 396,32 397,33 398,29 399,28 400,28 401,29 402,29 403,30 404,32 405,33 406,33 407,34 408,36 409,37 410,40 411,44 412,47 413,48 414,47 415,39 416,36 417,38 418,40 419,42 420,45 421,48 422,47 423,46 424,46 425,47 426,47 427,47 428,46 429,45 430,47 431,48 432,48 433,47 434,44 435,40 436,42 437,43 438,44 439,44 440,45 441,45 442,48 443,51 444,54 445,53 446,45 447,44 448,44 449,43 450,32 451,32 452,34 453,34 454,36 455,37 456,39 457,38 458,38 459,40 460,43 461,45 462,48 463,48 464,48 465,45 466,40 467,41 468,43 469,43 469,120" />
	<line x1="52" y1="14" x2="472" y2="14"/>
	<text style="fill:blue;text-anchor:end;dominant-baseline:middle" x="52" y="14">73.2</text>
	<text style="fill:green;dominant-baseline:middle" x="472" y="14">98.4</text>
	<line x1="52" y1="121" x2="472" y2="121"/>
	<text style="fill:blue;text-anchor:end;dominant-baseline:middle" x="52" y="121">58.0</text>
	<text style="fill:green;dominant-baseline:middle" x="472" y="121">65.0</text>
	<line x1="54" y1="14" x2="54" y2="121"/>
	<line x1="470" y1="14" x2="470" y2="121"/>
	<line style="stroke-dasharray:1" x1="52" y1="40" x2="472" y2="40" />
	<text style="fill:blue;text-anchor:end;dominant-baseline:middle" x="52" y="40">69.4</text>
	<text style="fill:green;dominant-baseline:middle" x="472" y="40">90.0</text>
	<line style="stroke-dasharray:1" x1="52" y1="66" x2="472" y2="66" />
	<text style="fill:blue;text-anchor:end;dominant-baseline:middle" x="52" y="66">65.6</text>
	<text style="fill:green;dominant-baseline:middle" x="472" y="66">81.7</text>
	<line style="stroke-dasharray:1" x1="52" y1="92" x2="472" y2="92" />
	<text style="fill:blue;text-anchor:end;dominant-baseline:middle" x="52" y="92">61.8</text>
	<text style="fill:green;dominant-baseline:middle" x="472" y="92">73.3</text>
	<line style="stroke-dasharray:1" x1="63" y1="14" x2="63" y2="123" />
	<line style="stroke-dasharray:1" x1="75" y1="14" x2="75" y2="123" />
	<text style="text-anchor:middle" x="75" y="133">10</text>
	<line style="stroke-dasharray:1" x1="87" y1="14" x2="87" y2="123" />
	<line style="stroke-dasharray:1" x1="99" y1="14" x2="99" y2="123" />
	<text style="text-anchor:middle" x="99" y="133">8</text>
	<line style="stroke-dasharray:1" x1="111" y1="14" x2="111" y2="123" />
	<line style="stroke-dasharray:1" x1="123" y1="14" x2="123" y2="123" />
	<text style="text-anchor:middle" x="123" y="133">6</text>
	<line style="stroke-dasharray:1" x1="135" y1="14" x2="135" y2="123" />
	<line style="stroke-dasharray:1" x1="147" y1="14" x2="147" y2="123" />
	<text style="text-anchor:middle" x="147" y="133">4</text>
	<line style="stroke-dasharray:1" x1="159" y1="14" x2="159" y2="123" />
	<line style="stroke-dasharray:1" x1="171" y1="14" x2="171" y2="123" />
	<text style="text-anchor:middle" x="171" y="133">2</text>
	<line style="stroke-dasharray:1" x1="183" y1="14" x2="183" y2="123" />
	<line style="stroke:red" x1="195" y1="14" x2="195" y2="123" />
	<text style="text-anchor:middle" x="195" y="133">0</text>
	<line style="stroke-dasharray:1" x1="207" y1="14" x2="207" y2="123" />
	<line style="stroke-dasharray:1" x1="219" y1="14" x2="219" y2="123" />
	<text style="text-anchor:middle" x="219" y="133">22</text>
	<line style="stroke-dasharray:1" x1="231" y1="14" x2="231" y2="123" />
	<line style="stroke-dasharray:1" x1="243" y1="14" x2="243" y2="123" />
	<text style="text-anchor:middle" x="243" y="133">20</text>
	<line style="stroke-dasharray:1" x1="255" y1="14" x2="255" y2="123" />
	<line style="stroke-dasharray:1" x1="267" y1="14" x2="267" y2="123" />
	<text style="text-anchor:middle" x="267" y="133">18</text>
	<line style="stroke-dasharray:1" x1="279" y1="14" x2="279" y2="123" />
	<line style="stroke-dasharray:1" x1="291" y1="14" x2="291" y2="123" />
	<text style="text-anchor:middle" x="291" y="133">16</text>
	<line style="stroke-dasharray:1" x1="303" y1="14" x2="303" y2="123" />
	<line style="stroke-dasharray:1" x1="315" y1="14" x2="315" y2="123" />
	<text style="text-anchor:middle" x="315" y="133">14</text>
	<line style="stroke-dasharray:1" x1="327" y1="14" x2="327" y2="123" />
	<line style="stroke-dasharray:1" x1="339" y1="14" x2="339" y2="123" />
	<text style="text-anchor:middle" x="339" y="133">12</text>
	<line style="stroke-dasharray:1" x1="351" y1="14" x2="351" y2="123" />
	<line style="stroke-dasharray:1" x1="363" y1="14" x2="363" y2="123" />
	<text style="text-anchor:middle" x="363" y="133">10</text>
	<line style="stroke-dasharray:1" x1="375" y1="14" x2="375" y2="123" />
	<line style="stroke-dasharray:1" x1="387" y1="14" x2="387" y2="123" />
	<text style="text-anchor:middle" x="387" y="133">8</text>
	<line style="stroke-dasharray:1" x1="399" y1="14" x2="399" y2="123" />
	<line style="stroke-dasharray:1" x1="411" y1="14" x2="411" y2="123" />
	<text style="text-anchor:middle" x="411" y="133">6</text>
	<line style="stroke-dasharray:1" x1="423" y1="14" x2="423" y2="123" />
	<line style="stroke-dasharray:1" x1="435" y1="14" x2="435" y2="123" />
	<text style="text-anchor:middle" x="435" y="133">4</text>
	<line style="stroke-dasharray:1" x1="447" y1="14" x2="447" y2="123" />
	<line style="stroke-dasharray:1" x1="459" y1="14" x2="459" y2="123" />
	<text style="text-anchor:middle" x="459" y="133">2</text>
	<polygon style="fill:red;stroke:red;fill-opacity:1;" points="51,121 57,118 57,124" />
	<!-- Temperature -->
	<polyline style="fill:none;stroke:blue;clip-path:url(#GraphRegion)" points="55,83 56,86 57,88 58,90 59,91 60,93 61,95 62,97 63,98 64,98 65,98 66,99 67,99 68,99 69,100 70,101 71,101 72,101 73,102 74,102 75,103 76,103 77,104 78,104 79,104 80,105 81,105 82,106 83,106 84,106 85,106 86,106 87,106 88,106 89,107 90,107 91,108 92,107 93,107 94,106 95,106 96,106 97,106 98,106 99,105 100,105 101,105 102,105 103,105 104,105 105,105 106,105 107,105 108,105 109,104 110,104 111,104 112,104 113,103 114,104 115,104 116,104 117,104 118,105 119,105 120,105 121,104 122,104 123,103 124,102 125,100 126,99 127,98 128,98 129,97 130,96 131,94 132,93 133,93 134,92 135,91 136,90 137,90 138,91 139,94 140,102 141,108 142,109 143,111 144,112 145,111 146,112 147,115 148,116 149,119 150,120 151,120 152,120 153,121 154,120 155,120 156,120 157,119 158,119 159,118 160,118 161,117 162,117 163,116 164,115 165,113 166,112 167,111 168,110 169,109 170,109 171,108 172,106 173,105 174,104 175,103 176,101 177,99 178,96 179,93 180,90 181,87 182,84 183,80 184,77 185,84 186,94 187,95 188,96 189,96 190,98 191,98 192,97 193,95 194,93 195,91 196,88 197,88 198,88 199,89 200,88 201,85 202,81 203,80 204,81 205,82 206,81 207,83 208,85 209,86 210,87 211,88 212,89 213,90 214,90 215,89 216,88 217,88 218,87 219,86 220,81 221,69 222,62 223,64 224,66 225,66 226,68 227,71 228,73 229,72 230,70 231,64 232,57 233,52 234,50 235,57 236,67 237,77 238,80 239,83 240,85 241,85 242,83 243,79 244,76 245,72 246,67 247,63 248,60 249,60 250,60 251,61 252,60 253,59 254,57 255,57 256,56 257,55 258,57 259,61 260,60 261,56 262,56 263,57 264,59 265,66 266,69 267,70 268,69 269,68 270,64 271,63 272,65 273,67 274,62 275,50 276,29 277,14 278,14 279,14 280,16 281,19 282,22 283,28 284,39 285,48 286,49 287,45 288,44 289,37 290,30 291,22 292,16 293,16 294,19 295,23 296,25 297,26 298,27 299,27 300,27 301,27 302,28 303,31 304,37 305,42 306,42 307,40 308,36 309,35 310,37 311,37 312,37 313,37 314,35 315,33 316,31 317,30 318,29 319,27 320,25 321,33 322,47 323,56 324,59 325,60 326,59 327,60 328,59 329,59 330,56 331,52 332,47 333,38 334,35 335,36 336,35 337,31 338,31 339,28 340,24 341,24 342,26 343,29 344,32 345,34 346,35 347,36 348,39 349,41 350,44 351,49 352,58 353,65 354,66 355,68 356,71 357,74 358,77 359,78 360,78 361,78 362,78 363,79 364,80 365,80 366,78 367,80 368,84 369,86 370,88 371,89 372,89 373,90 374,91 375,93 376,95 377,95 378,93 379,93 380,95 381,97 382,99 383,102 384,103 385,103 386,104 387,105 388,106 389,109 390,110 391,110 392,109 393,108 394,107 395,107 396,108 397,109 398,111 399,111 400,112 401,111 402,111 403,110 404,108 405,107 406,106 407,105 408,104 409,102 410,100 411,98 412,98 413,99 414,103 415,107 416,108 417,106 418,104 419,103 420,101 421,99 422,99 423,99 424,99 425,98 426,97 427,97 428,97 429,97 430,96 431,95 432,96 433,98 434,100 435,102 436,100 437,99 438,98 439,98 440,95 441,93 442,91 443,89 444,88 445,90 446,94 447,94 448,95 449,98 450,102 451,102 452,101 453,100 454,99 455,98 456,97 457,98 458,97 459,95 460,93 461,91 462,90 463,90 464,92 465,93 466,94 467,93 468,92 469,92 " />
</svg>
