<?xml version="1.0" encoding="utf-8" standalone="no"?>
<svg xmlns="http://www.w3.org/2000/svg" xmlns:xlink="http://www.w3.org/1999/xlink" width="500" height="135">
	<!-- Created by: WeatherFlowTempestLogger Version 1.20240617.3 Built on: Jun 17 2024 at 22:43:41 -->
	<clipPath id="GraphRegion"><polygon points="54,14 470,14 470,121 54,121" /></clipPath>
	<style>
		text { font-family: sans-serif; font-size: 12px; fill: black; }
		line { stroke: black; }
		polygon { fill-opacity: 0.5; }
	</style>
	<rect style="fill-opacity:0;stroke:grey;stroke-width:2" width="500" height="135" />
	<text x="54" y="12">Tempest</text>
	<text style="text-anchor:end" x="470" y="12">2024-06-18 05:09:50</text>
	<text style="fill:blue;text-anchor:middle" x="12" y="50%" transform="rotate(270 12,67)">Temperature (52.4°F)</text>
	<text style="fill:green;text-anchor:middle" x="24" y="50%" transform="rotate(270 24,67)">Humidity (81.5%)</text>
	<!-- Humidity -->
	<polygon style="fill:lime;stroke:green;clip-path:url(#GraphRegion)" points="55,120 54,26 55,26 56,24 57,23 58,25 59,25 60,23 61,23 62,23 63,22 64,21 65,23 66,23 67,21 68,20 69,19 70,18 71,15 72,15 73,17 74,21 75,23 76,25 77,24 78,27 79,31 80,33 81,33 82,35 83,36 84,38 85,39 86,39 87,40 88,40 89,40 90,40 91,39 92,41 93,40 94,41 95,41 96,41 97,41 98,41 99,40 100,41 101,42 102,41 103,43 104,43 105,43 106,44 107,43 108,43 109,45 110,45 111,44 112,45 113,44 114,45 115,46 116,50 117,50 118,53 119,52 120,51 121,51 122,45 123,41 124,31 125,28 126,26 127,26 128,25 129,18 130,20 131,20 132,21 133,22 134,23 135,23 136,23 137,24 138,23 139,22 140,22 141,20 142,21 143,22 144,24 145,26 146,29 147,30 148,32 149,32 150,33 151,33 152,30 153,25 154,22 155,18 156,14 157,14 158,15 159,17 160,18 161,19 162,21 163,22 164,26 165,25 166,27 167,25 168,25 169,21 170,22 171,24 172,28 173,32 174,35 175,36 176,36 177,37 178,38 179,41 180,50 181,60 182,59 183,61 184,56 185,64 186,68 187,81 188,81 189,84 190,89 191,85 192,88 193,89 194,89 195,96 196,97 197,98 198,99 199,101 200,102 201,103 202,105 203,101 204,99 205,97 206,89 207,89 208,88 209,88 210,86 211,89 212,94 213,93 214,93 215,91 216,88 217,85 218,85 219,86 220,89 221,89 222,89 223,84 224,77 225,77 226,80 227,77 228,88 229,85 230,80 231,78 232,80 233,78 234,80 235,108 236,121 237,121 238,121 239,121 240,121 241,121 242,121 243,121 244,121 245,121 246,121 247,121 248,121 249,121 250,121 251,121 252,121 253,121 254,121 255,121 256,121 257,121 258,121 259,121 260,121 261,121 262,121 263,121 264,121 265,121 266,121 267,121 268,121 269,121 270,121 271,121 272,121 273,121 274,121 275,121 276,121 277,121 278,121 279,121 280,121 281,121 282,121 283,121 284,121 285,121 286,121 287,121 288,121 289,121 290,121 291,121 292,121 293,121 294,121 295,121 296,121 297,121 298,121 299,121 300,121 301,121 302,121 303,121 304,121 305,121 306,121 307,121 308,121 309,121 310,121 311,121 312,121 313,121 314,121 315,121 316,121 317,121 318,121 319,121 320,121 321,121 322,121 323,121 324,121 325,121 326,121 327,121 328,121 329,121 330,121 331,121 332,121 333,121 334,121 335,121 336,121 337,121 338,121 339,121 340,121 341,121 342,121 343,121 344,121 345,121 346,121 347,121 348,121 349,121 350,121 351,121 352,121 353,121 354,121 355,121 356,121 357,121 358,121 359,121 360,121 361,121 362,121 363,121 364,121 365,121 366,121 367,121 368,121 369,121 370,121 371,121 372,121 373,121 374,121 375,121 376,121 377,121 378,121 379,121 380,121 381,121 382,121 383,121 384,121 385,121 386,121 387,121 388,121 389,121 390,121 391,121 392,121 393,121 394,121 395,121 396,121 397,121 398,121 399,121 400,121 401,121 402,121 403,121 404,121 405,121 406,121 407,121 408,121 409,121 410,121 411,121 412,121 413,121 414,121 415,121 416,121 417,121 418,121 419,121 420,121 421,121 422,121 423,121 424,121 425,121 426,121 427,121 428,121 429,121 430,121 431,121 432,121 433,121 434,121 435,121 436,121 437,121 438,121 439,121 440,121 441,121 442,121 443,121 444,121 445,121 446,121 447,121 448,121 449,121 450,121 451,121 452,121 453,121 454,121 455,121 456,121 457,121 458,121 459,121 460,121 461,121 462,121 463,121 464,121 465,121 466,121 467,121 468,121 469,121 469,120" />
	<line x1="52" y1="14" x2="472" y2="14"/>
	<text style="fill:blue;text-anchor:end;dominant-baseline:middle" x="52" y="14">62.3</text>
	<text style="fill:green;dominant-baseline:middle" x="472" y="14">84.2</text>
	<line x1="52" y1="121" x2="472" y2="121"/>
	<text style="fill:blue;text-anchor:end;dominant-baseline:middle" x="52" y="121">52.1</text>
	<text style="fill:green;dominant-baseline:middle" x="472" y="121">60.1</text>
	<line x1="54" y1="14" x2="54" y2="121"/>
	<line x1="470" y1="14" x2="470" y2="121"/>
	<line style="stroke-dasharray:1" x1="52" y1="40" x2="472" y2="40" />
	<text style="fill:blue;text-anchor:end;dominant-baseline:middle" x="52" y="40">59.7</text>
	<text style="fill:green;dominant-baseline:middle" x="472" y="40">78.2</text>
	<line style="stroke-dasharray:1" x1="52" y1="66" x2="472" y2="66" />
	<text style="fill:blue;text-anchor:end;dominant-baseline:middle" x="52" y="66">57.2</text>
	<text style="fill:green;dominant-baseline:middle" x="472" y="66">72.2</text>
	<line style="stroke-dasharray:1" x1="52" y1="92" x2="472" y2="92" />
	<text style="fill:blue;text-anchor:end;dominant-baseline:middle" x="52" y="92">54.6</text>
	<text style="fill:green;dominant-baseline:middle" x="472" y="92">66.1</text>
	<line style="stroke-dasharray:1" x1="55" y1="14" x2="55" y2="123" />
	<line style="stroke-dasharray:1" x1="67" y1="14" x2="67" y2="123" />
	<text style="text-anchor:middle" x="67" y="133">4</text>
	<line style="stroke-dasharray:1" x1="79" y1="14" x2="79" y2="123" />
	<line style="stroke-dasharray:1" x1="91" y1="14" x2="91" y2="123" />
	<text style="text-anchor:middle" x="91" y="133">2</text>
	<line style="stroke-dasharray:1" x1="103" y1="14" x2="103" y2="123" />
	<line style="stroke:red" x1="115" y1="14" x2="115" y2="123" />
	<text style="text-anchor:middle" x="115" y="133">0</text>
	<line style="stroke-dasharray:1" x1="127" y1="14" x2="127" y2="123" />
	<line style="stroke-dasharray:1" x1="139" y1="14" x2="139" y2="123" />
	<text style="text-anchor:middle" x="139" y="133">22</text>
	<line style="stroke-dasharray:1" x1="151" y1="14" x2="151" y2="123" />
	<line style="stroke-dasharray:1" x1="163" y1="14" x2="163" y2="123" />
	<text style="text-anchor:middle" x="163" y="133">20</text>
	<line style="stroke-dasharray:1" x1="175" y1="14" x2="175" y2="123" />
	<line style="stroke-dasharray:1" x1="187" y1="14" x2="187" y2="123" />
	<text style="text-anchor:middle" x="187" y="133">18</text>
	<line style="stroke-dasharray:1" x1="199" y1="14" x2="199" y2="123" />
	<line style="stroke-dasharray:1" x1="211" y1="14" x2="211" y2="123" />
	<text style="text-anchor:middle" x="211" y="133">16</text>
	<line style="stroke-dasharray:1" x1="223" y1="14" x2="223" y2="123" />
	<line style="stroke-dasharray:1" x1="235" y1="14" x2="235" y2="123" />
	<text style="text-anchor:middle" x="235" y="133">14</text>
	<line style="stroke-dasharray:1" x1="247" y1="14" x2="247" y2="123" />
	<line style="stroke-dasharray:1" x1="259" y1="14" x2="259" y2="123" />
	<text style="text-anchor:middle" x="259" y="133">12</text>
	<line style="stroke-dasharray:1" x1="271" y1="14" x2="271" y2="123" />
	<line style="stroke-dasharray:1" x1="283" y1="14" x2="283" y2="123" />
	<text style="text-anchor:middle" x="283" y="133">10</text>
	<line style="stroke-dasharray:1" x1="295" y1="14" x2="295" y2="123" />
	<line style="stroke-dasharray:1" x1="307" y1="14" x2="307" y2="123" />
	<text style="text-anchor:middle" x="307" y="133">8</text>
	<line style="stroke-dasharray:1" x1="319" y1="14" x2="319" y2="123" />
	<line style="stroke-dasharray:1" x1="331" y1="14" x2="331" y2="123" />
	<text style="text-anchor:middle" x="331" y="133">6</text>
	<line style="stroke-dasharray:1" x1="343" y1="14" x2="343" y2="123" />
	<line style="stroke-dasharray:1" x1="355" y1="14" x2="355" y2="123" />
	<text style="text-anchor:middle" x="355" y="133">4</text>
	<line style="stroke-dasharray:1" x1="367" y1="14" x2="367" y2="123" />
	<line style="stroke-dasharray:1" x1="379" y1="14" x2="379" y2="123" />
	<text style="text-anchor:middle" x="379" y="133">2</text>
	<line style="stroke-dasharray:1" x1="391" y1="14" x2="391" y2="123" />
	<line style="stroke:red" x1="403" y1="14" x2="403" y2="123" />
	<text style="text-anchor:middle" x="403" y="133">0</text>
	<line style="stroke-dasharray:1" x1="415" y1="14" x2="415" y2="123" />
	<line style="stroke-dasharray:1" x1="427" y1="14" x2="427" y2="123" />
	<text style="text-anchor:middle" x="427" y="133">22</text>
	<line style="stroke-dasharray:1" x1="439" y1="14" x2="439" y2="123" />
	<line style="stroke-dasharray:1" x1="451" y1="14" x2="451" y2="123" />
	<text style="text-anchor:middle" x="451" y="133">20</text>
	<line style="stroke-dasharray:1" x1="463" y1="14" x2="463" y2="123" />
	<polygon style="fill:red;stroke:red;fill-opacity:1;" points="51,121 57,118 57,124" />
	<!-- Temperature -->
	<polyline style="fill:none;stroke:blue;clip-path:url(#GraphRegion)" points="55,117 56,117 57,117 58,117 59,117 60,118 61,118 62,118 63,118 64,118 65,118 66,118 67,119 68,120 69,120 70,120 71,120 72,119 73,117 74,115 75,114 76,114 77,112 78,110 79,108 80,107 81,106 82,105 83,105 84,105 85,105 86,104 87,104 88,103 89,103 90,103 91,103 92,102 93,102 94,101 95,101 96,101 97,100 98,99 99,99 100,98 101,98 102,97 103,96 104,95 105,95 106,94 107,93 108,92 109,92 110,91 111,90 112,90 113,90 114,89 115,88 116,87 117,86 118,86 119,85 120,85 121,84 122,84 123,84 124,84 125,85 126,85 127,86 128,87 129,88 130,88 131,88 132,88 133,88 134,88 135,88 136,88 137,88 138,88 139,88 140,88 141,88 142,88 143,88 144,87 145,86 146,84 147,83 148,82 149,81 150,80 151,80 152,79 153,79 154,79 155,79 156,79 157,79 158,78 159,78 160,77 161,76 162,74 163,73 164,72 165,70 166,69 167,67 168,66 169,65 170,64 171,62 172,61 173,60 174,60 175,59 176,59 177,59 178,57 179,55 180,54 181,55 182,57 183,55 184,52 185,49 186,47 187,46 188,47 189,49 190,51 191,51 192,52 193,51 194,50 195,49 196,48 197,48 198,47 199,48 200,48 201,47 202,47 203,49 204,52 205,55 206,55 207,54 208,53 209,53 210,55 211,55 212,54 213,55 214,54 215,54 216,55 217,57 218,56 219,55 220,54 221,54 222,55 223,58 224,60 225,60 226,59 227,59 228,60 229,62 230,66 231,68 232,64 233,55 234,36 235,17 236,14 237,14 238,14 239,14 240,14 241,14 242,14 243,14 244,14 245,14 246,14 247,14 248,14 249,14 250,14 251,14 252,14 253,14 254,14 255,14 256,14 257,14 258,14 259,14 260,14 261,14 262,14 263,14 264,14 265,14 266,14 267,14 268,14 269,14 270,14 271,14 272,14 273,14 274,14 275,14 276,14 277,14 278,14 279,14 280,14 281,14 282,14 283,14 284,14 285,14 286,14 287,14 288,14 289,14 290,14 291,14 292,14 293,14 294,14 295,14 296,14 297,14 298,14 299,14 300,14 301,14 302,14 303,14 304,14 305,14 306,14 307,14 308,14 309,14 310,14 311,14 312,14 313,14 314,14 315,14 316,14 317,14 318,14 319,14 320,14 321,14 322,14 323,14 324,14 325,14 326,14 327,14 328,14 329,14 330,14 331,14 332,14 333,14 334,14 335,14 336,14 337,14 338,14 339,14 340,14 341,14 342,14 343,14 344,14 345,14 346,14 347,14 348,14 349,14 350,14 351,14 352,14 353,14 354,14 355,14 356,14 357,14 358,14 359,14 360,14 361,14 362,14 363,14 364,14 365,14 366,14 367,14 368,14 369,14 370,14 371,14 372,14 373,14 374,14 375,14 376,14 377,14 378,14 379,14 380,14 381,14 382,14 383,14 384,14 385,14 386,14 387,14 388,14 389,14 390,14 391,14 392,14 393,14 394,14 395,14 396,14 397,14 398,14 399,14 400,14 401,14 402,14 403,14 404,14 405,14 406,14 407,14 408,14 409,14 410,14 411,14 412,14 413,14 414,14 415,14 416,14 417,14 418,14 419,14 420,14 421,14 422,14 423,14 424,14 425,14 426,14 427,14 428,14 429,14 430,14 431,14 432,14 433,14 434,14 435,14 436,14 437,14 438,14 439,14 440,14 441,14 442,14 443,14 444,14 445,14 446,14 447,14 448,14 449,14 450,14 451,14 452,14 453,14 454,14 455,14 456,14 457,14 458,14 459,14 460,14 461,14 462,14 463,14 464,14 465,14 466,14 467,14 468,14 469,14 " />
</svg>
