<?xml version="1.0" encoding="utf-8" standalone="no"?>
<svg xmlns="http://www.w3.org/2000/svg" xmlns:xlink="http://www.w3.org/1999/xlink" width="500" height="135">
	<!-- Created by: WeatherFlowTempestLogger Version 1.20240617.3 Built on: Jun 17 2024 at 22:43:41 -->
	<clipPath id="GraphRegion"><polygon points="54,14 470,14 470,121 54,121" /></clipPath>
	<style>
		text { font-family: sans-serif; font-size: 12px; fill: black; }
		line { stroke: black; }
		polygon { fill-opacity: 0.5; }
	</style>
	<rect style="fill-opacity:0;stroke:grey;stroke-width:2" width="500" height="135" />
	<text x="54" y="12">Tempest</text>
	<text style="text-anchor:end" x="470" y="12">2024-06-18 06:00:00</text>
	<text style="fill:blue;text-anchor:middle" x="12" y="50%" transform="rotate(270 12,67)">Temperature (52.4°F)</text>
	<text style="fill:green;text-anchor:middle" x="24" y="50%" transform="rotate(270 24,67)">Humidity (81.5%)</text>
	<!-- Humidity -->
	<polygon style="fill:lime;stroke:green;clip-path:url(#GraphRegion)" points="55,120 54,20 55,22 56,30 57,24 58,19 59,27 60,59 61,54 62,74 63,75 64,75 65,75 66,75 67,75 68,75 69,75 70,75 71,75 72,75 73,75 74,75 75,75 76,75 77,75 78,75 79,75 80,75 81,75 82,75 83,75 84,75 85,75 86,75 87,75 88,75 89,75 90,75 91,75 92,75 93,75 94,75 95,75 96,75 97,75 98,75 99,65 100,41 101,33 102,38 103,36 104,49 105,66 106,82 107,89 108,97 109,121 110,105 111,56 112,34 113,16 114,14 115,26 116,46 117,52 118,57 119,78 120,83 121,81 122,76 123,67 124,56 125,55 126,49 127,36 128,40 129,52 130,48 131,47 132,44 133,94 134,81 135,56 136,29 137,120" />
	<line x1="52" y1="14" x2="472" y2="14"/>
	<text style="fill:blue;text-anchor:end;dominant-baseline:middle" x="52" y="14">65.9</text>
	<text style="fill:green;dominant-baseline:middle" x="472" y="14">84.0</text>
	<line x1="52" y1="121" x2="472" y2="121"/>
	<text style="fill:blue;text-anchor:end;dominant-baseline:middle" x="52" y="121">48.3</text>
	<text style="fill:green;dominant-baseline:middle" x="472" y="121">42.2</text>
	<line x1="54" y1="14" x2="54" y2="121"/>
	<line x1="470" y1="14" x2="470" y2="121"/>
	<line style="stroke-dasharray:1" x1="52" y1="40" x2="472" y2="40" />
	<text style="fill:blue;text-anchor:end;dominant-baseline:middle" x="52" y="40">61.5</text>
	<text style="fill:green;dominant-baseline:middle" x="472" y="40">73.5</text>
	<line style="stroke-dasharray:1" x1="52" y1="66" x2="472" y2="66" />
	<text style="fill:blue;text-anchor:end;dominant-baseline:middle" x="52" y="66">57.1</text>
	<text style="fill:green;dominant-baseline:middle" x="472" y="66">63.1</text>
	<line style="stroke-dasharray:1" x1="52" y1="92" x2="472" y2="92" />
	<text style="fill:blue;text-anchor:end;dominant-baseline:middle" x="52" y="92">52.7</text>
	<text style="fill:green;dominant-baseline:middle" x="472" y="92">52.6</text>
	<line style="stroke-dasharray:1" x1="81" y1="14" x2="81" y2="123" />
	<text style="text-anchor:middle" x="123" y="133">Week 24</text>
	<polygon style="fill:red;stroke:red;fill-opacity:1;" points="51,121 57,118 57,124" />
	<!-- Temperature -->
	<polyline style="fill:none;stroke:blue;clip-path:url(#GraphRegion)" points="55,92 56,84 57,78 58,75 59,63 60,57 61,61 62,36 63,36 64,36 65,36 66,36 67,36 68,36 69,36 70,36 71,36 72,36 73,36 74,36 75,36 76,36 77,36 78,36 79,36 80,36 81,36 82,36 83,36 84,36 85,36 86,36 87,36 88,36 89,36 90,36 91,36 92,36 93,36 94,36 95,36 96,36 97,36 98,36 99,52 100,81 101,100 102,103 103,103 104,91 105,74 106,46 107,35 108,24 109,14 110,28 111,61 112,83 113,110 114,121 115,109 116,96 117,83 118,69 119,49 120,38 121,40 122,50 123,61 124,76 125,88 126,93 127,98 128,92 129,79 130,80 131,73 132,64 133,16 134,19 135,41 136,69 " />
</svg>
