<?xml version="1.0" encoding="utf-8" standalone="no"?>
<svg xmlns="http://www.w3.org/2000/svg" xmlns:xlink="http://www.w3.org/1999/xlink" width="500" height="135">
	<!-- Created by: WeatherFlowTempestLogger Version 1.20240618.0 Built on: Jun 18 2024 at 06:53:33 -->
	<clipPath id="GraphRegion"><polygon points="54,14 470,14 470,121 54,121" /></clipPath>
	<style>
		text { font-family: sans-serif; font-size: 12px; fill: black; }
		line { stroke: black; }
		polygon { fill-opacity: 0.5; }
	</style>
	<rect style="fill-opacity:0;stroke:grey;stroke-width:2" width="500" height="135" />
	<text x="54" y="12">Tempest</text>
	<text style="text-anchor:end" x="470" y="12">2024-06-18 06:59:48</text>
	<text style="fill:blue;text-anchor:middle" x="12" y="50%" transform="rotate(270 12,67)">Temperature (53.1°F)</text>
	<text style="fill:green;text-anchor:middle" x="24" y="50%" transform="rotate(270 24,67)">Humidity (78.8%)</text>
	<!-- Humidity -->
	<polygon style="fill:lime;stroke:green;clip-path:url(#GraphRegion)" points="55,120 54,38 55,37 56,37 57,36 58,34 59,34 60,33 61,32 62,32 63,33 64,30 65,28 66,28 67,28 68,29 69,29 70,28 71,28 72,27 73,26 74,25 75,25 76,26 77,26 78,24 79,23 80,25 81,25 82,23 83,23 84,23 85,22 86,21 87,23 88,23 89,21 90,20 91,19 92,18 93,15 94,15 95,17 96,21 97,23 98,25 99,24 100,27 101,31 102,33 103,33 104,35 105,36 106,38 107,39 108,39 109,40 110,40 111,40 112,40 113,39 114,41 115,40 116,41 117,41 118,41 119,41 120,41 121,40 122,41 123,42 124,41 125,43 126,43 127,43 128,44 129,43 130,43 131,45 132,45 133,44 134,45 135,44 136,45 137,46 138,50 139,50 140,53 141,52 142,51 143,51 144,45 145,41 146,31 147,28 148,26 149,26 150,25 151,18 152,20 153,20 154,21 155,22 156,23 157,23 158,23 159,24 160,23 161,22 162,22 163,20 164,21 165,22 166,24 167,26 168,29 169,30 170,32 171,32 172,33 173,33 174,30 175,25 176,22 177,18 178,14 179,14 180,15 181,17 182,18 183,19 184,21 185,22 186,26 187,25 188,27 189,25 190,25 191,21 192,22 193,24 194,28 195,32 196,35 197,36 198,36 199,37 200,38 201,41 202,50 203,60 204,59 205,61 206,56 207,64 208,68 209,81 210,81 211,84 212,89 213,85 214,88 215,89 216,89 217,96 218,97 219,98 220,99 221,101 222,102 223,103 224,105 225,101 226,99 227,97 228,89 229,89 230,88 231,88 232,86 233,89 234,94 235,93 236,93 237,91 238,88 239,85 240,85 241,86 242,89 243,89 244,89 245,84 246,77 247,77 248,80 249,77 250,88 251,85 252,80 253,78 254,80 255,78 256,80 257,108 258,121 259,121 260,121 261,121 262,121 263,121 264,121 265,121 266,121 267,121 268,121 269,121 270,121 271,121 272,121 273,121 274,121 275,121 276,121 277,121 278,121 279,121 280,121 281,121 282,121 283,121 284,121 285,121 286,121 287,121 288,121 289,121 290,121 291,121 292,121 293,121 294,121 295,121 296,121 297,121 298,121 299,121 300,121 301,121 302,121 303,121 304,121 305,121 306,121 307,121 308,121 309,121 310,121 311,121 312,121 313,121 314,121 315,121 316,121 317,121 318,121 319,121 320,121 321,121 322,121 323,121 324,121 325,121 326,121 327,121 328,121 329,121 330,121 331,121 332,121 333,121 334,121 335,121 336,121 337,121 338,121 339,121 340,121 341,121 342,121 343,121 344,121 345,121 346,121 347,121 348,121 349,121 350,121 351,121 352,121 353,121 354,121 355,121 356,121 357,121 358,121 359,121 360,121 361,121 362,121 363,121 364,121 365,121 366,121 367,121 368,121 369,121 370,121 371,121 372,121 373,121 374,121 375,121 376,121 377,121 378,121 379,121 380,121 381,121 382,121 383,121 384,121 385,121 386,121 387,121 388,121 389,121 390,121 391,121 392,121 393,121 394,121 395,121 396,121 397,121 398,121 399,121 400,121 401,121 402,121 403,121 404,121 405,121 406,121 407,121 408,121 409,121 410,121 411,121 412,121 413,121 414,121 415,121 416,121 417,121 418,121 419,121 420,121 421,121 422,121 423,121 424,121 425,121 426,121 427,121 428,121 429,121 430,121 431,121 432,121 433,121 434,121 435,121 436,121 437,121 438,121 439,121 440,121 441,121 442,121 443,121 444,121 445,121 446,121 447,121 448,121 449,121 450,121 451,121 452,121 453,121 454,121 455,121 456,121 457,121 458,121 459,121 460,121 461,121 462,121 463,121 464,121 465,121 466,121 467,121 468,121 469,121 469,120" />
	<line x1="52" y1="14" x2="472" y2="14"/>
	<text style="fill:blue;text-anchor:end;dominant-baseline:middle" x="52" y="14">62.3</text>
	<text style="fill:green;dominant-baseline:middle" x="472" y="14">84.2</text>
	<line x1="52" y1="121" x2="472" y2="121"/>
	<text style="fill:blue;text-anchor:end;dominant-baseline:middle" x="52" y="121">52.1</text>
	<text style="fill:green;dominant-baseline:middle" x="472" y="121">60.1</text>
	<line x1="54" y1="14" x2="54" y2="121"/>
	<line x1="470" y1="14" x2="470" y2="121"/>
	<line style="stroke-dasharray:1" x1="52" y1="40" x2="472" y2="40" />
	<text style="fill:blue;text-anchor:end;dominant-baseline:middle" x="52" y="40">59.7</text>
	<text style="fill:green;dominant-baseline:middle" x="472" y="40">78.2</text>
	<line style="stroke-dasharray:1" x1="52" y1="66" x2="472" y2="66" />
	<text style="fill:blue;text-anchor:end;dominant-baseline:middle" x="52" y="66">57.2</text>
	<text style="fill:green;dominant-baseline:middle" x="472" y="66">72.2</text>
	<line style="stroke-dasharray:1" x1="52" y1="92" x2="472" y2="92" />
	<text style="fill:blue;text-anchor:end;dominant-baseline:middle" x="52" y="92">54.6</text>
	<text style="fill:green;dominant-baseline:middle" x="472" y="92">66.1</text>
	<line style="stroke-dasharray:1" x1="65" y1="14" x2="65" y2="123" />
	<text style="text-anchor:middle" x="65" y="133">6</text>
	<line style="stroke-dasharray:1" x1="77" y1="14" x2="77" y2="123" />
	<line style="stroke-dasharray:1" x1="89" y1="14" x2="89" y2="123" />
	<text style="text-anchor:middle" x="89" y="133">4</text>
	<line style="stroke-dasharray:1" x1="101" y1="14" x2="101" y2="123" />
	<line style="stroke-dasharray:1" x1="113" y1="14" x2="113" y2="123" />
	<text style="text-anchor:middle" x="113" y="133">2</text>
	<line style="stroke-dasharray:1" x1="125" y1="14" x2="125" y2="123" />
	<line style="stroke:red" x1="137" y1="14" x2="137" y2="123" />
	<text style="text-anchor:middle" x="137" y="133">0</text>
	<line style="stroke-dasharray:1" x1="149" y1="14" x2="149" y2="123" />
	<line style="stroke-dasharray:1" x1="161" y1="14" x2="161" y2="123" />
	<text style="text-anchor:middle" x="161" y="133">22</text>
	<line style="stroke-dasharray:1" x1="173" y1="14" x2="173" y2="123" />
	<line style="stroke-dasharray:1" x1="185" y1="14" x2="185" y2="123" />
	<text style="text-anchor:middle" x="185" y="133">20</text>
	<line style="stroke-dasharray:1" x1="197" y1="14" x2="197" y2="123" />
	<line style="stroke-dasharray:1" x1="209" y1="14" x2="209" y2="123" />
	<text style="text-anchor:middle" x="209" y="133">18</text>
	<line style="stroke-dasharray:1" x1="221" y1="14" x2="221" y2="123" />
	<line style="stroke-dasharray:1" x1="233" y1="14" x2="233" y2="123" />
	<text style="text-anchor:middle" x="233" y="133">16</text>
	<line style="stroke-dasharray:1" x1="245" y1="14" x2="245" y2="123" />
	<line style="stroke-dasharray:1" x1="257" y1="14" x2="257" y2="123" />
	<text style="text-anchor:middle" x="257" y="133">14</text>
	<line style="stroke-dasharray:1" x1="269" y1="14" x2="269" y2="123" />
	<line style="stroke-dasharray:1" x1="281" y1="14" x2="281" y2="123" />
	<text style="text-anchor:middle" x="281" y="133">12</text>
	<line style="stroke-dasharray:1" x1="293" y1="14" x2="293" y2="123" />
	<line style="stroke-dasharray:1" x1="305" y1="14" x2="305" y2="123" />
	<text style="text-anchor:middle" x="305" y="133">10</text>
	<line style="stroke-dasharray:1" x1="317" y1="14" x2="317" y2="123" />
	<line style="stroke-dasharray:1" x1="329" y1="14" x2="329" y2="123" />
	<text style="text-anchor:middle" x="329" y="133">8</text>
	<line style="stroke-dasharray:1" x1="341" y1="14" x2="341" y2="123" />
	<line style="stroke-dasharray:1" x1="353" y1="14" x2="353" y2="123" />
	<text style="text-anchor:middle" x="353" y="133">6</text>
	<line style="stroke-dasharray:1" x1="365" y1="14" x2="365" y2="123" />
	<line style="stroke-dasharray:1" x1="377" y1="14" x2="377" y2="123" />
	<text style="text-anchor:middle" x="377" y="133">4</text>
	<line style="stroke-dasharray:1" x1="389" y1="14" x2="389" y2="123" />
	<line style="stroke-dasharray:1" x1="401" y1="14" x2="401" y2="123" />
	<text style="text-anchor:middle" x="401" y="133">2</text>
	<line style="stroke-dasharray:1" x1="413" y1="14" x2="413" y2="123" />
	<line style="stroke:red" x1="425" y1="14" x2="425" y2="123" />
	<text style="text-anchor:middle" x="425" y="133">0</text>
	<line style="stroke-dasharray:1" x1="437" y1="14" x2="437" y2="123" />
	<line style="stroke-dasharray:1" x1="449" y1="14" x2="449" y2="123" />
	<text style="text-anchor:middle" x="449" y="133">22</text>
	<line style="stroke-dasharray:1" x1="461" y1="14" x2="461" y2="123" />
	<polygon style="fill:red;stroke:red;fill-opacity:1;" points="51,121 57,118 57,124" />
	<!-- Temperature -->
	<polyline style="fill:none;stroke:blue;clip-path:url(#GraphRegion)" points="55,110 56,111 57,112 58,113 59,113 60,114 61,114 62,114 63,115 64,115 65,115 66,116 67,116 68,116 69,116 70,116 71,116 72,116 73,116 74,117 75,117 76,117 77,117 78,117 79,117 80,117 81,117 82,118 83,118 84,118 85,118 86,118 87,118 88,118 89,119 90,120 91,120 92,120 93,120 94,119 95,117 96,115 97,114 98,114 99,112 100,110 101,108 102,107 103,106 104,105 105,105 106,105 107,105 108,104 109,104 110,103 111,103 112,103 113,103 114,102 115,102 116,101 117,101 118,101 119,100 120,99 121,99 122,98 123,98 124,97 125,96 126,95 127,95 128,94 129,93 130,92 131,92 132,91 133,90 134,90 135,90 136,89 137,88 138,87 139,86 140,86 141,85 142,85 143,84 144,84 145,84 146,84 147,85 148,85 149,86 150,87 151,88 152,88 153,88 154,88 155,88 156,88 157,88 158,88 159,88 160,88 161,88 162,88 163,88 164,88 165,88 166,87 167,86 168,84 169,83 170,82 171,81 172,80 173,80 174,79 175,79 176,79 177,79 178,79 179,79 180,78 181,78 182,77 183,76 184,74 185,73 186,72 187,70 188,69 189,67 190,66 191,65 192,64 193,62 194,61 195,60 196,60 197,59 198,59 199,59 200,57 201,55 202,54 203,55 204,57 205,55 206,52 207,49 208,47 209,46 210,47 211,49 212,51 213,51 214,52 215,51 216,50 217,49 218,48 219,48 220,47 221,48 222,48 223,47 224,47 225,49 226,52 227,55 228,55 229,54 230,53 231,53 232,55 233,55 234,54 235,55 236,54 237,54 238,55 239,57 240,56 241,55 242,54 243,54 244,55 245,58 246,60 247,60 248,59 249,59 250,60 251,62 252,66 253,68 254,64 255,55 256,36 257,17 258,14 259,14 260,14 261,14 262,14 263,14 264,14 265,14 266,14 267,14 268,14 269,14 270,14 271,14 272,14 273,14 274,14 275,14 276,14 277,14 278,14 279,14 280,14 281,14 282,14 283,14 284,14 285,14 286,14 287,14 288,14 289,14 290,14 291,14 292,14 293,14 294,14 295,14 296,14 297,14 298,14 299,14 300,14 301,14 302,14 303,14 304,14 305,14 306,14 307,14 308,14 309,14 310,14 311,14 312,14 313,14 314,14 315,14 316,14 317,14 318,14 319,14 320,14 321,14 322,14 323,14 324,14 325,14 326,14 327,14 328,14 329,14 330,14 331,14 332,14 333,14 334,14 335,14 336,14 337,14 338,14 339,14 340,14 341,14 342,14 343,14 344,14 345,14 346,14 347,14 348,14 349,14 350,14 351,14 352,14 353,14 354,14 355,14 356,14 357,14 358,14 359,14 360,14 361,14 362,14 363,14 364,14 365,14 366,14 367,14 368,14 369,14 370,14 371,14 372,14 373,14 374,14 375,14 376,14 377,14 378,14 379,14 380,14 381,14 382,14 383,14 384,14 385,14 386,14 387,14 388,14 389,14 390,14 391,14 392,14 393,14 394,14 395,14 396,14 397,14 398,14 399,14 400,14 401,14 402,14 403,14 404,14 405,14 406,14 407,14 408,14 409,14 410,14 411,14 412,14 413,14 414,14 415,14 416,14 417,14 418,14 419,14 420,14 421,14 422,14 423,14 424,14 425,14 426,14 427,14 428,14 429,14 430,14 431,14 432,14 433,14 434,14 435,14 436,14 437,14 438,14 439,14 440,14 441,14 442,14 443,14 444,14 445,14 446,14 447,14 448,14 449,14 450,14 451,14 452,14 453,14 454,14 455,14 456,14 457,14 458,14 459,14 460,14 461,14 462,14 463,14 464,14 465,14 466,14 467,14 468,14 469,14 " />
</svg>
